<svg width="24" height="25" viewBox="0 0 24 25" fill="none" xmlns="http://www.w3.org/2000/svg">
<g clip-path="url(#clip0_149_170)">
<path d="M20.2426 8.30085L10.905 1.01544C10.1757 0.447192 9.31275 0.104929 8.41181 0.0265858C7.51087 -0.0517573 6.60713 0.13688 5.80078 0.571587C4.99442 1.00629 4.31695 1.67009 3.84345 2.4894C3.36994 3.30871 3.11891 4.25153 3.11817 5.21335V19.7915C3.11676 20.7542 3.36648 21.6985 3.83954 22.5192C4.31259 23.34 4.99041 24.0049 5.79755 24.44C6.6047 24.8752 7.5095 25.0634 8.41123 24.9839C9.31297 24.9043 10.1763 24.56 10.905 23.9894L20.2426 16.704C20.8622 16.2202 21.366 15.5879 21.7133 14.8585C22.0605 14.129 22.2415 13.3227 22.2415 12.505C22.2415 11.6873 22.0605 10.8811 21.7133 10.1516C21.366 9.42209 20.8622 8.78986 20.2426 8.30606V8.30085Z" fill="#DDDDDD"/>
</g>
<defs>
<clipPath id="clip0_149_170">
<rect width="23.4957" height="25" fill="white" transform="translate(0.181152)"/>
</clipPath>
</defs>
</svg>
