<svg width="33" height="33" viewBox="0 0 33 33" fill="none" xmlns="http://www.w3.org/2000/svg">
<path d="M26.7285 4.21382C25.0378 2.80821 23.074 1.76769 20.9608 1.15782C18.8476 0.547955 16.6309 0.381957 14.4503 0.67029C10.4164 1.19384 6.7331 3.23151 4.14834 6.36954C1.56357 9.50757 0.27109 13.5107 0.533335 17.5662C0.795581 21.6217 2.59289 25.4254 5.56033 28.2051C8.52776 30.9848 12.4429 32.5321 16.5107 32.5327H25.8278C27.5967 32.5306 29.2926 31.8276 30.5434 30.578C31.7942 29.3284 32.4979 27.6342 32.5 25.8669V15.6136V15.5296C32.3588 13.3505 31.7741 11.2231 30.7817 9.27743C29.7894 7.33177 28.4102 5.60878 26.7285 4.21382ZM11.1489 9.86907H16.4867C16.8406 9.86907 17.18 10.0095 17.4303 10.2595C17.6805 10.5096 17.8211 10.8486 17.8211 11.2022C17.8211 11.5558 17.6805 11.8949 17.4303 12.1449C17.18 12.3949 16.8406 12.5354 16.4867 12.5354H11.1489C10.795 12.5354 10.4556 12.3949 10.2053 12.1449C9.95508 11.8949 9.81448 11.5558 9.81448 11.2022C9.81448 10.8486 9.95508 10.5096 10.2053 10.2595C10.4556 10.0095 10.795 9.86907 11.1489 9.86907ZM21.8245 23.2006H11.1489C10.795 23.2006 10.4556 23.0602 10.2053 22.8102C9.95508 22.5601 9.81448 22.221 9.81448 21.8675C9.81448 21.5139 9.95508 21.1748 10.2053 20.9248C10.4556 20.6748 10.795 20.5343 11.1489 20.5343H21.8245C22.1784 20.5343 22.5178 20.6748 22.7681 20.9248C23.0183 21.1748 23.1589 21.5139 23.1589 21.8675C23.1589 22.221 23.0183 22.5601 22.7681 22.8102C22.5178 23.0602 22.1784 23.2006 21.8245 23.2006ZM21.8245 17.868H11.1489C10.795 17.868 10.4556 17.7275 10.2053 17.4775C9.95508 17.2275 9.81448 16.8884 9.81448 16.5348C9.81448 16.1813 9.95508 15.8422 10.2053 15.5922C10.4556 15.3421 10.795 15.2017 11.1489 15.2017H21.8245C22.1784 15.2017 22.5178 15.3421 22.7681 15.5922C23.0183 15.8422 23.1589 16.1813 23.1589 16.5348C23.1589 16.8884 23.0183 17.2275 22.7681 17.4775C22.5178 17.7275 22.1784 17.868 21.8245 17.868Z" fill="#DDDDDD"/>
</svg>
