<svg width="32" height="32" viewBox="0 0 32 32" fill="none" xmlns="http://www.w3.org/2000/svg">
<g clip-path="url(#clip0_121_198)">
<path d="M30.4412 12.2294L25.2692 7.05737C24.7395 6.54581 23.8955 6.5605 23.3839 7.09018C22.8849 7.60687 22.8849 8.42606 23.3839 8.94275L28.5559 14.1147C28.7096 14.2714 28.8439 14.4461 28.9559 14.6347C28.9359 14.6347 28.9199 14.6241 28.8999 14.6241L7.98791 14.6667C7.25154 14.6667 6.6546 15.2637 6.6546 16.0001C6.6546 16.7364 7.25154 17.3334 7.98791 17.3334L28.8919 17.2907C28.9292 17.2907 28.9599 17.272 28.9959 17.2694C28.8777 17.4949 28.7277 17.7024 28.5506 17.8854L23.3786 23.0574C22.8489 23.5689 22.8342 24.413 23.3458 24.9427C23.8574 25.4724 24.7014 25.4871 25.2311 24.9755C25.2422 24.9647 25.2532 24.9538 25.2639 24.9427L30.4359 19.7707C32.518 17.688 32.518 14.312 30.4359 12.2294H30.4412Z" fill="#DDDDDD"/>
<path d="M9.33588 29.3333H6.66919C4.46006 29.3333 2.66919 27.5424 2.66919 25.3333V6.66669C2.66919 4.45756 4.46006 2.66669 6.66919 2.66669H9.33588C10.0723 2.66669 10.6692 2.06975 10.6692 1.33337C10.6692 0.597 10.0723 0 9.33588 0H6.66919C2.98919 0.0044375 0.00700098 2.98662 0.00256348 6.66669V25.3334C0.00700098 29.0134 2.98919 31.9956 6.66925 32H9.33594C10.0723 32 10.6693 31.4031 10.6693 30.6667C10.6693 29.9303 10.0723 29.3333 9.33588 29.3333Z" fill="#DDDDDD"/>
</g>
<defs>
<clipPath id="clip0_121_198">
<rect width="32" height="32" fill="white"/>
</clipPath>
</defs>
</svg>
