<svg width="31" height="31" viewBox="0 0 31 31" fill="none" xmlns="http://www.w3.org/2000/svg">
<path d="M15.4999 19.251C13.4231 19.251 11.7394 20.9346 11.7394 23.0115V30.5325H19.2605V23.0115C19.2605 20.9346 17.5768 19.251 15.4999 19.251Z" fill="#DDDDDD"/>
<path d="M21.7675 23.0116V30.5326H26.7815C28.8584 30.5326 30.542 28.849 30.542 26.7721V15.3389C30.5423 14.6877 30.2892 14.0619 29.8363 13.594L19.184 2.07809C17.3045 0.0444749 14.1323 -0.0803856 12.0987 1.79916C12.0021 1.88847 11.909 1.98149 11.8197 2.07809L1.18625 13.5903C0.719596 14.0601 0.457771 14.6955 0.457947 15.3577V26.7721C0.457947 28.849 2.1416 30.5326 4.21845 30.5326H9.23244V23.0116C9.25589 19.5935 12.0156 16.8023 15.3476 16.7219C18.791 16.6388 21.7412 19.4776 21.7675 23.0116Z" fill="#DDDDDD"/>
<path d="M15.4999 19.251C13.4231 19.251 11.7394 20.9346 11.7394 23.0115V30.5325H19.2605V23.0115C19.2605 20.9346 17.5768 19.251 15.4999 19.251Z" fill="#DDDDDD"/>
</svg>
