<svg width="29" height="32" viewBox="0 0 29 32" fill="none" xmlns="http://www.w3.org/2000/svg">
<path d="M0.542797 24C1.65362 25.9141 4.11706 26.5718 6.04499 25.4689C6.04631 25.4681 6.04757 25.4674 6.04889 25.4666L6.64648 25.1239C7.77455 26.0822 9.07121 26.8253 10.4712 27.3159V28C10.4712 30.2091 12.275 32 14.5 32C16.725 32 18.5288 30.2091 18.5288 28V27.316C19.929 26.8246 21.2257 26.0806 22.3535 25.1213L22.9538 25.4653C24.8822 26.5699 27.3474 25.9132 28.4599 23.9986C29.5724 22.0841 28.9111 19.6365 26.9827 18.5319L26.3864 18.1906C26.6548 16.7406 26.6548 15.2541 26.3864 13.8039L26.9827 13.4626C28.911 12.3581 29.5724 9.91056 28.4599 7.99594C27.3474 6.08138 24.8822 5.42469 22.9538 6.52925L22.3562 6.87194C21.227 5.91488 19.9295 5.17313 18.5288 4.684V4C18.5288 1.79087 16.725 0 14.5 0C12.275 0 10.4712 1.79087 10.4712 4V4.684C9.07102 5.17544 7.7743 5.91944 6.64648 6.87869L6.04618 6.53337C4.11776 5.42875 1.65261 6.08544 0.54009 8C-0.572435 9.91456 0.0889232 12.3621 2.01735 13.4667L2.61362 13.808C2.3452 15.2581 2.3452 16.7446 2.61362 18.1947L2.01735 18.536C0.094274 19.6435 -0.564944 22.0863 0.542797 24ZM14.5 10.6667C17.4667 10.6667 19.8718 13.0545 19.8718 16C19.8718 18.9455 17.4667 21.3333 14.5 21.3333C11.5333 21.3333 9.12824 18.9455 9.12824 16C9.12824 13.0545 11.5333 10.6667 14.5 10.6667Z" fill="#DDDDDD"/>
</svg>
