<svg width="31" height="32" viewBox="0 0 31 32" fill="none" xmlns="http://www.w3.org/2000/svg">
<g clip-path="url(#clip0_208_177)">
<path d="M7.10417 27.6577C6.24774 27.6577 5.42639 27.3175 4.8208 26.7119C4.21521 26.1063 3.875 25.285 3.875 24.4285V2.47021C3.875 1.95636 3.67087 1.46355 3.30752 1.1002C2.94417 0.736844 2.45136 0.532715 1.9375 0.532715C1.42364 0.532715 0.930832 0.736844 0.567481 1.1002C0.204129 1.46355 0 1.95636 0 2.47021L0 24.4285C0 26.3127 0.748473 28.1197 2.08076 29.452C3.41305 30.7842 5.22002 31.5327 7.10417 31.5327H29.0625C29.5764 31.5327 30.0692 31.3286 30.4325 30.9652C30.7959 30.6019 31 30.1091 31 29.5952C31 29.0814 30.7959 28.5885 30.4325 28.2252C30.0692 27.8618 29.5764 27.6577 29.0625 27.6577H7.10417Z" fill="#DDDDDD"/>
<path d="M25.1875 23.7827C25.7014 23.7827 26.1942 23.5786 26.5575 23.2152C26.9209 22.8519 27.125 22.3591 27.125 21.8452V14.0952C27.125 13.5814 26.9209 13.0885 26.5575 12.7252C26.1942 12.3618 25.7014 12.1577 25.1875 12.1577C24.6736 12.1577 24.1808 12.3618 23.8175 12.7252C23.4541 13.0885 23.25 13.5814 23.25 14.0952V21.8452C23.25 22.3591 23.4541 22.8519 23.8175 23.2152C24.1808 23.5786 24.6736 23.7827 25.1875 23.7827Z" fill="#DDDDDD"/>
<path d="M9.6875 23.7827C10.2014 23.7827 10.6942 23.5786 11.0575 23.2152C11.4209 22.8519 11.625 22.3591 11.625 21.8452V14.0952C11.625 13.5814 11.4209 13.0885 11.0575 12.7252C10.6942 12.3618 10.2014 12.1577 9.6875 12.1577C9.17364 12.1577 8.68083 12.3618 8.31748 12.7252C7.95413 13.0885 7.75 13.5814 7.75 14.0952V21.8452C7.75 22.3591 7.95413 22.8519 8.31748 23.2152C8.68083 23.5786 9.17364 23.7827 9.6875 23.7827Z" fill="#DDDDDD"/>
<path d="M17.4375 23.7826C17.9514 23.7826 18.4442 23.5784 18.8075 23.2151C19.1709 22.8517 19.375 22.3589 19.375 21.8451V7.63672C19.375 7.12286 19.1709 6.63005 18.8075 6.2667C18.4442 5.90335 17.9514 5.69922 17.4375 5.69922C16.9236 5.69922 16.4308 5.90335 16.0675 6.2667C15.7041 6.63005 15.5 7.12286 15.5 7.63672V21.8451C15.5 22.3589 15.7041 22.8517 16.0675 23.2151C16.4308 23.5784 16.9236 23.7826 17.4375 23.7826Z" fill="#DDDDDD"/>
</g>
<defs>
<clipPath id="clip0_208_177">
<rect width="31" height="31" fill="white" transform="translate(0 0.532715)"/>
</clipPath>
</defs>
</svg>
