<svg width="33" height="33" viewBox="0 0 33 33" fill="none" xmlns="http://www.w3.org/2000/svg">
<g clip-path="url(#clip0_208_176)">
<path d="M10.5 17.8661C9.31331 17.8661 8.15327 17.5142 7.16658 16.8549C6.17988 16.1956 5.41085 15.2585 4.95672 14.1622C4.5026 13.0658 4.38378 11.8594 4.61529 10.6955C4.8468 9.53162 5.41824 8.46253 6.25736 7.62341C7.09647 6.7843 8.16557 6.21285 9.32946 5.98134C10.4933 5.74983 11.6997 5.86865 12.7961 6.32277C13.8925 6.7769 14.8295 7.54593 15.4888 8.53263C16.1481 9.51932 16.5 10.6794 16.5 11.8661C16.4982 13.4568 15.8655 14.9819 14.7407 16.1067C13.6159 17.2316 12.0908 17.8643 10.5 17.8661ZM20.5 27.1994C20.4979 25.4319 19.7948 23.7375 18.545 22.4877C17.2953 21.2379 15.6008 20.5348 13.8333 20.5327H7.16667C5.39921 20.5348 3.70474 21.2379 2.45496 22.4877C1.20518 23.7375 0.502117 25.4319 0.5 27.1994L0.5 32.5327H20.5V27.1994ZM23.8333 12.5327C22.6466 12.5327 21.4866 12.1808 20.4999 11.5215C19.5132 10.8622 18.7442 9.92517 18.2901 8.82882C17.8359 7.73246 17.7171 6.52606 17.9486 5.36218C18.1801 4.19829 18.7516 3.12919 19.5907 2.29008C20.4298 1.45096 21.4989 0.879517 22.6628 0.648006C23.8267 0.416495 25.0331 0.535315 26.1294 0.98944C27.2258 1.44357 28.1629 2.2126 28.8222 3.1993C29.4814 4.18599 29.8333 5.34603 29.8333 6.53272C29.8316 8.12348 29.1989 9.64857 28.074 10.7734C26.9492 11.8982 25.4241 12.531 23.8333 12.5327ZM25.8333 15.1994H19.1667C18.9327 15.2101 18.6994 15.2337 18.468 15.2701C17.9832 16.3918 17.2672 17.3986 16.3667 18.2247C18.3218 18.7779 20.0432 19.9533 21.2703 21.5728C22.4974 23.1922 23.1631 25.1675 23.1667 27.1994H32.5V21.8661C32.4979 20.0986 31.7948 18.4041 30.545 17.1543C29.2953 15.9046 27.6008 15.2015 25.8333 15.1994Z" fill="#DDDDDD"/>
</g>
<defs>
<clipPath id="clip0_208_176">
<rect width="32" height="32" fill="white" transform="translate(0.5 0.532715)"/>
</clipPath>
</defs>
</svg>
