<svg width="16" height="16" viewBox="0 0 16 16" fill="none" xmlns="http://www.w3.org/2000/svg">
<path d="M15.0833 6.57479C15.6747 7.24479 16 8.10612 16 9.00012V11.6668C16 13.6888 14.3547 15.3335 12.3333 15.3335H3.66667C1.64533 15.3335 0 13.6888 0 11.6668V9.00012C0 6.97812 1.64533 5.33346 3.66667 5.33346H6.33333C6.88533 5.33346 7.33333 5.78079 7.33333 6.33346C7.33333 6.88612 6.88533 7.33346 6.33333 7.33346H3.66667C2.74733 7.33346 2 8.08146 2 9.00012V11.6668C2 12.5855 2.74733 13.3335 3.66667 13.3335H12.3333C13.2527 13.3335 14 12.5855 14 11.6668V9.00012C14 8.59412 13.852 8.20279 13.5833 7.89812C13.218 7.48412 13.258 6.85212 13.672 6.48679C14.086 6.12079 14.718 6.16012 15.0833 6.57479ZM3.33333 10.3335C3.33333 10.8855 3.78133 11.3335 4.33333 11.3335C4.88533 11.3335 5.33333 10.8855 5.33333 10.3335C5.33333 9.78146 4.88533 9.33346 4.33333 9.33346C3.78133 9.33346 3.33333 9.78146 3.33333 10.3335ZM6.66667 10.3335C6.66667 10.8855 7.11467 11.3335 7.66667 11.3335C8.21867 11.3335 8.66667 10.8855 8.66667 10.3335C8.66667 9.78146 8.21867 9.33346 7.66667 9.33346C7.11467 9.33346 6.66667 9.78146 6.66667 10.3335ZM9.01733 7.33346H9.654C10.42 7.33346 11.1553 7.02879 11.6967 6.48746L15.5067 2.67746C16.0733 2.11079 16.182 1.18679 15.6747 0.566123C15.0913 -0.147211 14.0373 -0.186544 13.402 0.448789L9.53 4.32079C8.988 4.86279 8.684 5.59746 8.684 6.36346V7.00012C8.684 7.18412 8.83333 7.33346 9.01733 7.33346Z" fill="#DDDDDD"/>
</svg>
