<svg width="41" height="40" viewBox="0 0 41 40" fill="none" xmlns="http://www.w3.org/2000/svg">
<path d="M40.0133 8.15167C39.5033 3.505 35.5567 0 30.8333 0C25.7783 0 21.6667 4.11333 21.6667 9.16667V13.3333H8.33333C3.73833 13.3333 0 17.0717 0 21.6667V31.6667C0 36.2617 3.73833 40 8.33333 40H21.6667C26.2617 40 30 36.2617 30 31.6667V21.6667C30 18.2567 27.94 15.3183 25 14.03V9.16667C25 5.95 27.6167 3.33333 30.8333 3.33333C33.8033 3.33333 36.38 5.60833 36.7 8.515C36.8 9.43 37.64 10.0883 38.5383 9.99C39.4533 9.88833 40.1133 9.06667 40.0133 8.15167ZM16.6667 28.3333C16.6667 29.255 15.92 30 15 30C14.08 30 13.3333 29.255 13.3333 28.3333V25C13.3333 24.0783 14.08 23.3333 15 23.3333C15.92 23.3333 16.6667 24.0783 16.6667 25V28.3333Z" fill="#DADADA"/>
</svg>
