<svg width="32" height="39" viewBox="0 0 32 39" fill="none" xmlns="http://www.w3.org/2000/svg">
<path d="M27.2 13.4784V11.2C27.2 5.01443 22.1856 0 16 0C9.81437 0 4.80001 5.01443 4.80001 11.2V13.4784C1.88805 14.7493 0.00420001 17.6229 0 20.8V30.4C0.00525001 34.8161 3.58388 38.3948 7.99996 38.4001H24C28.416 38.3948 31.9947 34.8161 32 30.4V20.8C31.9959 17.6229 30.1119 14.7493 27.2 13.4784ZM17.6 27.2001C17.6 28.0837 16.8837 28.8 16 28.8C15.1163 28.8 14.4 28.0837 14.4 27.2001V24C14.4 23.1164 15.1163 22.4001 16 22.4001C16.8837 22.4001 17.6 23.1164 17.6 24V27.2001ZM24 12.8H7.99996V11.2001C7.99996 6.78181 11.5817 3.20003 16 3.20003C20.4183 3.20003 24 6.78174 24 11.2001V12.8Z" fill="#DADADA"/>
</svg>
