<svg width="53" height="53" viewBox="0 0 53 53" fill="none" xmlns="http://www.w3.org/2000/svg">
<g clip-path="url(#clip0_937_9)">
<path d="M23.0734 22.2865C29.2277 22.2865 34.2167 17.2975 34.2167 11.1433C34.2167 4.989 29.2277 0 23.0734 0C16.9192 0 11.9302 4.989 11.9302 11.1433C11.9302 17.2975 16.9192 22.2865 23.0734 22.2865Z" fill="#DDDDDD"/>
<path d="M27.604 41.9585C27.604 34.8753 32.7395 29.0044 39.4882 27.8318C37.663 25.4832 35.3873 23.5322 32.7969 22.1299C30.2032 24.4265 26.8068 25.831 23.0736 25.831C19.357 25.831 15.9727 24.4387 13.3857 22.1641C6.6359 25.8476 2.0249 33.2378 2.0249 41.7575C2.0249 43.0991 2.14526 44.4087 2.36388 45.6851H28.1097C27.7906 44.4948 27.604 43.2504 27.604 41.9585Z" fill="#DDDDDD"/>
<path d="M41.9582 30.9165C35.861 30.9165 30.9165 35.861 30.9165 41.9582C30.9165 48.0554 35.861 52.9998 41.9582 52.9998C48.0554 52.9998 52.9998 48.0554 52.9998 41.9582C52.9998 35.861 48.0554 30.9165 41.9582 30.9165ZM48.2287 45.8868L45.8868 48.2287L41.9582 44.3001L38.0295 48.2298L35.6876 45.8868L39.6162 41.9582L35.6876 38.0295L38.0295 35.6876L41.9582 39.6162L45.8868 35.6876L48.2287 38.0307L44.3001 41.9582L48.2287 45.8868Z" fill="#DDDDDD"/>
</g>
<defs>
<clipPath id="clip0_937_9">
<rect width="53" height="53" fill="white"/>
</clipPath>
</defs>
</svg>
