<svg width="46" height="46" viewBox="0 0 46 46" fill="none" xmlns="http://www.w3.org/2000/svg">
<g clip-path="url(#clip0_934_7)">
<path d="M28.6117 17.25H28.7497C31.9199 17.25 34.4997 14.6702 34.4997 11.5V5.75C34.4997 2.57983 31.9199 0 28.7497 0H17.2497C14.0795 0 11.4997 2.57983 11.4997 5.75V11.5C11.4997 14.6702 14.0795 17.25 17.2497 17.25H17.6369L21.152 20.3492C21.7079 20.8399 22.4036 21.0853 23.0994 21.0853C23.7855 21.0853 24.4717 20.8437 25.0122 20.3646L28.6117 17.2519V17.25ZM23.0974 16.951L19.6283 13.8958C19.2775 13.5872 18.8271 13.4167 18.3614 13.4167H17.2497C16.1917 13.4167 15.333 12.5561 15.333 11.5V5.75C15.333 4.69392 16.1917 3.83333 17.2497 3.83333H28.7497C29.8077 3.83333 30.6664 4.69392 30.6664 5.75V11.5C30.6664 12.5561 29.8077 13.4167 28.7497 13.4167H27.8987C27.4387 13.4167 26.9921 13.5815 26.6452 13.8843L23.0974 16.9529V16.951ZM10.5414 34.5C14.2405 34.5 17.2497 31.4908 17.2497 27.7917C17.2497 24.0925 14.2405 21.0833 10.5414 21.0833C6.84219 21.0833 3.83302 24.0925 3.83302 27.7917C3.83302 31.4908 6.84219 34.5 10.5414 34.5ZM10.5414 24.9167C12.1264 24.9167 13.4164 26.2066 13.4164 27.7917C13.4164 29.3767 12.1264 30.6667 10.5414 30.6667C8.95627 30.6667 7.66635 29.3767 7.66635 27.7917C7.66635 26.2066 8.95627 24.9167 10.5414 24.9167ZM28.7497 27.7917C28.7497 31.4908 31.7589 34.5 35.458 34.5C39.1572 34.5 42.1664 31.4908 42.1664 27.7917C42.1664 24.0925 39.1572 21.0833 35.458 21.0833C31.7589 21.0833 28.7497 24.0925 28.7497 27.7917ZM35.458 24.9167C37.0431 24.9167 38.333 26.2066 38.333 27.7917C38.333 29.3767 37.0431 30.6667 35.458 30.6667C33.8729 30.6667 32.583 29.3767 32.583 27.7917C32.583 26.2066 33.8729 24.9167 35.458 24.9167ZM20.9623 43.4106C21.3322 44.4015 20.8319 45.5074 19.841 45.8792C19.6187 45.9617 19.3925 46.0019 19.1664 46.0019C18.392 46.0019 17.6599 45.5266 17.3704 44.758C16.3604 42.0632 13.6157 40.2519 10.5414 40.2519C7.46702 40.2519 4.72235 42.0632 3.71227 44.758C3.34044 45.7508 2.23452 46.2453 1.2436 45.8792C0.252687 45.5074 -0.247563 44.4015 0.122354 43.4106C1.69019 39.2265 5.8781 36.4167 10.5433 36.4167C15.2084 36.4167 19.3925 39.2265 20.9623 43.4106ZM44.7577 45.8792C44.5354 45.9617 44.3092 46.0019 44.083 46.0019C43.3087 46.0019 42.5765 45.5266 42.2871 44.758C41.277 42.0632 38.5324 40.2519 35.458 40.2519C32.3837 40.2519 29.639 42.0632 28.6289 44.758C28.2571 45.7508 27.1512 46.2453 26.1603 45.8792C25.1694 45.5074 24.6691 44.4015 25.039 43.4106C26.6069 39.2265 30.7948 36.4167 35.4599 36.4167C40.1251 36.4167 44.3111 39.2265 45.8809 43.4106C46.2508 44.4015 45.7505 45.5074 44.7596 45.8792H44.7577Z" fill="#DDDDDD"/>
</g>
<defs>
<clipPath id="clip0_934_7">
<rect width="46" height="46" fill="white"/>
</clipPath>
</defs>
</svg>
