<svg width="59" height="59" viewBox="0 0 59 59" fill="none" xmlns="http://www.w3.org/2000/svg">
<g clip-path="url(#clip0_934_2)">
<path d="M50.15 7.375H8.85L8.1125 8.1125C2.95 14.0125 0 21.6333 0 29.5C0 43.0208 5.40833 54.0833 12.2917 54.0833C17.7 54.0833 20.4042 46.2167 21.6333 41.7917H37.3667C38.5958 46.2167 41.3 54.0833 46.7083 54.0833C53.5917 54.0833 59 43.0208 59 29.5C59 21.6333 56.05 14.0125 50.8875 8.1125L50.15 7.375ZM46.7083 49.1667C45.2333 49.1667 42.775 44.0042 41.7917 38.8417L41.3 36.875H17.7L17.2083 38.8417C16.225 44.0042 13.7667 49.1667 12.2917 49.1667C9.83333 49.1667 4.91667 41.5458 4.91667 29.5C4.91667 23.3542 7.12917 17.2083 11.0625 12.2917H48.1833C52.1167 17.2083 54.0833 23.3542 54.0833 29.5C54.0833 41.5458 49.1667 49.1667 46.7083 49.1667Z" fill="#DDDDDD"/>
<path d="M19.6668 17.2085H14.7502V22.1252H9.8335V27.0418H14.7502V31.9585H19.6668V27.0418H24.5835V22.1252H19.6668V17.2085Z" fill="#DDDDDD"/>
<path d="M45.479 24.5835C47.5156 24.5835 49.1665 22.9325 49.1665 20.896C49.1665 18.8594 47.5156 17.2085 45.479 17.2085C43.4425 17.2085 41.7915 18.8594 41.7915 20.896C41.7915 22.9325 43.4425 24.5835 45.479 24.5835Z" fill="#DDDDDD"/>
<path d="M38.104 31.9585C40.1406 31.9585 41.7915 30.3075 41.7915 28.271C41.7915 26.2344 40.1406 24.5835 38.104 24.5835C36.0675 24.5835 34.4165 26.2344 34.4165 28.271C34.4165 30.3075 36.0675 31.9585 38.104 31.9585Z" fill="#DDDDDD"/>
</g>
<defs>
<clipPath id="clip0_934_2">
<rect width="59" height="59" fill="white"/>
</clipPath>
</defs>
</svg>
