<svg width="31" height="31" viewBox="0 0 31 31" fill="none" xmlns="http://www.w3.org/2000/svg">
<g clip-path="url(#clip0_119_176)">
<path d="M29.7084 14.2085H27.125V11.6251C27.125 10.9118 26.5468 10.3335 25.8334 10.3335C25.12 10.3335 24.5417 10.9118 24.5417 11.6251V14.2085H21.9584C21.245 14.2085 20.6667 14.7868 20.6667 15.5001C20.6667 16.2135 21.245 16.7918 21.9584 16.7918H24.5417V19.3751C24.5417 20.0885 25.12 20.6668 25.8334 20.6668C26.5468 20.6668 27.125 20.0885 27.125 19.3751V16.7918H29.7084C30.4218 16.7918 31 16.2135 31 15.5001C31 14.7868 30.4218 14.2085 29.7084 14.2085Z" fill="#DDDDDD"/>
<path d="M11.625 15.5C15.9052 15.5 19.375 12.0302 19.375 7.75C19.375 3.46979 15.9052 0 11.625 0C7.34479 0 3.875 3.46979 3.875 7.75C3.875 12.0302 7.34479 15.5 11.625 15.5Z" fill="#DDDDDD"/>
<path d="M11.625 18.0835C5.20764 18.0906 0.00714453 23.2911 0 29.7085C0 30.4219 0.578283 31.0001 1.29165 31.0001H21.9583C22.6717 31.0001 23.2499 30.4219 23.2499 29.7085C23.2429 23.2911 18.0424 18.0906 11.625 18.0835Z" fill="#DDDDDD"/>
</g>
<defs>
<clipPath id="clip0_119_176">
<rect width="31" height="31" fill="white"/>
</clipPath>
</defs>
</svg>
