<svg width="60" height="60" viewBox="0 0 60 60" fill="none" xmlns="http://www.w3.org/2000/svg">
<g clip-path="url(#clip0_435_221)">
<path d="M46.4326 5.315L30.7851 0.1275C30.2776 -0.0425 29.7201 -0.0425 29.2126 0.1275L13.5651 5.315C8.44006 7.015 4.99756 11.7825 4.99756 17.18V30.1075C4.99756 46.515 22.5101 56.55 27.8776 59.2325C27.8776 59.2325 29.0451 60 30.0026 60C30.9601 60 31.9801 59.4 31.9801 59.4C37.3801 57.2275 54.9976 48.6975 54.9976 30.1075V17.18C54.9976 11.7825 51.5576 7.015 46.4326 5.315ZM32.5001 29.4775V37.5C32.5001 38.8825 31.3826 40 30.0001 40C28.6176 40 27.5001 38.8825 27.5001 37.5V29.4775C25.2926 28.5125 23.7501 26.3125 23.7501 23.75C23.7501 20.2975 26.5476 17.5 30.0001 17.5C33.4526 17.5 36.2501 20.2975 36.2501 23.75C36.2501 26.3125 34.7076 28.515 32.5001 29.4775Z" fill="#9DB2BF"/>
</g>
<defs>
<clipPath id="clip0_435_221">
<rect width="60" height="60" fill="white"/>
</clipPath>
</defs>
</svg>
