<svg width="115" height="115" viewBox="0 0 115 115" fill="none" xmlns="http://www.w3.org/2000/svg">
<path d="M86.25 86.25C102.128 70.3718 102.128 44.6282 86.25 28.75C70.3718 12.8718 44.6282 12.8718 28.75 28.75C12.8718 44.6282 12.8718 70.3718 28.75 86.25C44.6282 102.128 70.3718 102.128 86.25 86.25Z" fill="#B9C4E1"/>
<path d="M57.5006 71.2868C66.2358 71.2868 73.317 62.1325 73.317 50.8402C73.317 39.5478 66.2358 30.3936 57.5006 30.3936C48.7654 30.3936 41.6841 39.5478 41.6841 50.8402C41.6841 62.1325 48.7654 71.2868 57.5006 71.2868Z" fill="white"/>
<path d="M57.5009 72.8052C44.2704 72.8052 32.6251 76.8483 25.824 82.9776C33.2767 92.2322 44.6941 98.1588 57.5009 98.1588C70.3083 98.1588 81.7257 92.2316 89.1778 82.9776C82.3767 76.8483 70.7314 72.8052 57.5009 72.8052Z" fill="white"/>
<path d="M59.267 83.3207H55.7356C52.4119 83.3207 49.6929 80.6016 49.6929 77.278V63.5427C49.6929 60.2191 52.4119 57.5 55.7356 57.5H59.267C62.5907 57.5 65.3097 60.2191 65.3097 63.5427V77.278C65.3097 80.6016 62.5907 83.3207 59.267 83.3207Z" fill="white"/>
<path d="M43.8677 51.7881C44.7887 54.44 44.4233 56.9751 43.0515 57.4516C41.6797 57.9281 39.8214 56.1646 38.901 53.5127C37.98 50.8608 38.3454 48.3257 39.7172 47.8492C41.089 47.3727 42.9473 49.1362 43.8677 51.7881Z" fill="white"/>
<path d="M71.1337 51.7881C70.2127 54.44 70.5781 56.9751 71.9499 57.4516C73.3216 57.9281 75.1799 56.1646 76.1003 53.5127C77.0213 50.8608 76.6559 48.3257 75.2842 47.8492C73.9124 47.3727 72.0547 49.1362 71.1337 51.7881Z" fill="white"/>
<path d="M43.6581 51.7027C41.6026 47.964 39.4882 43.9975 39.5936 39.7328C39.6991 35.468 42.9462 30.966 47.2096 31.1211C47.9536 31.1481 48.6994 31.3119 49.4359 31.2071C50.9106 30.9968 52.003 29.792 53.199 28.9043C55.8967 26.9028 59.6529 26.4282 62.7637 27.6951C64.686 28.478 66.3133 29.8479 68.188 30.7387C71.6811 32.3987 75.986 32.2248 79.3335 30.288C78.6354 31.6013 77.4532 32.6511 76.0664 33.1891C77.3453 33.5972 78.7622 33.5576 80.0166 33.0792C79.2607 34.4485 78.0095 35.5384 76.5492 36.0996C77.6315 36.1743 78.7139 36.249 79.7969 36.3231C78.8734 37.6309 77.5537 38.6555 76.0576 39.2255C76.9058 39.2531 77.754 39.2808 78.6028 39.3078C77.9706 41.1793 76.3326 42.6772 74.4121 43.1393C74.9589 43.1468 75.5064 43.1544 76.0532 43.1613C74.2608 45.7472 72.469 48.3332 70.6766 50.9191C70.1643 51.6581 69.6326 52.4165 68.8761 52.9018C68.2476 53.3048 67.5074 53.49 66.7785 53.6533C61.4698 54.8436 55.9751 55.2015 50.5571 54.7093C48.7038 54.541 46.7651 54.2359 45.2929 53.0983C43.8207 51.9607 43.0309 49.7363 44.0448 48.175" fill="white"/>
<path d="M47.3042 76.669C47.421 74.5231 47.6885 72.386 48.1041 70.2778C49.1645 71.4908 50.965 71.6427 52.5747 71.708C55.0119 71.8072 57.4491 71.9064 59.8862 72.0049C60.17 73.6674 60.3678 75.6224 59.1668 76.8065C58.6099 77.3558 57.8408 77.6276 57.0875 77.8373C55.4451 78.2944 53.7418 78.5323 52.0367 78.543C50.0139 78.5562 47.6037 77.9497 46.9558 76.033C47.1755 75.8528 47.3947 75.6726 47.6144 75.4924" fill="white"/>
<path d="M67.6968 76.669C67.58 74.5231 67.3125 72.386 66.8976 70.2778C65.8372 71.4908 64.0366 71.6427 62.4269 71.708C59.9897 71.8072 57.5526 71.9064 55.1154 72.0049C54.8316 73.6674 54.6339 75.6224 55.8349 76.8065C56.3924 77.3558 57.1608 77.6276 57.9142 77.8373C59.5565 78.2944 61.2598 78.5323 62.9649 78.543C64.9878 78.5562 67.3986 77.9497 68.0458 76.033C67.8261 75.8528 67.607 75.6726 67.3873 75.4924" fill="white"/>
</svg>
