<svg width="28" height="30" viewBox="0 0 28 30" fill="none" xmlns="http://www.w3.org/2000/svg">
<path d="M3.87793 23H24.1209C24.7439 23 25.3578 22.8517 25.9105 22.5677C26.4633 22.2837 26.9387 21.8722 27.2965 21.3682C27.6543 20.8642 27.884 20.2825 27.9661 19.6722C28.0483 19.0619 27.9805 18.441 27.7684 17.8621L24.0808 7.78678C23.4511 5.54774 22.0965 3.57419 20.2243 2.16797C18.352 0.761747 16.0653 0.000270989 13.7137 1.2999e-09C11.2657 -3.78124e-05 8.8909 0.824918 6.98137 2.33866C5.07184 3.8524 3.74176 5.96442 3.21074 8.326L0.172226 18.0371C-0.00667212 18.6105 -0.0468901 19.2173 0.0548079 19.8088C0.156506 20.4003 0.39728 20.9599 0.757757 21.4427C1.11823 21.9255 1.58835 22.3179 2.13028 22.5884C2.6722 22.8589 3.27081 22.9998 3.87793 23Z" fill="#DDDDDD"/>
<path d="M8 26C8.28104 27.1289 9.03191 28.1438 10.1254 28.8728C11.2189 29.6018 12.5877 30 14 30C15.4123 30 16.7811 29.6018 17.8746 28.8728C18.9681 28.1438 19.719 27.1289 20 26H8Z" fill="#DDDDDD"/>
</svg>
