<svg width="34" height="18" viewBox="0 0 34 18" fill="none" xmlns="http://www.w3.org/2000/svg">
<g clip-path="url(#clip0_864_53)">
<path fill-rule="evenodd" clip-rule="evenodd" d="M9.951 6.92308H7.15125V4.15385C7.15125 3.39231 6.5213 2.76923 5.75137 2.76923C4.98143 2.76923 4.35149 3.39231 4.35149 4.15385V6.92308H1.55173C0.781801 6.92308 0.151855 7.54615 0.151855 8.30769C0.151855 9.06923 0.781801 9.69231 1.55173 9.69231H4.35149V12.4615C4.35149 13.2231 4.98143 13.8462 5.75137 13.8462C6.5213 13.8462 7.15125 13.2231 7.15125 12.4615V9.69231H9.951C10.7209 9.69231 11.3509 9.06923 11.3509 8.30769C11.3509 7.54615 10.7209 6.92308 9.951 6.92308ZM25.3497 8.30769C27.6735 8.30769 29.5353 6.45231 29.5353 4.15385C29.5353 1.85538 27.6735 0 25.3497 0C24.9017 0 24.4677 0.0692306 24.0758 0.193846C24.8737 1.31538 25.3357 2.67231 25.3357 4.15385C25.3357 5.63539 24.8597 6.97846 24.0758 8.11385C24.4677 8.23846 24.9017 8.30769 25.3497 8.30769ZM18.3503 8.30769C20.6741 8.30769 22.5359 6.45231 22.5359 4.15385C22.5359 1.85538 20.6741 0 18.3503 0C16.0265 0 14.1506 1.85538 14.1506 4.15385C14.1506 6.45231 16.0265 8.30769 18.3503 8.30769ZM18.3503 11.0769C15.5505 11.0769 9.951 12.4615 9.951 15.2308V16.6154C9.951 17.3769 10.5809 18 11.3509 18H25.3497C26.1196 18 26.7495 17.3769 26.7495 16.6154V15.2308C26.7495 12.4615 21.15 11.0769 18.3503 11.0769ZM27.6175 11.2985C28.7794 12.3092 29.5493 13.5969 29.5493 15.2308V17.3077C29.5493 17.5431 29.5213 17.7785 29.4793 18H33.049C33.441 18 33.7489 17.6954 33.7489 17.3077V15.2308C33.7489 13.0985 30.4312 11.7831 27.6175 11.2985Z" fill="#DDDDDD"/>
</g>
<defs>
<clipPath id="clip0_864_53">
<rect width="33.5971" height="18" fill="white" transform="translate(0.151855)"/>
</clipPath>
</defs>
</svg>
