<svg width="31" height="31" viewBox="0 0 31 31" fill="none" xmlns="http://www.w3.org/2000/svg">
<g clip-path="url(#clip0_427_329)">
<path d="M22.8896 3.875L21.0645 1.50867C20.7009 1.04083 20.2356 0.661871 19.7039 0.400486C19.1722 0.139101 18.588 0.0021481 17.9955 0L13.0045 0C12.412 0.0021481 11.8278 0.139101 11.296 0.400486C10.7643 0.661871 10.299 1.04083 9.93548 1.50867L8.11035 3.875H22.8896Z" fill="#ACB0B6"/>
<path d="M15.4999 23.2498C18.3534 23.2498 20.6666 20.9366 20.6666 18.0832C20.6666 15.2297 18.3534 12.9165 15.4999 12.9165C12.6464 12.9165 10.3333 15.2297 10.3333 18.0832C10.3333 20.9366 12.6464 23.2498 15.4999 23.2498Z" fill="#ACB0B6"/>
<path d="M24.5417 6.4585H6.45833C4.74611 6.46055 3.1046 7.14164 1.89387 8.35236C0.683139 9.56309 0.00205098 11.2046 0 12.9168L0 24.5418C0.00205098 26.2541 0.683139 27.8956 1.89387 29.1063C3.1046 30.317 4.74611 30.9981 6.45833 31.0002H24.5417C26.2539 30.9981 27.8954 30.317 29.1061 29.1063C30.3169 27.8956 30.9979 26.2541 31 24.5418V12.9168C30.9979 11.2046 30.3169 9.56309 29.1061 8.35236C27.8954 7.14164 26.2539 6.46055 24.5417 6.4585ZM15.5 25.8335C13.9672 25.8335 12.4688 25.379 11.1943 24.5274C9.91985 23.6758 8.92651 22.4654 8.33993 21.0493C7.75335 19.6332 7.59988 18.0749 7.89891 16.5715C8.19795 15.0682 8.93607 13.6873 10.0199 12.6034C11.1038 11.5196 12.4847 10.7814 13.988 10.4824C15.4914 10.1834 17.0497 10.3369 18.4658 10.9234C19.8819 11.51 21.0923 12.5033 21.9439 13.7778C22.7955 15.0523 23.25 16.5507 23.25 18.0835C23.2479 20.1383 22.4308 22.1083 20.9778 23.5613C19.5248 25.0143 17.5548 25.8314 15.5 25.8335Z" fill="#ACB0B6"/>
</g>
<defs>
<clipPath id="clip0_427_329">
<rect width="31" height="31" fill="white"/>
</clipPath>
</defs>
</svg>
