<svg width="30" height="30" viewBox="0 0 30 30" fill="none" xmlns="http://www.w3.org/2000/svg">
<path d="M22.5 7.49977C22.2656 7.26543 21.9477 7.13379 21.6163 7.13379C21.2848 7.13379 20.9669 7.26543 20.7325 7.49977L15 13.2323L9.26752 7.49977C9.03311 7.26543 8.71522 7.13379 8.38377 7.13379C8.05231 7.13379 7.73443 7.26543 7.50002 7.49977C7.26568 7.73418 7.13403 8.05207 7.13403 8.38352C7.13403 8.71498 7.26568 9.03286 7.50002 9.26727L13.2325 14.9998L7.50002 20.7323C7.26568 20.9667 7.13403 21.2846 7.13403 21.616C7.13403 21.9475 7.26568 22.2654 7.50002 22.4998C7.73443 22.7341 8.05231 22.8658 8.38377 22.8658C8.71522 22.8658 9.03311 22.7341 9.26752 22.4998L15 16.7673L20.7325 22.4998C20.9669 22.7341 21.2848 22.8658 21.6163 22.8658C21.9477 22.8658 22.2656 22.7341 22.5 22.4998C22.7344 22.2654 22.866 21.9475 22.866 21.616C22.866 21.2846 22.7344 20.9667 22.5 20.7323L16.7675 14.9998L22.5 9.26727C22.7344 9.03286 22.866 8.71498 22.866 8.38352C22.866 8.05207 22.7344 7.73418 22.5 7.49977Z" fill="#ACB0B6"/>
</svg>
