<svg width="77" height="77" viewBox="0 0 77 77" fill="none" xmlns="http://www.w3.org/2000/svg">
<g clip-path="url(#clip0_959_15)">
<path d="M44.9168 41.7085C44.9309 42.793 45.084 43.8713 45.3724 44.9168H31.6279C31.9163 43.8713 32.0694 42.793 32.0835 41.7085H44.9168ZM33.6877 28.8752H43.3127C44.515 28.8795 45.7009 29.1556 46.7815 29.6828C47.8621 30.2101 48.8095 30.9748 49.5529 31.9199C50.3729 31.2242 51.2773 30.6346 52.2447 30.1649C51.2072 28.7733 49.8599 27.6423 48.3096 26.8616C46.7593 26.0809 45.0485 25.6718 43.3127 25.6668H33.6877C31.9519 25.6718 30.2411 26.0809 28.6907 26.8616C27.1404 27.6423 25.7932 28.7733 24.7557 30.1649C25.7242 30.6343 26.6296 31.224 27.4507 31.9199C28.1937 30.9753 29.1406 30.2108 30.2206 29.6835C31.3006 29.1563 32.4858 28.88 33.6877 28.8752ZM28.8752 12.8335C28.8752 10.9299 29.4397 9.06896 30.4973 7.48614C31.5549 5.90331 33.0581 4.66965 34.8168 3.94116C36.5756 3.21267 38.5108 3.02206 40.3779 3.39344C42.245 3.76482 43.96 4.68152 45.3061 6.0276C46.6521 7.37368 47.5688 9.08869 47.9402 10.9558C48.3116 12.8228 48.121 14.7581 47.3925 16.5168C46.664 18.2756 45.4304 19.7788 43.8475 20.8364C42.2647 21.894 40.4038 22.4585 38.5002 22.4585C35.9482 22.456 33.5016 21.4411 31.6971 19.6366C29.8926 17.8321 28.8777 15.3854 28.8752 12.8335ZM32.0835 12.8335C32.0835 14.1026 32.4598 15.3432 33.1649 16.3984C33.87 17.4536 34.8721 18.2761 36.0446 18.7617C37.2171 19.2474 38.5073 19.3745 39.752 19.1269C40.9967 18.8793 42.14 18.2682 43.0374 17.3708C43.9348 16.4734 44.5459 15.33 44.7935 14.0853C45.0411 12.8406 44.9141 11.5504 44.4284 10.3779C43.9427 9.20546 43.1203 8.20331 42.0651 7.49824C41.0099 6.79316 39.7693 6.41683 38.5002 6.41683C36.7989 6.41853 35.1678 7.09512 33.9648 8.29811C32.7618 9.5011 32.0852 11.1322 32.0835 12.8335ZM14.4377 54.5418H24.0627C27.0398 54.5452 29.894 55.7294 31.9991 57.8345C34.1043 59.9397 35.2884 62.7939 35.2918 65.771V73.7918H3.2085V65.771C3.21189 62.7939 4.39605 59.9397 6.50119 57.8345C8.60634 55.7294 11.4605 54.5452 14.4377 54.5418ZM14.4377 57.7502C12.3112 57.7527 10.2725 58.5986 8.76889 60.1022C7.26524 61.6059 6.41938 63.6445 6.41683 65.771V70.5835H32.0835V65.771C32.081 63.6445 31.2351 61.6059 29.7314 60.1022C28.2278 58.5986 26.1891 57.7527 24.0627 57.7502H14.4377ZM19.2502 51.3335C17.3465 51.3335 15.4856 50.769 13.9028 49.7114C12.32 48.6538 11.0863 47.1506 10.3578 45.3918C9.62933 43.6331 9.43872 41.6978 9.8101 39.8308C10.1815 37.9637 11.0982 36.2487 12.4443 34.9026C13.7903 33.5565 15.5054 32.6398 17.3724 32.2684C19.2395 31.8971 21.1748 32.0877 22.9335 32.8162C24.6922 33.5447 26.1954 34.7783 27.2531 36.3611C28.3107 37.944 28.8752 39.8049 28.8752 41.7085C28.8726 44.2604 27.8577 46.7071 26.0533 48.5116C24.2488 50.3161 21.8021 51.3309 19.2502 51.3335ZM19.2502 48.1252C20.5193 48.1252 21.7599 47.7488 22.8151 47.0438C23.8703 46.3387 24.6927 45.3365 25.1784 44.164C25.6641 42.9916 25.7911 41.7014 25.5435 40.4567C25.2959 39.212 24.6848 38.0686 23.7874 37.1712C22.89 36.2738 21.7467 35.6627 20.502 35.4151C19.2573 35.1675 17.9671 35.2946 16.7946 35.7803C15.6221 36.2659 14.62 37.0884 13.9149 38.1436C13.2098 39.1988 12.8335 40.4394 12.8335 41.7085C12.8352 43.4098 13.5118 45.0409 14.7148 46.2439C15.9178 47.4469 17.5489 48.1235 19.2502 48.1252ZM73.7918 65.771V73.7918H41.7085V65.771C41.7119 62.7939 42.8961 59.9397 45.0012 57.8345C47.1063 55.7294 49.9605 54.5452 52.9377 54.5418H62.5627C65.5398 54.5452 68.394 55.7294 70.4991 57.8345C72.6043 59.9397 73.7884 62.7939 73.7918 65.771ZM70.5835 65.771C70.581 63.6445 69.7351 61.6059 68.2314 60.1022C66.7278 58.5986 64.6891 57.7527 62.5627 57.7502H52.9377C50.8112 57.7527 48.7725 58.5986 47.2689 60.1022C45.7652 61.6059 44.9194 63.6445 44.9168 65.771V70.5835H70.5835V65.771ZM67.3752 41.7085C67.3752 43.6121 66.8107 45.473 65.7531 47.0559C64.6955 48.6387 63.1922 49.8723 61.4335 50.6008C59.6748 51.3293 57.7395 51.5199 55.8724 51.1486C54.0054 50.7772 52.2903 49.8605 50.9443 48.5144C49.5982 47.1683 48.6815 45.4533 48.3101 43.5862C47.9387 41.7192 48.1293 39.7839 48.8578 38.0252C49.5863 36.2664 50.82 34.7632 52.4028 33.7056C53.9856 32.648 55.8465 32.0835 57.7502 32.0835C60.3021 32.086 62.7488 33.1009 64.5533 34.9054C66.3577 36.7099 67.3726 39.1566 67.3752 41.7085ZM64.1668 41.7085C64.1668 40.4394 63.7905 39.1988 63.0854 38.1436C62.3804 37.0884 61.3782 36.2659 60.2057 35.7803C59.0332 35.2946 57.743 35.1675 56.4983 35.4151C55.2536 35.6627 54.1103 36.2738 53.2129 37.1712C52.3155 38.0686 51.7044 39.212 51.4568 40.4567C51.2092 41.7014 51.3363 42.9916 51.8219 44.164C52.3076 45.3365 53.13 46.3387 54.1853 47.0438C55.2405 47.7488 56.4811 48.1252 57.7502 48.1252C59.4514 48.1235 61.0826 47.4469 62.2856 46.2439C63.4886 45.0409 64.1651 43.4098 64.1668 41.7085Z" fill="#DDDDDD"/>
</g>
<defs>
<clipPath id="clip0_959_15">
<rect width="77" height="77" fill="white"/>
</clipPath>
</defs>
</svg>
