<svg width="209" height="22" viewBox="0 0 209 22" fill="none" xmlns="http://www.w3.org/2000/svg">
<path d="M10.6121 21.135C9.20805 21.135 7.91205 20.883 6.72405 20.379C5.55405 19.857 4.52805 19.128 3.64605 18.192C2.78205 17.256 2.10705 16.158 1.62105 14.898C1.13505 13.62 0.892051 12.234 0.892051 10.74C0.892051 9.246 1.13505 7.869 1.62105 6.609C2.10705 5.331 2.78205 4.224 3.64605 3.288C4.52805 2.352 5.55405 1.632 6.72405 1.128C7.91205 0.605999 9.20805 0.344999 10.6121 0.344999C12.0161 0.344999 13.3121 0.605999 14.5001 1.128C15.6881 1.632 16.7141 2.352 17.5781 3.288C18.4601 4.224 19.1351 5.331 19.6031 6.609C20.0891 7.869 20.3321 9.246 20.3321 10.74C20.3321 12.234 20.0891 13.62 19.6031 14.898C19.1351 16.158 18.4601 17.256 17.5781 18.192C16.7141 19.128 15.6881 19.857 14.5001 20.379C13.3121 20.883 12.0161 21.135 10.6121 21.135ZM11.1791 18.867C12.0611 18.867 12.8261 18.57 13.4741 17.976C14.1221 17.382 14.6261 16.545 14.9861 15.465C15.3461 14.385 15.5261 13.125 15.5261 11.685C15.5261 9.975 15.2831 8.436 14.7971 7.068C14.3111 5.7 13.6541 4.62 12.8261 3.828C11.9981 3.018 11.0711 2.613 10.0451 2.613C9.18105 2.613 8.41605 2.91 7.75005 3.504C7.10205 4.098 6.59805 4.935 6.23805 6.015C5.87805 7.095 5.69805 8.355 5.69805 9.795C5.69805 11.487 5.94105 13.026 6.42705 14.412C6.91305 15.78 7.57005 16.869 8.39805 17.679C9.22605 18.471 10.1531 18.867 11.1791 18.867ZM22.2157 20.919C22.2157 20.109 22.2247 19.128 22.2427 17.976C22.2607 16.806 22.2787 15.555 22.2967 14.223C22.3327 12.873 22.3687 11.514 22.4047 10.146C22.4407 8.76 22.4767 7.446 22.5127 6.204C22.5667 4.944 22.6117 3.837 22.6477 2.883C22.6837 1.911 22.7197 1.173 22.7557 0.668999C23.2237 0.632999 23.8807 0.605999 24.7267 0.587999C25.5907 0.569999 26.6617 0.560999 27.9397 0.560999C29.4157 2.739 30.9547 5.061 32.5567 7.527C34.1767 9.975 35.8237 12.594 37.4977 15.384L36.9037 0.534C37.3717 0.534 37.8757 0.551999 38.4157 0.587999C38.9737 0.605999 39.5137 0.632999 40.0357 0.668999C40.0357 2.181 40.0267 3.801 40.0087 5.529C39.9907 7.239 39.9727 8.94 39.9547 10.632C39.9367 12.324 39.9097 13.899 39.8737 15.357C39.8377 16.797 39.8017 18.012 39.7657 19.002C39.7477 19.992 39.7207 20.64 39.6847 20.946C39.3067 20.964 38.7937 20.982 38.1457 21C37.5157 21.018 36.8767 21.027 36.2287 21.027C35.5807 21.045 35.0497 21.054 34.6357 21.054C33.2137 18.732 31.6297 16.284 29.8837 13.71C28.1557 11.136 26.4097 8.58 24.6457 6.042L25.3477 21.081C24.3397 21.081 23.2957 21.027 22.2157 20.919ZM58.7817 21.135C58.3677 21.117 57.6837 21.099 56.7297 21.081C55.7757 21.063 54.6147 21.045 53.2467 21.027C51.8967 21.027 50.4027 21.018 48.7647 21C47.1447 21 45.4617 21 43.7157 21C43.5537 17.292 43.4367 13.764 43.3647 10.416C43.2927 7.068 43.2567 3.81 43.2567 0.642C43.6707 0.623999 44.3907 0.614999 45.4167 0.614999C46.4427 0.596999 47.5947 0.587999 48.8727 0.587999C48.8727 1.902 48.8637 3.351 48.8457 4.935C48.8457 6.519 48.8277 8.139 48.7917 9.795C48.7737 11.451 48.7467 13.071 48.7107 14.655C48.6927 16.221 48.6567 17.67 48.6027 19.002C50.4747 19.002 52.2927 18.984 54.0567 18.948C55.8207 18.894 57.3687 18.831 58.7007 18.759L58.7817 21.135ZM61.0672 21.027C61.2832 16.653 61.3912 12.207 61.3912 7.689C61.3912 6.933 61.3822 6.105 61.3642 5.205C61.3642 4.287 61.3552 3.423 61.3372 2.613C61.3372 1.803 61.3282 1.155 61.3102 0.668999C61.5262 0.632999 61.8862 0.605999 62.3902 0.587999C62.9122 0.569999 63.4792 0.560999 64.0912 0.560999C64.5772 0.560999 65.0542 0.569999 65.5222 0.587999C66.0082 0.605999 66.4222 0.632999 66.7642 0.668999C66.7282 1.785 66.7012 2.901 66.6832 4.017C66.6652 5.133 66.6472 6.195 66.6292 7.203C66.6292 8.193 66.6292 9.057 66.6292 9.795C66.6292 12.243 66.6562 14.367 66.7102 16.167C66.7822 17.967 66.8812 19.56 67.0072 20.946C66.0352 20.982 65.0452 21 64.0372 21C63.0472 21.018 62.0572 21.027 61.0672 21.027ZM70.2567 20.919C70.2567 20.109 70.2657 19.128 70.2837 17.976C70.3017 16.806 70.3197 15.555 70.3377 14.223C70.3737 12.873 70.4097 11.514 70.4457 10.146C70.4817 8.76 70.5177 7.446 70.5537 6.204C70.6077 4.944 70.6527 3.837 70.6887 2.883C70.7247 1.911 70.7607 1.173 70.7967 0.668999C71.2647 0.632999 71.9217 0.605999 72.7677 0.587999C73.6317 0.569999 74.7027 0.560999 75.9807 0.560999C77.4567 2.739 78.9957 5.061 80.5977 7.527C82.2177 9.975 83.8647 12.594 85.5387 15.384L84.9447 0.534C85.4127 0.534 85.9167 0.551999 86.4567 0.587999C87.0147 0.605999 87.5547 0.632999 88.0767 0.668999C88.0767 2.181 88.0677 3.801 88.0497 5.529C88.0317 7.239 88.0137 8.94 87.9957 10.632C87.9777 12.324 87.9507 13.899 87.9147 15.357C87.8787 16.797 87.8427 18.012 87.8067 19.002C87.7887 19.992 87.7617 20.64 87.7257 20.946C87.3477 20.964 86.8347 20.982 86.1867 21C85.5567 21.018 84.9177 21.027 84.2697 21.027C83.6217 21.045 83.0907 21.054 82.6767 21.054C81.2547 18.732 79.6707 16.284 77.9247 13.71C76.1967 11.136 74.4507 8.58 72.6867 6.042L73.3887 21.081C72.3807 21.081 71.3367 21.027 70.2567 20.919ZM106.202 21.135C105.572 21.081 104.564 21.036 103.178 21C101.81 20.946 100.163 20.91 98.2368 20.892C96.3288 20.874 94.2498 20.865 91.9998 20.865C91.9638 20.361 91.9188 19.596 91.8648 18.57C91.8288 17.526 91.7838 16.338 91.7298 15.006C91.6758 13.674 91.6218 12.288 91.5678 10.848C91.5138 9.408 91.4688 8.022 91.4328 6.69C91.3968 5.34 91.3608 4.143 91.3248 3.099C91.3068 2.055 91.2978 1.272 91.2978 0.749998C92.0898 0.749998 92.9988 0.749998 94.0248 0.749998C95.0688 0.731999 96.1578 0.713999 97.2918 0.695999C98.4258 0.677999 99.5508 0.66 100.667 0.642C101.783 0.605999 102.818 0.578999 103.772 0.560999C104.744 0.524999 105.563 0.497998 106.229 0.479999L106.337 3.369L96.6978 3.045C96.6978 4.107 96.6978 5.187 96.6978 6.285C96.6978 7.365 96.7068 8.427 96.7248 9.471L105.797 9.174L105.689 12.144L96.7518 11.766C96.7698 13.044 96.7878 14.259 96.8058 15.411C96.8238 16.563 96.8508 17.607 96.8868 18.543L106.31 18.219L106.202 21.135ZM128.156 21.135C126.248 21.135 124.565 20.721 123.107 19.893C121.667 19.065 120.533 17.913 119.705 16.437C118.895 14.961 118.49 13.251 118.49 11.307C118.49 9.759 118.751 8.319 119.273 6.987C119.795 5.655 120.515 4.494 121.433 3.504C122.369 2.514 123.467 1.74 124.727 1.182C125.987 0.623999 127.346 0.344999 128.804 0.344999C130.334 0.344999 131.765 0.650999 133.097 1.263C134.447 1.857 135.518 2.667 136.31 3.693C134.996 5.223 133.772 6.294 132.638 6.906C131.252 4.188 129.587 2.829 127.643 2.829C126.329 2.829 125.267 3.378 124.457 4.476C123.665 5.574 123.269 7.05 123.269 8.904C123.269 10.11 123.431 11.298 123.755 12.468C124.097 13.62 124.547 14.664 125.105 15.6C125.681 16.536 126.32 17.283 127.022 17.841C127.742 18.381 128.471 18.651 129.209 18.651C129.749 18.651 130.307 18.516 130.883 18.246C131.459 17.958 131.999 17.571 132.503 17.085C133.025 16.581 133.457 16.023 133.799 15.411L136.31 17.382C134.114 19.884 131.396 21.135 128.156 21.135ZM137.941 21.054C137.941 19.164 137.941 17.256 137.941 15.33C137.959 13.404 137.968 11.541 137.968 9.741C137.986 7.941 138.004 6.267 138.022 4.719C138.058 3.153 138.094 1.776 138.13 0.587999C139.174 0.587999 140.056 0.596999 140.776 0.614999C141.514 0.632999 142.171 0.66 142.747 0.695999C142.747 3.81 142.765 6.762 142.801 9.552C145.249 9.534 147.724 9.444 150.226 9.282C150.226 7.95 150.226 6.564 150.226 5.124C150.226 3.684 150.226 2.208 150.226 0.695999C151.792 0.587999 153.376 0.534 154.978 0.534C155.032 2.028 155.077 3.666 155.113 5.448C155.149 7.212 155.167 9.021 155.167 10.875C155.185 12.729 155.194 14.529 155.194 16.275C155.212 18.021 155.221 19.614 155.221 21.054C154.285 21.054 153.394 21.045 152.548 21.027C151.72 21.009 150.892 20.982 150.064 20.946C150.1 19.974 150.127 18.732 150.145 17.22C150.163 15.69 150.181 13.98 150.199 12.09C148.525 12.09 147.094 12.081 145.906 12.063C144.736 12.027 143.71 11.982 142.828 11.928C142.882 15.258 142.963 18.264 143.071 20.946C142.279 20.982 141.469 21.009 140.641 21.027C139.813 21.045 138.913 21.054 137.941 21.054ZM164.381 16.788C163.913 16.788 163.427 16.788 162.923 16.788C162.437 16.77 161.933 16.743 161.411 16.707C161.015 18.111 160.619 19.578 160.223 21.108L156.983 20.892C157.991 17.49 159.116 14.061 160.358 10.605C161.6 7.131 162.923 3.756 164.327 0.479999C164.993 0.407999 165.731 0.344999 166.541 0.290999C167.369 0.236999 168.215 0.209999 169.079 0.209999C170.177 2.874 171.347 5.952 172.589 9.444C173.831 12.936 175.109 16.698 176.423 20.73C175.379 20.91 174.389 21.045 173.453 21.135C172.535 21.225 171.599 21.27 170.645 21.27C170.267 19.758 169.844 18.165 169.376 16.491C167.774 16.689 166.109 16.788 164.381 16.788ZM165.434 3.369C165.056 4.395 164.579 5.817 164.003 7.635C163.445 9.453 162.824 11.586 162.14 14.034C162.86 14.124 163.598 14.187 164.354 14.223C165.128 14.259 165.956 14.277 166.838 14.277C167.162 14.277 167.486 14.277 167.81 14.277C168.152 14.259 168.467 14.25 168.755 14.25C168.359 12.81 167.954 11.415 167.54 10.065C167.144 8.697 166.766 7.446 166.406 6.312C166.046 5.16 165.722 4.179 165.434 3.369ZM185.889 21.054C185.439 21.054 184.881 21.045 184.215 21.027C183.567 21.027 182.901 21.018 182.217 21C181.551 20.982 180.966 20.964 180.462 20.946C180.462 20.136 180.462 19.146 180.462 17.976C180.48 16.788 180.489 15.519 180.489 14.169C180.507 12.801 180.516 11.442 180.516 10.092C180.534 8.724 180.552 7.446 180.57 6.258C180.588 5.052 180.606 4.026 180.624 3.18C179.274 3.198 177.96 3.216 176.682 3.234C175.404 3.234 174.234 3.234 173.172 3.234L173.28 0.534C174.432 0.534 175.674 0.542999 177.006 0.560999C178.338 0.560999 179.697 0.569999 181.083 0.587999C182.469 0.587999 183.81 0.596999 185.106 0.614999C186.42 0.614999 187.626 0.623999 188.724 0.642C189.822 0.642 190.749 0.651 191.505 0.668999C192.279 0.668999 192.801 0.677999 193.071 0.695999L193.152 2.964C192.162 3 191.028 3.036 189.75 3.072C188.472 3.09 187.131 3.108 185.727 3.126C185.745 3.936 185.763 4.908 185.781 6.042C185.799 7.176 185.808 8.409 185.808 9.741C185.826 11.055 185.835 12.387 185.835 13.737C185.853 15.087 185.862 16.392 185.862 17.652C185.88 18.912 185.889 20.046 185.889 21.054ZM190.394 20.325L190.043 15.951C190.583 15.897 191.258 15.852 192.068 15.816C192.878 15.78 193.688 15.762 194.498 15.762C194.498 16.374 194.489 16.995 194.471 17.625C194.471 18.255 194.462 18.804 194.444 19.272C194.444 19.722 194.435 20.019 194.417 20.163C193.805 20.163 193.13 20.181 192.392 20.217C191.654 20.235 190.988 20.271 190.394 20.325ZM197.539 20.325L197.188 15.951C197.728 15.897 198.403 15.852 199.213 15.816C200.023 15.78 200.833 15.762 201.643 15.762C201.643 16.374 201.634 16.995 201.616 17.625C201.616 18.255 201.607 18.804 201.589 19.272C201.589 19.722 201.58 20.019 201.562 20.163C200.95 20.163 200.275 20.181 199.537 20.217C198.799 20.235 198.133 20.271 197.539 20.325ZM204.685 20.325L204.334 15.951C204.874 15.897 205.549 15.852 206.359 15.816C207.169 15.78 207.979 15.762 208.789 15.762C208.789 16.374 208.78 16.995 208.762 17.625C208.762 18.255 208.753 18.804 208.735 19.272C208.735 19.722 208.726 20.019 208.708 20.163C208.096 20.163 207.421 20.181 206.683 20.217C205.945 20.235 205.279 20.271 204.685 20.325Z" fill="#DDDDDD"/>
</svg>
