<svg width="41" height="40" viewBox="0 0 41 40" fill="none" xmlns="http://www.w3.org/2000/svg">
<ellipse cx="20.5" cy="20" rx="20.5" ry="20" fill="#9DB2BF"/>
<g clip-path="url(#clip0_954_2)">
<path d="M14.8308 27.2416H19.4876L22.5667 30.4637C22.7322 30.638 22.9289 30.7763 23.1456 30.8707C23.3623 30.9651 23.5946 31.0137 23.8293 31.0137C23.9837 31.0134 24.1375 30.9928 24.2869 30.9522C24.589 30.8724 24.8657 30.7105 25.089 30.4829C25.3124 30.2554 25.4745 29.9702 25.5592 29.6561L30.9903 10.3062L14.8308 27.2416Z" fill="#27374D"/>
<path d="M13.5762 25.9586L29.7505 9.01123L11.2933 14.7138C10.9927 14.8033 10.7198 14.9736 10.5015 15.2078C10.2832 15.442 10.1271 15.7319 10.0487 16.0487C9.97037 16.3656 9.97245 16.6984 10.0548 17.0142C10.1371 17.3299 10.2968 17.6177 10.518 17.8488L13.5762 21.0498V25.9586Z" fill="#27374D"/>
</g>
<defs>
<clipPath id="clip0_954_2">
<rect width="21" height="22" fill="white" transform="translate(10 9)"/>
</clipPath>
</defs>
</svg>
