<svg width="144" height="22" viewBox="0 0 144 22" fill="none" xmlns="http://www.w3.org/2000/svg">
<path d="M8.856 21.135C7.866 21.135 6.84 21 5.778 20.73C4.734 20.46 3.735 20.091 2.781 19.623C1.845 19.137 1.053 18.588 0.405 17.976C0.819 17.382 1.278 16.788 1.782 16.194C2.286 15.582 2.844 14.979 3.456 14.385C4.158 15.141 4.932 15.843 5.778 16.491C6.624 17.121 7.47 17.634 8.316 18.03C9.18 18.426 9.972 18.624 10.692 18.624C11.34 18.624 11.916 18.453 12.42 18.111C12.942 17.751 13.203 17.238 13.203 16.572C13.203 15.942 12.96 15.384 12.474 14.898C11.988 14.394 11.349 13.935 10.557 13.521C9.783 13.089 8.955 12.666 8.073 12.252C7.299 11.892 6.534 11.514 5.778 11.118C5.022 10.722 4.329 10.29 3.699 9.822C3.087 9.354 2.592 8.832 2.214 8.256C1.854 7.662 1.674 6.996 1.674 6.258C1.674 5.52 1.863 4.8 2.241 4.098C2.637 3.396 3.186 2.766 3.888 2.208C4.59 1.632 5.418 1.182 6.372 0.857999C7.344 0.515999 8.406 0.344999 9.558 0.344999C10.872 0.344999 12.195 0.569999 13.527 1.02C14.877 1.47 16.047 2.118 17.037 2.964C16.713 3.576 16.272 4.179 15.714 4.773C15.174 5.367 14.643 5.871 14.121 6.285C13.023 5.241 11.934 4.368 10.854 3.666C9.774 2.946 8.757 2.586 7.803 2.586C7.101 2.586 6.57 2.766 6.21 3.126C5.868 3.468 5.697 3.837 5.697 4.233C5.697 4.665 5.895 5.061 6.291 5.421C6.687 5.781 7.209 6.132 7.857 6.474C8.505 6.816 9.216 7.167 9.99 7.527C10.8 7.905 11.619 8.31 12.447 8.742C13.293 9.174 14.067 9.669 14.769 10.227C15.489 10.767 16.065 11.388 16.497 12.09C16.929 12.792 17.145 13.593 17.145 14.493C17.145 15.393 16.92 16.248 16.47 17.058C16.038 17.85 15.435 18.552 14.661 19.164C13.905 19.776 13.023 20.262 12.015 20.622C11.025 20.964 9.972 21.135 8.856 21.135ZM34.3419 21.135C33.7119 21.081 32.7039 21.036 31.3179 21C29.9499 20.946 28.3029 20.91 26.3769 20.892C24.4689 20.874 22.3899 20.865 20.1399 20.865C20.1039 20.361 20.0589 19.596 20.0049 18.57C19.9689 17.526 19.9239 16.338 19.8699 15.006C19.8159 13.674 19.7619 12.288 19.7079 10.848C19.6539 9.408 19.6089 8.022 19.5729 6.69C19.5369 5.34 19.5009 4.143 19.4649 3.099C19.4469 2.055 19.4379 1.272 19.4379 0.749998C20.2299 0.749998 21.1389 0.749998 22.1649 0.749998C23.2089 0.731999 24.2979 0.713999 25.4319 0.695999C26.5659 0.677999 27.6909 0.66 28.8069 0.642C29.9229 0.605999 30.9579 0.578999 31.9119 0.560999C32.8839 0.524999 33.7029 0.497998 34.3689 0.479999L34.4769 3.369L24.8379 3.045C24.8379 4.107 24.8379 5.187 24.8379 6.285C24.8379 7.365 24.8469 8.427 24.8649 9.471L33.9369 9.174L33.8289 12.144L24.8919 11.766C24.9099 13.044 24.9279 14.259 24.9459 15.411C24.9639 16.563 24.9909 17.607 25.0269 18.543L34.4499 18.219L34.3419 21.135ZM48.4013 21.054C47.9513 21.054 47.3933 21.045 46.7273 21.027C46.0793 21.027 45.4133 21.018 44.7293 21C44.0633 20.982 43.4783 20.964 42.9743 20.946C42.9743 20.136 42.9743 19.146 42.9743 17.976C42.9923 16.788 43.0013 15.519 43.0013 14.169C43.0193 12.801 43.0283 11.442 43.0283 10.092C43.0463 8.724 43.0643 7.446 43.0823 6.258C43.1003 5.052 43.1183 4.026 43.1363 3.18C41.7863 3.198 40.4723 3.216 39.1943 3.234C37.9163 3.234 36.7463 3.234 35.6843 3.234L35.7923 0.534C36.9443 0.534 38.1863 0.542999 39.5183 0.560999C40.8503 0.560999 42.2093 0.569999 43.5953 0.587999C44.9813 0.587999 46.3223 0.596999 47.6183 0.614999C48.9323 0.614999 50.1383 0.623999 51.2363 0.642C52.3343 0.642 53.2613 0.651 54.0173 0.668999C54.7913 0.668999 55.3133 0.677999 55.5833 0.695999L55.6643 2.964C54.6743 3 53.5403 3.036 52.2623 3.072C50.9843 3.09 49.6433 3.108 48.2393 3.126C48.2573 3.936 48.2753 4.908 48.2933 6.042C48.3113 7.176 48.3203 8.409 48.3203 9.741C48.3383 11.055 48.3473 12.387 48.3473 13.737C48.3653 15.087 48.3743 16.392 48.3743 17.652C48.3923 18.912 48.4013 20.046 48.4013 21.054ZM69.1786 21.054C68.7286 21.054 68.1706 21.045 67.5046 21.027C66.8566 21.027 66.1906 21.018 65.5066 21C64.8406 20.982 64.2556 20.964 63.7516 20.946C63.7516 20.136 63.7516 19.146 63.7516 17.976C63.7696 16.788 63.7786 15.519 63.7786 14.169C63.7966 12.801 63.8056 11.442 63.8056 10.092C63.8236 8.724 63.8416 7.446 63.8596 6.258C63.8776 5.052 63.8956 4.026 63.9136 3.18C62.5636 3.198 61.2496 3.216 59.9716 3.234C58.6936 3.234 57.5236 3.234 56.4616 3.234L56.5696 0.534C57.7216 0.534 58.9636 0.542999 60.2956 0.560999C61.6276 0.560999 62.9866 0.569999 64.3726 0.587999C65.7586 0.587999 67.0996 0.596999 68.3956 0.614999C69.7096 0.614999 70.9156 0.623999 72.0136 0.642C73.1116 0.642 74.0386 0.651 74.7946 0.668999C75.5686 0.668999 76.0906 0.677999 76.3606 0.695999L76.4416 2.964C75.4516 3 74.3176 3.036 73.0396 3.072C71.7616 3.09 70.4206 3.108 69.0166 3.126C69.0346 3.936 69.0526 4.908 69.0706 6.042C69.0886 7.176 69.0976 8.409 69.0976 9.741C69.1156 11.055 69.1246 12.387 69.1246 13.737C69.1426 15.087 69.1516 16.392 69.1516 17.652C69.1696 18.912 69.1786 20.046 69.1786 21.054ZM78.724 21.027C78.94 16.653 79.048 12.207 79.048 7.689C79.048 6.933 79.039 6.105 79.021 5.205C79.021 4.287 79.012 3.423 78.994 2.613C78.994 1.803 78.985 1.155 78.967 0.668999C79.183 0.632999 79.543 0.605999 80.047 0.587999C80.569 0.569999 81.136 0.560999 81.748 0.560999C82.234 0.560999 82.711 0.569999 83.179 0.587999C83.665 0.605999 84.079 0.632999 84.421 0.668999C84.385 1.785 84.358 2.901 84.34 4.017C84.322 5.133 84.304 6.195 84.286 7.203C84.286 8.193 84.286 9.057 84.286 9.795C84.286 12.243 84.313 14.367 84.367 16.167C84.439 17.967 84.538 19.56 84.664 20.946C83.692 20.982 82.702 21 81.694 21C80.704 21.018 79.714 21.027 78.724 21.027ZM87.9135 20.919C87.9135 20.109 87.9225 19.128 87.9405 17.976C87.9585 16.806 87.9765 15.555 87.9945 14.223C88.0305 12.873 88.0665 11.514 88.1025 10.146C88.1385 8.76 88.1745 7.446 88.2105 6.204C88.2645 4.944 88.3095 3.837 88.3455 2.883C88.3815 1.911 88.4175 1.173 88.4535 0.668999C88.9215 0.632999 89.5785 0.605999 90.4245 0.587999C91.2885 0.569999 92.3595 0.560999 93.6375 0.560999C95.1135 2.739 96.6525 5.061 98.2545 7.527C99.8745 9.975 101.521 12.594 103.195 15.384L102.601 0.534C103.069 0.534 103.573 0.551999 104.113 0.587999C104.671 0.605999 105.211 0.632999 105.733 0.668999C105.733 2.181 105.724 3.801 105.706 5.529C105.688 7.239 105.67 8.94 105.652 10.632C105.634 12.324 105.607 13.899 105.571 15.357C105.535 16.797 105.499 18.012 105.463 19.002C105.445 19.992 105.418 20.64 105.382 20.946C105.004 20.964 104.491 20.982 103.843 21C103.213 21.018 102.574 21.027 101.926 21.027C101.278 21.045 100.747 21.054 100.333 21.054C98.9115 18.732 97.3275 16.284 95.5815 13.71C93.8535 11.136 92.1075 8.58 90.3435 6.042L91.0455 21.081C90.0375 21.081 88.9935 21.027 87.9135 20.919ZM116.878 21.135C115.078 21.135 113.476 20.712 112.072 19.866C110.686 19.02 109.597 17.85 108.805 16.356C108.013 14.862 107.617 13.143 107.617 11.199C107.617 9.615 107.878 8.166 108.4 6.852C108.94 5.52 109.696 4.368 110.668 3.396C111.64 2.424 112.783 1.677 114.097 1.155C115.429 0.614999 116.887 0.344999 118.471 0.344999C120.073 0.344999 121.54 0.614999 122.872 1.155C124.222 1.695 125.257 2.424 125.977 3.342C124.789 4.692 123.592 5.772 122.386 6.582C121.126 3.99 119.38 2.694 117.148 2.694C115.654 2.694 114.484 3.279 113.638 4.449C112.792 5.601 112.369 7.221 112.369 9.309C112.369 10.605 112.522 11.82 112.828 12.954C113.152 14.088 113.584 15.096 114.124 15.978C114.664 16.842 115.285 17.526 115.987 18.03C116.707 18.516 117.472 18.759 118.282 18.759C118.894 18.759 119.425 18.633 119.875 18.381C120.343 18.111 120.613 17.778 120.685 17.382C120.667 16.986 120.631 16.5 120.577 15.924C120.541 15.33 120.487 14.709 120.415 14.061C120.361 13.413 120.307 12.783 120.253 12.171C118.723 12.135 117.598 12.09 116.878 12.036L116.797 9.984C118.687 9.984 120.487 9.966 122.197 9.93C123.925 9.894 125.437 9.84 126.733 9.768L126.652 12.252C126.04 12.252 125.446 12.252 124.87 12.252C124.924 13.026 124.96 13.935 124.978 14.979C125.014 16.005 125.032 17.022 125.032 18.03C124.366 18.66 123.583 19.209 122.683 19.677C121.783 20.145 120.838 20.505 119.848 20.757C118.858 21.009 117.868 21.135 116.878 21.135ZM135.313 21.135C134.323 21.135 133.297 21 132.235 20.73C131.191 20.46 130.192 20.091 129.238 19.623C128.302 19.137 127.51 18.588 126.862 17.976C127.276 17.382 127.735 16.788 128.239 16.194C128.743 15.582 129.301 14.979 129.913 14.385C130.615 15.141 131.389 15.843 132.235 16.491C133.081 17.121 133.927 17.634 134.773 18.03C135.637 18.426 136.429 18.624 137.149 18.624C137.797 18.624 138.373 18.453 138.877 18.111C139.399 17.751 139.66 17.238 139.66 16.572C139.66 15.942 139.417 15.384 138.931 14.898C138.445 14.394 137.806 13.935 137.014 13.521C136.24 13.089 135.412 12.666 134.53 12.252C133.756 11.892 132.991 11.514 132.235 11.118C131.479 10.722 130.786 10.29 130.156 9.822C129.544 9.354 129.049 8.832 128.671 8.256C128.311 7.662 128.131 6.996 128.131 6.258C128.131 5.52 128.32 4.8 128.698 4.098C129.094 3.396 129.643 2.766 130.345 2.208C131.047 1.632 131.875 1.182 132.829 0.857999C133.801 0.515999 134.863 0.344999 136.015 0.344999C137.329 0.344999 138.652 0.569999 139.984 1.02C141.334 1.47 142.504 2.118 143.494 2.964C143.17 3.576 142.729 4.179 142.171 4.773C141.631 5.367 141.1 5.871 140.578 6.285C139.48 5.241 138.391 4.368 137.311 3.666C136.231 2.946 135.214 2.586 134.26 2.586C133.558 2.586 133.027 2.766 132.667 3.126C132.325 3.468 132.154 3.837 132.154 4.233C132.154 4.665 132.352 5.061 132.748 5.421C133.144 5.781 133.666 6.132 134.314 6.474C134.962 6.816 135.673 7.167 136.447 7.527C137.257 7.905 138.076 8.31 138.904 8.742C139.75 9.174 140.524 9.669 141.226 10.227C141.946 10.767 142.522 11.388 142.954 12.09C143.386 12.792 143.602 13.593 143.602 14.493C143.602 15.393 143.377 16.248 142.927 17.058C142.495 17.85 141.892 18.552 141.118 19.164C140.362 19.776 139.48 20.262 138.472 20.622C137.482 20.964 136.429 21.135 135.313 21.135Z" fill="#DDDDDD"/>
</svg>
