<svg width="64" height="62" viewBox="0 0 64 62" fill="none" xmlns="http://www.w3.org/2000/svg">
<path d="M61.7605 28.2148C61.7605 39.0951 55.1795 48.4654 45.7125 52.6964C49.6889 48.5275 52.0307 43.1415 52.4833 38.2511C54.3914 21.8773 39.5638 7.75121 22.7594 10.6357C18.1697 11.3401 13.3309 13.539 9.4668 17.0948C13.7744 7.79602 23.3141 1.33203 34.3913 1.33203C49.5072 1.33203 61.7605 13.3675 61.7605 28.2148Z" fill="#9DB2BF"/>
<path d="M26.9944 10.293C45.3333 10.293 58.3624 28.9967 50.1855 46.2409C49.0377 48.6216 47.5213 50.7988 45.7078 52.6988C45.709 52.6976 45.7115 52.6976 45.7127 52.6964C41.011 57.6273 34.4321 60.6655 26.7602 60.6655L26.7639 60.668H3.66155L9.38936 53.7923C-1.3803 43.799 -1.30201 27.0016 9.46703 17.0948C9.4658 17.096 9.4658 17.0984 9.46456 17.0996C14.1608 12.7749 20.3719 10.293 26.9944 10.293Z" fill="white"/>
<path d="M44.8091 51.8699C46.7281 49.8591 48.3019 47.4809 49.2995 45.2349C49.5717 44.6218 50.2983 44.3419 50.9223 44.6089C51.5465 44.8763 51.8318 45.59 51.5597 46.203C51.2814 46.828 50.8366 47.7103 50.3537 48.5421C56.6704 43.7417 60.5278 36.2553 60.5278 28.2148C60.5278 14.0593 48.803 2.54297 34.3914 2.54297C26.2054 2.54297 18.5841 6.33114 13.6968 12.5357C14.5431 12.0617 15.4298 11.6295 16.0772 11.3521C16.7013 11.0844 17.4279 11.3643 17.7005 11.9771C17.973 12.5901 17.6881 13.3038 17.0641 13.5716C14.8041 14.5407 12.397 16.0592 10.3077 17.9831C9.30815 18.9041 7.75784 17.7659 8.35762 16.5659C12.9374 6.70738 22.9926 0.121094 34.3914 0.121094C42.0315 0.121094 49.2142 3.04333 54.6163 8.34941C60.0184 13.6556 62.9935 20.7105 62.9935 28.2148C62.9935 39.4021 56.2965 49.283 46.2531 53.7852C45.0208 54.3811 43.8742 52.8363 44.8091 51.8699Z" fill="#27374D"/>
<path d="M26.9942 61.8791C26.9492 61.8791 26.9042 61.8785 26.859 61.8777C26.8494 61.8776 26.8398 61.8774 26.8301 61.8773C26.8081 61.8785 26.786 61.8791 26.7637 61.8791H3.66137C3.18499 61.8791 2.75128 61.6094 2.54724 61.1867C2.34321 60.7638 2.40559 60.2634 2.70714 59.9012L7.72323 53.88C5.47772 51.6144 3.68479 49.0046 2.38599 46.1081C0.881173 42.7521 0.118164 39.1764 0.118164 35.4806C0.118164 31.7648 0.888694 28.1714 2.40842 24.8008C10.0243 7.90819 32.6227 3.6756 45.9988 16.8139C59.4253 30.002 55.006 52.1747 37.8675 59.6296C34.4357 61.1222 30.7775 61.8791 26.9942 61.8791ZM26.76 59.4548C26.806 59.4548 26.8516 59.4554 26.8971 59.4561C26.9296 59.4566 26.9619 59.4572 26.9942 59.4572C40.6483 59.4572 51.4046 48.5772 51.4046 35.4806C51.4046 18.9763 34.7304 7.31617 18.6599 12.9382C9.68641 16.0693 2.58386 24.7377 2.58386 35.4806C2.58386 42.1428 5.3013 48.3335 10.2358 52.9121C10.706 53.3485 10.753 54.0674 10.3433 54.5593L6.26317 59.4572H26.6828C26.7085 59.4556 26.7341 59.4548 26.76 59.4548Z" fill="#27374D"/>
<path d="M40.5555 39.1133C42.5981 39.1133 44.254 37.4868 44.254 35.4805C44.254 33.4741 42.5981 31.8477 40.5555 31.8477C38.5128 31.8477 36.8569 33.4741 36.8569 35.4805C36.8569 37.4868 38.5128 39.1133 40.5555 39.1133Z" fill="#9DB2BF"/>
<path d="M26.9944 39.1133C29.0371 39.1133 30.693 37.4868 30.693 35.4805C30.693 33.4741 29.0371 31.8477 26.9944 31.8477C24.9518 31.8477 23.2959 33.4741 23.2959 35.4805C23.2959 37.4868 24.9518 39.1133 26.9944 39.1133Z" fill="#9DB2BF"/>
<path d="M13.4329 39.1133C15.4756 39.1133 17.1315 37.4868 17.1315 35.4805C17.1315 33.4741 15.4756 31.8477 13.4329 31.8477C11.3903 31.8477 9.73438 33.4741 9.73438 35.4805C9.73438 37.4868 11.3903 39.1133 13.4329 39.1133Z" fill="#9DB2BF"/>
<path d="M60.5278 50.9805C61.2087 50.9805 61.7606 50.4383 61.7606 49.7695C61.7606 49.1007 61.2087 48.5586 60.5278 48.5586C59.8469 48.5586 59.2949 49.1007 59.2949 49.7695C59.2949 50.4383 59.8469 50.9805 60.5278 50.9805Z" fill="#27374D"/>
<path d="M59.2949 7.38672C59.9757 7.38672 60.5277 6.84456 60.5277 6.17578C60.5277 5.507 59.9757 4.96484 59.2949 4.96484C58.614 4.96484 58.062 5.507 58.062 6.17578C58.062 6.84456 58.614 7.38672 59.2949 7.38672Z" fill="#27374D"/>
<path d="M50.0485 60.668C51.0698 60.668 51.8978 59.8547 51.8978 58.8516C51.8978 57.8484 51.0698 57.0352 50.0485 57.0352C49.0272 57.0352 48.1992 57.8484 48.1992 58.8516C48.1992 59.8547 49.0272 60.668 50.0485 60.668Z" fill="#27374D"/>
<path d="M9.36441 6.17578C10.3857 6.17578 11.2137 5.36255 11.2137 4.35938C11.2137 3.3562 10.3857 2.54297 9.36441 2.54297C8.34308 2.54297 7.51514 3.3562 7.51514 4.35938C7.51514 5.36255 8.34308 6.17578 9.36441 6.17578Z" fill="#27374D"/>
<path d="M1.35101 17.0742C2.03189 17.0742 2.58386 16.5321 2.58386 15.8633C2.58386 15.1945 2.03189 14.6523 1.35101 14.6523C0.670129 14.6523 0.118164 15.1945 0.118164 15.8633C0.118164 16.5321 0.670129 17.0742 1.35101 17.0742Z" fill="#27374D"/>
<path d="M1.35101 55.8242C2.03189 55.8242 2.58386 55.2821 2.58386 54.6133C2.58386 53.9445 2.03189 53.4023 1.35101 53.4023C0.670129 53.4023 0.118164 53.9445 0.118164 54.6133C0.118164 55.2821 0.670129 55.8242 1.35101 55.8242Z" fill="#27374D"/>
<path d="M40.5554 40.3242C37.8362 40.3242 35.624 38.1513 35.624 35.4805C35.624 32.8096 37.8362 30.6367 40.5554 30.6367C43.2746 30.6367 45.4868 32.8096 45.4868 35.4805C45.4868 38.1513 43.2746 40.3242 40.5554 40.3242ZM40.5554 33.0586C39.1958 33.0586 38.0897 34.145 38.0897 35.4805C38.0897 36.8159 39.1958 37.9023 40.5554 37.9023C41.915 37.9023 43.0211 36.8159 43.0211 35.4805C43.0211 34.145 41.915 33.0586 40.5554 33.0586Z" fill="#27374D"/>
<path d="M26.9944 40.3242C24.2752 40.3242 22.063 38.1513 22.063 35.4805C22.063 32.8096 24.2752 30.6367 26.9944 30.6367C29.7135 30.6367 31.9258 32.8096 31.9258 35.4805C31.9258 38.1513 29.7135 40.3242 26.9944 40.3242ZM26.9944 33.0586C25.6348 33.0586 24.5287 34.145 24.5287 35.4805C24.5287 36.8159 25.6348 37.9023 26.9944 37.9023C28.354 37.9023 29.4601 36.8159 29.4601 35.4805C29.4601 34.145 28.354 33.0586 26.9944 33.0586Z" fill="#27374D"/>
<path d="M13.4329 40.3242C10.7137 40.3242 8.50146 38.1513 8.50146 35.4805C8.50146 32.8096 10.7137 30.6367 13.4329 30.6367C16.152 30.6367 18.3642 32.8096 18.3642 35.4805C18.3642 38.1513 16.152 40.3242 13.4329 40.3242ZM13.4329 33.0586C12.0733 33.0586 10.9672 34.145 10.9672 35.4805C10.9672 36.8159 12.0733 37.9023 13.4329 37.9023C14.7924 37.9023 15.8985 36.8159 15.8985 35.4805C15.8985 34.145 14.7924 33.0586 13.4329 33.0586Z" fill="#27374D"/>
</svg>
