<svg width="205" height="18" viewBox="0 0 205 18" fill="none" xmlns="http://www.w3.org/2000/svg">
<path d="M7.986 17.11C6.51933 17.11 5.214 16.7653 4.07 16.076C2.94067 15.3867 2.05333 14.4333 1.408 13.216C0.762667 11.9987 0.44 10.598 0.44 9.014C0.44 7.72333 0.652667 6.54267 1.078 5.472C1.518 4.38667 2.134 3.448 2.926 2.656C3.718 1.864 4.64933 1.25533 5.72 0.83C6.80533 0.389999 7.99333 0.169999 9.284 0.169999C10.5893 0.169999 11.7847 0.389999 12.87 0.83C13.97 1.27 14.8133 1.864 15.4 2.612C14.432 3.712 13.4567 4.592 12.474 5.252C11.4473 3.14 10.0247 2.084 8.206 2.084C6.98867 2.084 6.03533 2.56067 5.346 3.514C4.65667 4.45267 4.312 5.77267 4.312 7.474C4.312 8.53 4.43667 9.52 4.686 10.444C4.95 11.368 5.302 12.1893 5.742 12.908C6.182 13.612 6.688 14.1693 7.26 14.58C7.84667 14.976 8.47 15.174 9.13 15.174C9.62867 15.174 10.0613 15.0713 10.428 14.866C10.8093 14.646 11.0293 14.3747 11.088 14.052C11.0733 13.7293 11.044 13.3333 11 12.864C10.9707 12.38 10.9267 11.874 10.868 11.346C10.824 10.818 10.78 10.3047 10.736 9.806C9.48933 9.77667 8.57267 9.74 7.986 9.696L7.92 8.024C9.46 8.024 10.9267 8.00933 12.32 7.98C13.728 7.95067 14.96 7.90667 16.016 7.848L15.95 9.872C15.4513 9.872 14.9673 9.872 14.498 9.872C14.542 10.5027 14.5713 11.2433 14.586 12.094C14.6153 12.93 14.63 13.7587 14.63 14.58C14.0873 15.0933 13.4493 15.5407 12.716 15.922C11.9827 16.3033 11.2127 16.5967 10.406 16.802C9.59933 17.0073 8.79267 17.11 7.986 17.11ZM26.291 17.242C25.499 15.2473 24.6924 13.5753 23.871 12.226C23.0497 10.862 22.2724 9.894 21.539 9.322C21.5684 10.554 21.5904 11.83 21.605 13.15C21.6197 14.47 21.627 15.768 21.627 17.044C20.967 17.044 20.2704 17.0293 19.537 17C18.8184 16.9853 18.195 16.9707 17.667 16.956C17.667 15.7093 17.667 14.4113 17.667 13.062C17.667 11.7127 17.6597 10.3853 17.645 9.08C17.645 7.76 17.6377 6.528 17.623 5.384C17.6084 4.24 17.5937 3.24267 17.579 2.392C17.579 1.54133 17.5717 0.910665 17.557 0.499999C18.305 0.382666 19.0457 0.301999 19.779 0.257999C20.527 0.199332 21.2237 0.169999 21.869 0.169999C23.5117 0.169999 24.949 0.345999 26.181 0.697999C27.413 1.03533 28.3737 1.52667 29.063 2.172C29.7524 2.80267 30.097 3.57267 30.097 4.482C30.097 5.142 29.9137 5.77267 29.547 6.374C29.195 6.97533 28.711 7.496 28.095 7.936C27.479 8.376 26.7824 8.684 26.005 8.86C26.2397 9.13867 26.533 9.53467 26.885 10.048C27.237 10.5467 27.6037 11.1113 27.985 11.742C28.381 12.358 28.7624 12.9813 29.129 13.612C29.4957 14.2427 29.8257 14.8367 30.119 15.394C30.4124 15.9367 30.625 16.3767 30.757 16.714C30.5224 16.758 30.1997 16.8093 29.789 16.868C29.393 16.9267 28.9677 16.978 28.513 17.022C28.073 17.0807 27.6477 17.1247 27.237 17.154C26.841 17.198 26.5257 17.2273 26.291 17.242ZM21.275 1.886C21.319 2.546 21.363 3.448 21.407 4.592C21.451 5.736 21.495 7.012 21.539 8.42C22.991 8.36133 24.135 8.06067 24.971 7.518C25.8217 6.96067 26.247 6.22733 26.247 5.318C26.247 4.658 26.027 4.07133 25.587 3.558C25.1617 3.03 24.575 2.61933 23.827 2.326C23.079 2.03267 22.2284 1.886 21.275 1.886ZM39.0182 17.11C37.8742 17.11 36.8182 16.9047 35.8502 16.494C34.8969 16.0687 34.0609 15.4747 33.3422 14.712C32.6382 13.9493 32.0882 13.0547 31.6922 12.028C31.2962 10.9867 31.0982 9.85733 31.0982 8.64C31.0982 7.42267 31.2962 6.30067 31.6922 5.274C32.0882 4.23267 32.6382 3.33067 33.3422 2.568C34.0609 1.80533 34.8969 1.21867 35.8502 0.807999C36.8182 0.382666 37.8742 0.169999 39.0182 0.169999C40.1622 0.169999 41.2182 0.382666 42.1862 0.807999C43.1542 1.21867 43.9902 1.80533 44.6942 2.568C45.4129 3.33067 45.9629 4.23267 46.3442 5.274C46.7402 6.30067 46.9382 7.42267 46.9382 8.64C46.9382 9.85733 46.7402 10.9867 46.3442 12.028C45.9629 13.0547 45.4129 13.9493 44.6942 14.712C43.9902 15.4747 43.1542 16.0687 42.1862 16.494C41.2182 16.9047 40.1622 17.11 39.0182 17.11ZM39.4802 15.262C40.1989 15.262 40.8222 15.02 41.3502 14.536C41.8782 14.052 42.2889 13.37 42.5822 12.49C42.8755 11.61 43.0222 10.5833 43.0222 9.41C43.0222 8.01667 42.8242 6.76267 42.4282 5.648C42.0322 4.53333 41.4969 3.65333 40.8222 3.008C40.1475 2.348 39.3922 2.018 38.5562 2.018C37.8522 2.018 37.2289 2.26 36.6862 2.744C36.1582 3.228 35.7475 3.91 35.4542 4.79C35.1609 5.67 35.0142 6.69667 35.0142 7.87C35.0142 9.24867 35.2122 10.5027 35.6082 11.632C36.0042 12.7467 36.5395 13.634 37.2142 14.294C37.8889 14.9393 38.6442 15.262 39.4802 15.262ZM55.9867 17.11C54.5934 17.11 53.4127 16.868 52.4447 16.384C51.4914 15.8853 50.7214 15.0933 50.1347 14.008C49.5481 12.9227 49.1227 11.4927 48.8587 9.718C48.5947 7.92867 48.4627 5.74333 48.4627 3.162C48.4627 2.57533 48.4701 2.04 48.4847 1.556C48.4994 1.072 48.5141 0.668666 48.5287 0.345999C49.4821 0.345999 50.3181 0.353333 51.0367 0.367999C51.7701 0.382666 52.3934 0.404666 52.9067 0.434C52.8627 1.76867 52.8407 3.008 52.8407 4.152C52.8407 6.792 52.9727 8.89667 53.2367 10.466C53.5007 12.0207 53.9334 13.1353 54.5347 13.81C55.1361 14.4847 55.9427 14.822 56.9547 14.822C57.8934 14.822 58.6341 14.5433 59.1767 13.986C59.7341 13.414 60.1301 12.4827 60.3647 11.192C60.6141 9.88667 60.7387 8.14133 60.7387 5.956C60.7387 5.26667 60.7241 4.49667 60.6947 3.646C60.6801 2.78067 60.6434 1.70267 60.5847 0.412L63.2027 0.324C63.2321 0.749333 63.2467 1.24067 63.2467 1.798C63.2614 2.34067 63.2687 2.90533 63.2687 3.492C63.2687 6.044 63.1441 8.19267 62.8947 9.938C62.6454 11.6687 62.2347 13.062 61.6627 14.118C61.1054 15.174 60.3574 15.9367 59.4187 16.406C58.4947 16.8753 57.3507 17.11 55.9867 17.11ZM65.5772 17.044C65.5772 15.02 65.5699 13.1207 65.5552 11.346C65.5552 9.55667 65.5479 7.936 65.5332 6.484C65.5332 5.032 65.5259 3.79267 65.5112 2.766C65.4965 1.73933 65.4819 0.983999 65.4672 0.499999C66.3325 0.382666 67.1172 0.294666 67.8212 0.235999C68.5399 0.177333 69.2145 0.147999 69.8452 0.147999C71.5759 0.147999 73.0645 0.360666 74.3112 0.785999C75.5725 1.19667 76.5405 1.798 77.2152 2.59C77.8899 3.36733 78.2272 4.29867 78.2272 5.384C78.2272 6.528 77.8532 7.55467 77.1052 8.464C76.3719 9.37333 75.3452 10.0993 74.0252 10.642C72.7199 11.1847 71.2092 11.4853 69.4932 11.544C69.5079 12.4533 69.5152 13.3627 69.5152 14.272C69.5299 15.1813 69.5372 16.076 69.5372 16.956C69.0385 16.9853 68.4665 17.0073 67.8212 17.022C67.1905 17.0367 66.4425 17.044 65.5772 17.044ZM69.1852 1.886C69.2439 2.69267 69.2952 3.79267 69.3392 5.186C69.3979 6.57933 69.4419 8.10467 69.4712 9.762C72.5952 9.33667 74.1572 8.03133 74.1572 5.846C74.1572 4.62867 73.7099 3.668 72.8152 2.964C71.9205 2.24533 70.7105 1.886 69.1852 1.886ZM94.7004 17.11C93.8937 17.11 93.0577 17 92.1924 16.78C91.3417 16.56 90.5277 16.2593 89.7504 15.878C88.9877 15.482 88.3424 15.0347 87.8144 14.536C88.1517 14.052 88.5257 13.568 88.9364 13.084C89.347 12.5853 89.8017 12.094 90.3004 11.61C90.8724 12.226 91.503 12.798 92.1924 13.326C92.8817 13.8393 93.571 14.2573 94.2604 14.58C94.9644 14.9027 95.6097 15.064 96.1964 15.064C96.7244 15.064 97.1937 14.9247 97.6044 14.646C98.0297 14.3527 98.2424 13.9347 98.2424 13.392C98.2424 12.8787 98.0444 12.424 97.6484 12.028C97.2524 11.6173 96.7317 11.2433 96.0864 10.906C95.4557 10.554 94.781 10.2093 94.0624 9.872C93.4317 9.57867 92.8084 9.27067 92.1924 8.948C91.5764 8.62533 91.0117 8.27333 90.4984 7.892C89.9997 7.51067 89.5964 7.08533 89.2884 6.616C88.995 6.132 88.8484 5.58933 88.8484 4.988C88.8484 4.38667 89.0024 3.8 89.3104 3.228C89.633 2.656 90.0804 2.14267 90.6524 1.688C91.2244 1.21867 91.899 0.851999 92.6764 0.587999C93.4684 0.309332 94.3337 0.169999 95.2724 0.169999C96.343 0.169999 97.421 0.353333 98.5064 0.72C99.6064 1.08667 100.56 1.61467 101.366 2.304C101.102 2.80267 100.743 3.294 100.288 3.778C99.8484 4.262 99.4157 4.67267 98.9904 5.01C98.0957 4.15933 97.2084 3.448 96.3284 2.876C95.4484 2.28933 94.6197 1.996 93.8424 1.996C93.2704 1.996 92.8377 2.14267 92.5444 2.436C92.2657 2.71467 92.1264 3.01533 92.1264 3.338C92.1264 3.69 92.2877 4.01267 92.6104 4.306C92.933 4.59933 93.3584 4.88533 93.8864 5.164C94.4144 5.44267 94.9937 5.72867 95.6244 6.022C96.2844 6.33 96.9517 6.66 97.6264 7.012C98.3157 7.364 98.9464 7.76733 99.5184 8.222C100.105 8.662 100.574 9.168 100.926 9.74C101.278 10.312 101.454 10.9647 101.454 11.698C101.454 12.4313 101.271 13.128 100.904 13.788C100.552 14.4333 100.061 15.0053 99.4304 15.504C98.8144 16.0027 98.0957 16.3987 97.2744 16.692C96.4677 16.9707 95.6097 17.11 94.7004 17.11ZM115.467 17.11C114.953 17.066 114.132 17.0293 113.003 17C111.888 16.956 110.546 16.9267 108.977 16.912C107.422 16.8973 105.728 16.89 103.895 16.89C103.865 16.4793 103.829 15.856 103.785 15.02C103.755 14.1693 103.719 13.2013 103.675 12.116C103.631 11.0307 103.587 9.90133 103.543 8.728C103.499 7.55467 103.462 6.42533 103.433 5.34C103.403 4.24 103.374 3.26467 103.345 2.414C103.33 1.56333 103.323 0.925333 103.323 0.499999C103.968 0.499999 104.709 0.499999 105.545 0.499999C106.395 0.485332 107.283 0.470666 108.207 0.455999C109.131 0.441333 110.047 0.426666 110.957 0.412C111.866 0.382666 112.709 0.360666 113.487 0.345999C114.279 0.316666 114.946 0.294665 115.489 0.279999L115.577 2.634L107.723 2.37C107.723 3.23533 107.723 4.11533 107.723 5.01C107.723 5.89 107.73 6.75533 107.745 7.606L115.137 7.364L115.049 9.784L107.767 9.476C107.781 10.5173 107.796 11.5073 107.811 12.446C107.825 13.3847 107.847 14.2353 107.877 14.998L115.555 14.734L115.467 17.11ZM126.922 17.044C126.556 17.044 126.101 17.0367 125.558 17.022C125.03 17.022 124.488 17.0147 123.93 17C123.388 16.9853 122.911 16.9707 122.5 16.956C122.5 16.296 122.5 15.4893 122.5 14.536C122.515 13.568 122.522 12.534 122.522 11.434C122.537 10.3193 122.544 9.212 122.544 8.112C122.559 6.99733 122.574 5.956 122.588 4.988C122.603 4.00533 122.618 3.16933 122.632 2.48C121.532 2.49467 120.462 2.50933 119.42 2.524C118.379 2.524 117.426 2.524 116.56 2.524L116.648 0.324C117.587 0.324 118.599 0.331333 119.684 0.345999C120.77 0.345999 121.877 0.353333 123.006 0.367999C124.136 0.367999 125.228 0.375332 126.284 0.389999C127.355 0.389999 128.338 0.397332 129.232 0.412C130.127 0.412 130.882 0.419333 131.498 0.434C132.129 0.434 132.554 0.441333 132.774 0.455999L132.84 2.304C132.034 2.33333 131.11 2.36267 130.068 2.392C129.027 2.40667 127.934 2.42133 126.79 2.436C126.805 3.096 126.82 3.888 126.834 4.812C126.849 5.736 126.856 6.74067 126.856 7.826C126.871 8.89667 126.878 9.982 126.878 11.082C126.893 12.182 126.9 13.2453 126.9 14.272C126.915 15.2987 126.922 16.2227 126.922 17.044ZM143.852 17.044C143.485 17.044 143.031 17.0367 142.488 17.022C141.96 17.022 141.417 17.0147 140.86 17C140.317 16.9853 139.841 16.9707 139.43 16.956C139.43 16.296 139.43 15.4893 139.43 14.536C139.445 13.568 139.452 12.534 139.452 11.434C139.467 10.3193 139.474 9.212 139.474 8.112C139.489 6.99733 139.503 5.956 139.518 4.988C139.533 4.00533 139.547 3.16933 139.562 2.48C138.462 2.49467 137.391 2.50933 136.35 2.524C135.309 2.524 134.355 2.524 133.49 2.524L133.578 0.324C134.517 0.324 135.529 0.331333 136.614 0.345999C137.699 0.345999 138.807 0.353333 139.936 0.367999C141.065 0.367999 142.158 0.375332 143.214 0.389999C144.285 0.389999 145.267 0.397332 146.162 0.412C147.057 0.412 147.812 0.419333 148.428 0.434C149.059 0.434 149.484 0.441333 149.704 0.455999L149.77 2.304C148.963 2.33333 148.039 2.36267 146.998 2.392C145.957 2.40667 144.864 2.42133 143.72 2.436C143.735 3.096 143.749 3.888 143.764 4.812C143.779 5.736 143.786 6.74067 143.786 7.826C143.801 8.89667 143.808 9.982 143.808 11.082C143.823 12.182 143.83 13.2453 143.83 14.272C143.845 15.2987 143.852 16.2227 143.852 17.044ZM151.63 17.022C151.806 13.458 151.894 9.83533 151.894 6.154C151.894 5.538 151.887 4.86333 151.872 4.13C151.872 3.382 151.865 2.678 151.85 2.018C151.85 1.358 151.843 0.83 151.828 0.434C152.004 0.404666 152.297 0.382666 152.708 0.367999C153.133 0.353333 153.595 0.345999 154.094 0.345999C154.49 0.345999 154.879 0.353333 155.26 0.367999C155.656 0.382666 155.993 0.404666 156.272 0.434C156.243 1.34333 156.221 2.25267 156.206 3.162C156.191 4.07133 156.177 4.93667 156.162 5.758C156.162 6.56467 156.162 7.26867 156.162 7.87C156.162 9.86467 156.184 11.5953 156.228 13.062C156.287 14.5287 156.367 15.8267 156.47 16.956C155.678 16.9853 154.871 17 154.05 17C153.243 17.0147 152.437 17.022 151.63 17.022ZM159.118 16.934C159.118 16.274 159.125 15.4747 159.14 14.536C159.154 13.5827 159.169 12.5633 159.184 11.478C159.213 10.378 159.242 9.27067 159.272 8.156C159.301 7.02667 159.33 5.956 159.36 4.944C159.404 3.91733 159.44 3.01533 159.47 2.238C159.499 1.446 159.528 0.844666 159.558 0.434C159.939 0.404666 160.474 0.382666 161.164 0.367999C161.868 0.353333 162.74 0.345999 163.782 0.345999C164.984 2.12067 166.238 4.01267 167.544 6.022C168.864 8.01667 170.206 10.1507 171.57 12.424L171.086 0.324C171.467 0.324 171.878 0.338666 172.318 0.367999C172.772 0.382666 173.212 0.404666 173.638 0.434C173.638 1.666 173.63 2.986 173.616 4.394C173.601 5.78733 173.586 7.17333 173.572 8.552C173.557 9.93067 173.535 11.214 173.506 12.402C173.476 13.5753 173.447 14.5653 173.418 15.372C173.403 16.1787 173.381 16.7067 173.352 16.956C173.044 16.9707 172.626 16.9853 172.098 17C171.584 17.0147 171.064 17.022 170.536 17.022C170.008 17.0367 169.575 17.044 169.238 17.044C168.079 15.152 166.788 13.1573 165.366 11.06C163.958 8.96267 162.535 6.88 161.098 4.812L161.67 17.066C160.848 17.066 159.998 17.022 159.118 16.934ZM182.718 17.11C181.252 17.11 179.946 16.7653 178.802 16.076C177.673 15.3867 176.786 14.4333 176.14 13.216C175.495 11.9987 175.172 10.598 175.172 9.014C175.172 7.72333 175.385 6.54267 175.81 5.472C176.25 4.38667 176.866 3.448 177.658 2.656C178.45 1.864 179.382 1.25533 180.452 0.83C181.538 0.389999 182.726 0.169999 184.016 0.169999C185.322 0.169999 186.517 0.389999 187.602 0.83C188.702 1.27 189.546 1.864 190.132 2.612C189.164 3.712 188.189 4.592 187.206 5.252C186.18 3.14 184.757 2.084 182.938 2.084C181.721 2.084 180.768 2.56067 180.078 3.514C179.389 4.45267 179.044 5.77267 179.044 7.474C179.044 8.53 179.169 9.52 179.418 10.444C179.682 11.368 180.034 12.1893 180.474 12.908C180.914 13.612 181.42 14.1693 181.992 14.58C182.579 14.976 183.202 15.174 183.862 15.174C184.361 15.174 184.794 15.0713 185.16 14.866C185.542 14.646 185.762 14.3747 185.82 14.052C185.806 13.7293 185.776 13.3333 185.732 12.864C185.703 12.38 185.659 11.874 185.6 11.346C185.556 10.818 185.512 10.3047 185.468 9.806C184.222 9.77667 183.305 9.74 182.718 9.696L182.652 8.024C184.192 8.024 185.659 8.00933 187.052 7.98C188.46 7.95067 189.692 7.90667 190.748 7.848L190.682 9.872C190.184 9.872 189.7 9.872 189.23 9.872C189.274 10.5027 189.304 11.2433 189.318 12.094C189.348 12.93 189.362 13.7587 189.362 14.58C188.82 15.0933 188.182 15.5407 187.448 15.922C186.715 16.3033 185.945 16.5967 185.138 16.802C184.332 17.0073 183.525 17.11 182.718 17.11ZM197.739 17.11C196.933 17.11 196.097 17 195.231 16.78C194.381 16.56 193.567 16.2593 192.789 15.878C192.027 15.482 191.381 15.0347 190.853 14.536C191.191 14.052 191.565 13.568 191.975 13.084C192.386 12.5853 192.841 12.094 193.339 11.61C193.911 12.226 194.542 12.798 195.231 13.326C195.921 13.8393 196.61 14.2573 197.299 14.58C198.003 14.9027 198.649 15.064 199.235 15.064C199.763 15.064 200.233 14.9247 200.643 14.646C201.069 14.3527 201.281 13.9347 201.281 13.392C201.281 12.8787 201.083 12.424 200.687 12.028C200.291 11.6173 199.771 11.2433 199.125 10.906C198.495 10.554 197.82 10.2093 197.101 9.872C196.471 9.57867 195.847 9.27067 195.231 8.948C194.615 8.62533 194.051 8.27333 193.537 7.892C193.039 7.51067 192.635 7.08533 192.327 6.616C192.034 6.132 191.887 5.58933 191.887 4.988C191.887 4.38667 192.041 3.8 192.349 3.228C192.672 2.656 193.119 2.14267 193.691 1.688C194.263 1.21867 194.938 0.851999 195.715 0.587999C196.507 0.309332 197.373 0.169999 198.311 0.169999C199.382 0.169999 200.46 0.353333 201.545 0.72C202.645 1.08667 203.599 1.61467 204.405 2.304C204.141 2.80267 203.782 3.294 203.327 3.778C202.887 4.262 202.455 4.67267 202.029 5.01C201.135 4.15933 200.247 3.448 199.367 2.876C198.487 2.28933 197.659 1.996 196.881 1.996C196.309 1.996 195.877 2.14267 195.583 2.436C195.305 2.71467 195.165 3.01533 195.165 3.338C195.165 3.69 195.327 4.01267 195.649 4.306C195.972 4.59933 196.397 4.88533 196.925 5.164C197.453 5.44267 198.033 5.72867 198.663 6.022C199.323 6.33 199.991 6.66 200.665 7.012C201.355 7.364 201.985 7.76733 202.557 8.222C203.144 8.662 203.613 9.168 203.965 9.74C204.317 10.312 204.493 10.9647 204.493 11.698C204.493 12.4313 204.31 13.128 203.943 13.788C203.591 14.4333 203.1 15.0053 202.469 15.504C201.853 16.0027 201.135 16.3987 200.313 16.692C199.507 16.9707 198.649 17.11 197.739 17.11Z" fill="#DDDDDD"/>
</svg>
