<svg width="94" height="107" viewBox="0 0 94 107" fill="none" xmlns="http://www.w3.org/2000/svg">
<path d="M0.129883 13.5518L89.5789 65.1948V106.51L0.129883 54.8668V13.5518Z" fill="#EBEBEB"/>
<path d="M0.129883 13.5518L3.70789 11.4858L93.1569 63.1298L89.5789 65.1948L0.129883 13.5518Z" fill="#ECDBBA"/>
<path d="M93.1569 63.1299V104.445L89.5789 106.51V65.1949L93.1569 63.1299Z" fill="#76858F"/>
<path d="M28.7539 59.8789V47.4839L60.9559 66.0759L60.9549 78.4699L28.7539 59.8789Z" fill="#ECDBBA"/>
<path d="M37.242 62.1859L35.954 61.4429C35.6 61.2379 35.295 60.8679 35.044 60.3369C34.793 59.8049 34.667 59.2649 34.667 58.7179V54.7539C34.667 54.2069 34.793 53.8129 35.044 53.5699C35.295 53.3269 35.6 53.3099 35.954 53.5149L37.242 54.2579C37.597 54.4629 37.9 54.8329 38.152 55.3639C38.403 55.8959 38.53 56.4359 38.53 56.9829V60.9469C38.53 61.4939 38.404 61.8879 38.152 62.1309C37.9 62.3739 37.597 62.3909 37.242 62.1859ZM35.954 60.4519L37.242 61.1949C37.346 61.2549 37.448 61.2719 37.549 61.2479L35.311 55.2109V59.0889C35.311 59.3619 35.375 59.6329 35.5 59.8979C35.625 60.1669 35.777 60.3489 35.954 60.4519ZM37.242 55.2499L35.954 54.5069C35.847 54.4449 35.745 54.4279 35.648 54.4539L37.886 60.4919V56.6119C37.886 56.3389 37.822 56.0679 37.697 55.8029C37.571 55.5369 37.42 55.3529 37.242 55.2499Z" fill="#76858F"/>
<path d="M42.3909 65.1588L41.1029 64.4158C40.7489 64.2108 40.4439 63.8408 40.1929 63.3098C39.9419 62.7778 39.8159 62.2378 39.8159 61.6908V57.7268C39.8159 57.1798 39.9419 56.7858 40.1929 56.5428C40.4439 56.2998 40.7489 56.2828 41.1029 56.4878L42.3909 57.2308C42.7459 57.4358 43.0489 57.8058 43.3009 58.3368C43.5519 58.8688 43.6789 59.4088 43.6789 59.9558V63.9198C43.6789 64.4668 43.5529 64.8608 43.3009 65.1038C43.0489 65.3468 42.7459 65.3638 42.3909 65.1588ZM41.1029 63.4248L42.3909 64.1678C42.4949 64.2278 42.5969 64.2448 42.6979 64.2208L40.4599 58.1838V62.0618C40.4599 62.3348 40.5239 62.6058 40.6489 62.8708C40.7749 63.1398 40.9259 63.3218 41.1029 63.4248ZM42.3909 58.2228L41.1029 57.4798C40.9959 57.4178 40.8929 57.4008 40.7969 57.4268L43.0349 63.4658V59.5858C43.0349 59.3128 42.9709 59.0418 42.8459 58.7768C42.7199 58.5098 42.5689 58.3258 42.3909 58.2228Z" fill="#76858F"/>
<path d="M44.5889 63.225C44.5889 62.931 44.7179 62.8 44.8989 62.903C45.0789 63.006 45.1969 63.282 45.2019 63.577C45.2019 63.854 45.0839 64 44.8939 63.89C44.7119 63.788 44.5889 63.502 44.5889 63.225ZM44.5889 66.024C44.5889 65.73 44.7179 65.599 44.8989 65.702C45.0789 65.805 45.1969 66.081 45.2019 66.376C45.2019 66.653 45.0839 66.799 44.8939 66.689C44.7119 66.587 44.5889 66.301 44.5889 66.024Z" fill="#76858F"/>
<path d="M48.606 65.775L47.319 65.032C47.141 64.929 46.989 64.937 46.863 65.06C46.737 65.18 46.675 65.378 46.675 65.652V66.395C46.675 66.462 46.691 66.529 46.722 66.596C46.755 66.663 46.793 66.709 46.836 66.735L49.577 68.316C49.664 68.368 49.74 68.459 49.803 68.595C49.867 68.729 49.899 68.865 49.899 69.001C49.899 69.139 49.867 69.237 49.803 69.295C49.739 69.354 49.664 69.359 49.577 69.307L46.354 67.447C46.267 67.395 46.191 67.306 46.128 67.174C46.064 67.042 46.033 66.906 46.033 66.766V65.28C46.033 64.733 46.159 64.337 46.41 64.096C46.662 63.853 46.965 63.834 47.321 64.041L48.608 64.784C48.785 64.885 48.938 64.877 49.066 64.756C49.193 64.637 49.257 64.439 49.257 64.166V63.175C49.257 62.901 49.194 62.631 49.068 62.366C48.942 62.099 48.789 61.914 48.609 61.81L47.322 61.067C47.144 60.964 46.992 60.972 46.866 61.094C46.74 61.215 46.678 61.412 46.678 61.686C46.678 61.825 46.647 61.925 46.585 61.984C46.523 62.044 46.447 62.048 46.359 61.998C46.269 61.946 46.194 61.855 46.13 61.723C46.066 61.591 46.035 61.455 46.035 61.315C46.035 60.768 46.161 60.372 46.412 60.131C46.664 59.888 46.967 59.869 47.323 60.076L48.61 60.819C48.969 61.026 49.274 61.395 49.525 61.927C49.776 62.46 49.902 62.999 49.902 63.546V64.537C49.902 65.084 49.776 65.48 49.525 65.721C49.27 65.964 48.964 65.981 48.606 65.775Z" fill="#76858F"/>
<path d="M55.0419 69.9869V70.4819C55.0419 71.0289 54.9159 71.4229 54.6649 71.6649C54.4139 71.9059 54.1099 71.9249 53.7549 71.7199L52.4679 70.9769C52.1119 70.7709 51.8089 70.4019 51.5569 69.8709C51.3059 69.3379 51.1799 68.7989 51.1799 68.2519V67.7569C51.1799 67.4679 51.219 67.2169 51.295 67.0019C51.372 66.7889 51.4799 66.6289 51.6169 66.5219C51.4799 66.2569 51.372 65.9729 51.295 65.6699C51.218 65.3689 51.1799 65.0729 51.1799 64.7839V64.2879C51.1799 63.7409 51.3059 63.3449 51.5569 63.1039C51.8089 62.8609 52.1119 62.8419 52.4679 63.0489L53.7549 63.7919C54.1099 63.9969 54.4139 64.3649 54.6649 64.8979C54.9159 65.4299 55.0419 65.9699 55.0419 66.5169V67.0119C55.0419 67.3009 55.003 67.5499 54.924 67.7639C54.845 67.9769 54.739 68.1369 54.6049 68.2459C54.739 68.5089 54.845 68.7929 54.924 69.0959C55.002 69.3999 55.0419 69.6979 55.0419 69.9869ZM54.3979 66.1469C54.3979 65.8739 54.3349 65.6029 54.2099 65.3369C54.0839 65.0699 53.9319 64.8859 53.7549 64.7849L52.4679 64.0419C52.2899 63.9389 52.1379 63.9469 52.0119 64.0689C51.8869 64.1899 51.8239 64.3869 51.8239 64.6609V65.1559C51.8239 65.4299 51.8869 65.6999 52.0119 65.9649C52.1379 66.2319 52.2899 66.4159 52.4679 66.5189L53.7549 67.2619C53.9319 67.3639 54.0839 67.3549 54.2099 67.2329C54.3349 67.1139 54.3979 66.9169 54.3979 66.6429V66.1469ZM54.3979 69.6149C54.3979 69.3419 54.3349 69.0709 54.2099 68.8049C54.0839 68.5379 53.9319 68.3539 53.7549 68.2529L52.4679 67.5099C52.2899 67.4069 52.1379 67.4149 52.0119 67.5369C51.8869 67.6569 51.8239 67.8549 51.8239 68.1289V68.6239C51.8239 68.8979 51.8869 69.1679 52.0119 69.4329C52.1379 69.6999 52.2899 69.8839 52.4679 69.9869L53.7549 70.7299C53.9319 70.8319 54.0839 70.8229 54.2099 70.7009C54.3349 70.5819 54.3979 70.3849 54.3979 70.1109V69.6149Z" fill="#76858F"/>
<path d="M3.70679 20.6299L25.1758 33.0239L25.1748 57.8129L3.70779 45.4189L3.70679 20.6299Z" fill="#ECDBBA"/>
<path d="M11.4698 43.5899L9.48785 42.4449C8.94085 42.1289 8.47285 41.5629 8.08585 40.7429C7.69885 39.9229 7.50586 39.0919 7.50586 38.2499V32.1469C7.50586 31.3049 7.69885 30.6979 8.08585 30.3249C8.47285 29.9519 8.94085 29.9239 9.48785 30.2409L11.4698 31.3849C12.0168 31.7009 12.4828 32.2669 12.8698 33.0869C13.2568 33.9069 13.4518 34.7379 13.4518 35.5799V41.6829C13.4518 42.5249 13.2578 43.1319 12.8698 43.5049C12.4828 43.8779 12.0168 43.9059 11.4698 43.5899ZM9.48785 40.9189L11.4698 42.0639C11.6298 42.1559 11.7869 42.1839 11.9409 42.1469L8.49686 32.8509V38.8219C8.49686 39.2429 8.59283 39.6579 8.78683 40.0679C8.97983 40.4779 9.21385 40.7619 9.48785 40.9189ZM11.4698 32.9109L9.48785 31.7669C9.32285 31.6719 9.16386 31.6439 9.01486 31.6839L12.4608 40.9789V35.0079C12.4608 34.5869 12.3649 34.1719 12.1699 33.7609C11.9759 33.3519 11.7428 33.0679 11.4698 32.9109Z" fill="#76858F"/>
<path d="M19.3969 43.5888L17.4149 42.4448C17.1419 42.2878 16.9068 42.3008 16.7138 42.4878C16.5208 42.6738 16.4239 42.9768 16.4239 43.3988V44.5428C16.4239 44.6458 16.4479 44.7498 16.4969 44.8538C16.5459 44.9588 16.6048 45.0288 16.6718 45.0668L20.8899 47.5028C21.0239 47.5798 21.1399 47.7228 21.2389 47.9308C21.3369 48.1378 21.3849 48.3468 21.3849 48.5578C21.3849 48.7688 21.3369 48.9188 21.2389 49.0098C21.1399 49.0998 21.0239 49.1058 20.8899 49.0288L15.9279 46.1648C15.7939 46.0878 15.6769 45.9458 15.5789 45.7438C15.4809 45.5398 15.4329 45.3308 15.4329 45.1158V42.8278C15.4329 41.9858 15.6258 41.3788 16.0128 41.0058C16.3998 40.6328 16.8679 40.6048 17.4149 40.9208L19.3969 42.0658C19.6699 42.2228 19.9049 42.2098 20.1009 42.0248C20.2969 41.8398 20.3948 41.5378 20.3948 41.1168V39.5908C20.3948 39.1698 20.2989 38.7548 20.1049 38.3448C19.9109 37.9348 19.6759 37.6508 19.3969 37.4888L17.4149 36.3448C17.1419 36.1878 16.9068 36.2008 16.7138 36.3868C16.5208 36.5738 16.4239 36.8768 16.4239 37.2978C16.4239 37.5128 16.3758 37.6658 16.2798 37.7578C16.1848 37.8498 16.0689 37.8558 15.9319 37.7768C15.7949 37.6988 15.6769 37.5578 15.5789 37.3538C15.4809 37.1498 15.4329 36.9408 15.4329 36.7258C15.4329 35.8838 15.6258 35.2768 16.0128 34.9038C16.3998 34.5318 16.8679 34.5028 17.4149 34.8188L19.3969 35.9628C19.9489 36.2818 20.4188 36.8508 20.8058 37.6708C21.1928 38.4908 21.3858 39.3218 21.3858 40.1638V41.6898C21.3858 42.5318 21.1928 43.1388 20.8058 43.5118C20.4188 43.8818 19.9489 43.9078 19.3969 43.5888Z" fill="#76858F"/>
<path opacity="0.15" d="M8.23889 52.1668L20.6449 59.3288C21.1719 59.6328 21.5979 60.3418 21.5979 60.9118C21.5979 61.4818 21.1709 61.6978 20.6439 61.3938L8.23889 54.2318C7.71189 53.9278 7.28589 53.2188 7.28589 52.6488C7.28489 52.0778 7.71189 51.8628 8.23889 52.1668Z" fill="black"/>
<path d="M64.5327 55.7468L86.0007 68.1418V92.9308L64.5337 80.5358L64.5327 55.7468Z" fill="#ECDBBA"/>
<path d="M72.2948 78.7068L70.3128 77.5628C69.7658 77.2458 69.2978 76.6798 68.9108 75.8598C68.5238 75.0408 68.3308 74.2098 68.3308 73.3668V67.2648C68.3308 66.4218 68.5238 65.8148 68.9108 65.4428C69.2978 65.0698 69.7658 65.0418 70.3128 65.3588L72.2948 66.5028C72.8418 66.8178 73.3078 67.3858 73.6948 68.2038C74.0818 69.0248 74.2768 69.8558 74.2768 70.6968V76.8008C74.2768 77.6418 74.0828 78.2488 73.6948 78.6228C73.3078 78.9958 72.8418 79.0238 72.2948 78.7068ZM70.3128 76.0368L72.2948 77.1808C72.4548 77.2738 72.6118 77.3008 72.7658 77.2638L69.3218 67.9688V73.9398C69.3218 74.3608 69.4178 74.7758 69.6118 75.1848C69.8058 75.5948 70.0398 75.8788 70.3128 76.0368ZM72.2948 68.0288L70.3128 66.8848C70.1478 66.7888 69.9898 66.7608 69.8398 66.8018L73.2858 76.0968V70.1258C73.2858 69.7048 73.1898 69.2898 72.9948 68.8788C72.8018 68.4688 72.5688 68.1848 72.2948 68.0288Z" fill="#76858F"/>
<path d="M82.2038 80.6149V81.3769C82.2038 82.2199 82.0098 82.8269 81.6218 83.1989C81.2348 83.5719 80.7688 83.5999 80.2218 83.2849L78.2398 82.1389C77.6928 81.8239 77.2248 81.2559 76.8378 80.4379C76.4508 79.6169 76.2578 78.7869 76.2578 77.9449C76.2578 77.7389 76.3038 77.5869 76.4008 77.4909C76.4958 77.3949 76.6128 77.3859 76.7488 77.4649C76.8858 77.5439 77.0028 77.6889 77.1008 77.8949C77.1988 78.1029 77.2488 78.3099 77.2488 78.5159C77.2488 78.9379 77.3448 79.3519 77.5388 79.7629C77.7318 80.1729 77.9658 80.4559 78.2398 80.6129L80.2218 81.7589C80.4948 81.9159 80.7278 81.9019 80.9218 81.7159C81.1158 81.5299 81.2118 81.2259 81.2118 80.8059V80.0419C81.2118 79.6209 81.1158 79.2059 80.9218 78.7969C80.7278 78.3879 80.4948 78.1019 80.2218 77.9449L79.7268 77.6579C79.5878 77.5789 79.4688 77.4379 79.3738 77.2349C79.2788 77.0339 79.2308 76.8269 79.2308 76.6159C79.2308 76.4059 79.2778 76.2529 79.3738 76.1569C79.4688 76.0619 79.5868 76.0539 79.7268 76.1349L80.2218 76.4199C80.4948 76.5779 80.7278 76.5649 80.9218 76.3769C81.1158 76.1909 81.2118 75.8879 81.2118 75.4669V74.7029C81.2118 74.2829 81.1158 73.8669 80.9218 73.4569C80.7278 73.0479 80.4948 72.7639 80.2218 72.6049L78.2398 71.4609C77.9658 71.3029 77.7318 71.3169 77.5388 71.5019C77.3448 71.6899 77.2488 71.9919 77.2488 72.4139C77.2488 72.6289 77.1988 72.7809 77.1008 72.8719C77.0028 72.9629 76.8858 72.9679 76.7488 72.8889C76.6118 72.8099 76.4958 72.6689 76.4008 72.4679C76.3048 72.2649 76.2578 72.0569 76.2578 71.8419C76.2578 71.0009 76.4508 70.3929 76.8378 70.0199C77.2248 69.6479 77.6928 69.6189 78.2398 69.9359L80.2218 71.0799C80.7688 71.3969 81.2348 71.9629 81.6218 72.7829C82.0088 73.6019 82.2038 74.4329 82.2038 75.2759V76.0379C82.2038 76.4839 82.1428 76.8689 82.0218 77.1979C81.9008 77.5249 81.7368 77.7709 81.5298 77.9399C81.7358 78.3439 81.9008 78.7799 82.0218 79.2469C82.1428 79.7139 82.2038 80.1689 82.2038 80.6149Z" fill="#76858F"/>
<path opacity="0.15" d="M69.0638 87.2918L81.4698 94.4538C81.9968 94.7578 82.4229 95.4668 82.4229 96.0368C82.4229 96.6068 81.9958 96.8228 81.4688 96.5188L69.0638 89.3568C68.5368 89.0528 68.1108 88.3438 68.1108 87.7738C68.1108 87.2038 68.5378 86.9878 69.0638 87.2918Z" fill="black"/>
<path d="M38.7308 42.6169C38.9968 42.7699 39.2308 42.9609 39.4328 43.1879C39.6338 43.4129 39.8038 43.6489 39.9378 43.8919C40.0728 44.1329 40.1748 44.3749 40.2448 44.6129C40.3138 44.8519 40.3518 45.0619 40.3598 45.2429C40.3628 45.3189 40.3488 45.3699 40.3148 45.3959C40.2818 45.4219 40.2428 45.4239 40.1998 45.3979L39.7838 45.1569C39.7158 45.1189 39.6648 45.0689 39.6318 45.0109C39.5988 44.9529 39.5678 44.8799 39.5398 44.7979C39.4808 44.6099 39.3898 44.4269 39.2698 44.2419C39.1488 44.0599 38.9698 43.9009 38.7318 43.7639C38.6288 43.7039 38.5308 43.6639 38.4378 43.6439C38.3448 43.6229 38.2638 43.6249 38.1938 43.6489C38.1248 43.6729 38.0698 43.7199 38.0308 43.7879C37.9908 43.8569 37.9718 43.9499 37.9718 44.0649C37.9718 44.2059 37.9898 44.3319 38.0288 44.4419C38.0658 44.5519 38.1288 44.6639 38.2178 44.7809C38.3068 44.8959 38.4248 45.0239 38.5718 45.1629C38.7178 45.3019 38.9008 45.4729 39.1188 45.6699C39.3558 45.8869 39.5608 46.0979 39.7338 46.3049C39.9068 46.5109 40.0458 46.7199 40.1558 46.9329C40.2638 47.1459 40.3458 47.3649 40.3988 47.5899C40.4518 47.8169 40.4788 48.0549 40.4788 48.3059C40.4788 48.5809 40.4388 48.8129 40.3598 49.0009C40.2808 49.1899 40.1668 49.3259 40.0208 49.4109C39.8748 49.4929 39.6938 49.5229 39.4798 49.4969C39.2658 49.4709 39.0268 49.3799 38.7608 49.2269C38.5378 49.0999 38.3268 48.9359 38.1238 48.7369C37.9218 48.5369 37.7428 48.3159 37.5858 48.0689C37.4288 47.8229 37.3038 47.5629 37.2078 47.2879C37.1118 47.0129 37.0588 46.7389 37.0468 46.4639C37.0438 46.3879 37.0578 46.3369 37.0918 46.3089C37.1258 46.2829 37.1638 46.2829 37.2078 46.3089L37.6228 46.5499C37.6908 46.5879 37.7418 46.6359 37.7778 46.6929C37.8138 46.7499 37.8428 46.8219 37.8678 46.9099C37.8948 47.0049 37.9288 47.1039 37.9698 47.2059C38.0098 47.3089 38.0628 47.4109 38.1298 47.5089C38.1968 47.6089 38.2808 47.7089 38.3828 47.8069C38.4848 47.9049 38.6098 47.9979 38.7608 48.0839C38.8798 48.1529 38.9938 48.2059 39.1058 48.2419C39.2168 48.2779 39.3138 48.2879 39.3968 48.2729C39.4798 48.2569 39.5478 48.2159 39.5998 48.1529C39.6518 48.0879 39.6768 47.9839 39.6768 47.8429C39.6768 47.7089 39.6488 47.5849 39.5938 47.4659C39.5388 47.3489 39.4548 47.2269 39.3408 47.1009C39.2288 46.9739 39.0888 46.8339 38.9228 46.6849C38.7558 46.5339 38.5628 46.3529 38.3458 46.1409C38.1468 45.9529 37.9738 45.7659 37.8258 45.5799C37.6778 45.3919 37.5538 45.1979 37.4578 44.9969C37.3598 44.7939 37.2878 44.5789 37.2398 44.3539C37.1928 44.1289 37.1688 43.8769 37.1688 43.6039C37.1688 43.3289 37.2078 43.0979 37.2878 42.9119C37.3668 42.7259 37.4758 42.5899 37.6148 42.5059C37.7538 42.4219 37.9198 42.3869 38.1118 42.4029C38.3018 42.4179 38.5088 42.4899 38.7308 42.6169Z" fill="#76858F"/>
<path d="M43.9278 50.9728C43.9708 50.9988 44.0087 51.0438 44.0407 51.1118C44.0727 51.1788 44.0878 51.2458 44.0878 51.3128V51.9628C44.0878 52.0298 44.0727 52.0778 44.0407 52.1088C44.0087 52.1378 43.9708 52.1418 43.9278 52.1158L41.3167 50.6088C41.2727 50.5848 41.2348 50.5388 41.2038 50.4708C41.1708 50.4038 41.1558 50.3368 41.1558 50.2698V44.3548C41.1558 44.2878 41.1718 44.2398 41.2038 44.2088C41.2348 44.1778 41.2727 44.1758 41.3167 44.2018L43.8798 45.6808C43.9238 45.7048 43.9608 45.7518 43.9928 45.8188C44.0238 45.8858 44.0398 45.9528 44.0398 46.0198V46.6698C44.0398 46.7368 44.0238 46.7848 43.9928 46.8158C43.9598 46.8468 43.9228 46.8488 43.8798 46.8248L41.9597 45.7148V47.1698L43.7487 48.2038C43.7927 48.2278 43.8298 48.2748 43.8628 48.3418C43.8938 48.4088 43.9098 48.4758 43.9098 48.5428V49.1928C43.9098 49.2598 43.8938 49.3078 43.8628 49.3388C43.8298 49.3698 43.7927 49.3718 43.7487 49.3478L41.9597 48.3138V49.8348L43.9278 50.9728Z" fill="#76858F"/>
<path d="M47.5957 47.8278C47.6387 47.8518 47.6767 47.8988 47.7087 47.9658C47.7407 48.0328 47.7557 48.0998 47.7557 48.1668V48.8168C47.7557 48.8838 47.7397 48.9318 47.7087 48.9628C47.6777 48.9938 47.6387 48.9958 47.5957 48.9718L46.5257 48.3528V53.3698C46.5257 53.4368 46.5097 53.4868 46.4777 53.5178C46.4457 53.5468 46.4087 53.5508 46.3647 53.5248L45.8827 53.2458C45.8387 53.2218 45.8007 53.1758 45.7697 53.1088C45.7377 53.0418 45.7217 52.9748 45.7217 52.9078V47.8898L44.6517 47.2718C44.6087 47.2458 44.5707 47.2008 44.5387 47.1338C44.5067 47.0648 44.4917 46.9998 44.4917 46.9328V46.2828C44.4917 46.2158 44.5077 46.1658 44.5387 46.1368C44.5707 46.1058 44.6087 46.1028 44.6517 46.1278L47.5957 47.8278Z" fill="#76858F"/>
<path d="M52.2628 50.5219C52.3058 50.5479 52.3438 50.5929 52.3748 50.6599C52.4078 50.7269 52.4228 50.7939 52.4228 50.8609V51.5109C52.4228 51.5779 52.4078 51.6309 52.3778 51.6729C52.3488 51.7139 52.3188 51.7489 52.2918 51.7739L51.4238 52.6819C51.6018 52.8209 51.7638 52.9829 51.9078 53.1639C52.0528 53.3449 52.1758 53.5419 52.2798 53.7579C52.3828 53.9729 52.4618 54.2049 52.5168 54.4489C52.5728 54.6949 52.6008 54.9499 52.6008 55.2109C52.6008 55.5289 52.5598 55.7869 52.4788 55.9869C52.3968 56.1879 52.2848 56.3329 52.1398 56.4189C51.9948 56.5069 51.8248 56.5389 51.6288 56.5169C51.4318 56.4959 51.2198 56.4189 50.9888 56.2849C50.7118 56.1249 50.4708 55.9379 50.2658 55.7189C50.0618 55.4989 49.8918 55.2719 49.7548 55.0339C49.6188 54.7969 49.5138 54.5559 49.4438 54.3129C49.3718 54.0699 49.3308 53.8479 49.3178 53.6449C49.3138 53.5689 49.3288 53.5189 49.3628 53.4919C49.3968 53.4659 49.4348 53.4659 49.4788 53.4919L49.9488 53.7619C49.9878 53.7859 50.0208 53.8239 50.0468 53.8789C50.0718 53.9319 50.0988 54.0049 50.1268 54.0939C50.1508 54.1819 50.1818 54.2679 50.2218 54.3549C50.2608 54.4409 50.3138 54.5289 50.3788 54.6179C50.4438 54.7089 50.5268 54.7969 50.6248 54.8849C50.7248 54.9729 50.8448 55.0589 50.9878 55.1399C51.2308 55.2809 51.4248 55.3189 51.5738 55.2539C51.7228 55.1919 51.7968 55.0219 51.7968 54.7479C51.7968 54.4729 51.7228 54.2339 51.5738 54.0269C51.4248 53.8239 51.2308 53.6519 50.9878 53.5109L50.4938 53.2269C50.4508 53.2009 50.4128 53.1559 50.3818 53.0879C50.3488 53.0209 50.3338 52.9539 50.3338 52.8869V52.2369C50.3338 52.1699 50.3498 52.1169 50.3788 52.0749C50.4078 52.0359 50.4378 52.0009 50.4648 51.9729L51.2978 51.1089L49.6568 50.1609C49.6128 50.1349 49.5758 50.0909 49.5438 50.0239C49.5128 49.9549 49.4968 49.8899 49.4968 49.8229V49.1729C49.4968 49.1059 49.5128 49.0559 49.5438 49.0269C49.5768 48.9959 49.6138 48.9919 49.6568 49.0179L52.2628 50.5219Z" fill="#76858F"/>
<path d="M79.2378 38.5869H82.0168V57.8169H82.0058C82.0398 58.0449 81.9118 58.2789 81.6108 58.4529C81.0678 58.7659 80.1888 58.7659 79.6458 58.4529C79.3438 58.2789 79.2168 58.0449 79.2498 57.8169H79.2378V38.5869Z" fill="#76858F"/>
<path d="M82.0168 38.587C82.0168 39.009 81.3947 39.351 80.6277 39.351C79.8607 39.351 79.2388 39.009 79.2388 38.587C79.2388 38.165 79.8607 37.823 80.6277 37.823C81.3937 37.823 82.0168 38.165 82.0168 38.587Z" fill="#F0F0F0"/>
<path d="M14.834 1.40283H17.613V20.6328H17.602C17.636 20.8608 17.508 21.0948 17.207 21.2688C16.664 21.5818 15.785 21.5818 15.242 21.2688C14.94 21.0948 14.813 20.8608 14.846 20.6328H14.834V1.40283Z" fill="#76858F"/>
<path d="M17.613 1.40292C17.613 1.82492 16.991 2.16692 16.224 2.16692C15.457 2.16692 14.835 1.82492 14.835 1.40292C14.835 0.980916 15.457 0.638916 16.224 0.638916C16.991 0.638916 17.613 0.981916 17.613 1.40292Z" fill="#F0F0F0"/>
</svg>
