<svg width="33" height="33" viewBox="0 0 33 33" fill="none" xmlns="http://www.w3.org/2000/svg">
<path d="M28.2189 14.1988H27.1765V14.1429H15.5294V19.5307H22.8431C21.7761 22.667 18.909 24.9184 15.5294 24.9184C11.2414 24.9184 7.76473 21.2999 7.76473 16.8368C7.76473 12.3737 11.2414 8.75519 15.5294 8.75519C17.5088 8.75519 19.3095 9.53237 20.6807 10.8019L24.3411 6.99204C22.0298 4.75006 18.9381 3.36743 15.5294 3.36743C8.38267 3.36743 2.58826 9.39835 2.58826 16.8368C2.58826 24.2753 8.38267 30.3062 15.5294 30.3062C22.6762 30.3062 28.4706 24.2753 28.4706 16.8368C28.4706 15.9337 28.3813 15.0521 28.2189 14.1988Z" fill="#FBC02D"/>
<path d="M4.08032 10.5675L8.33215 13.8129C9.48262 10.8483 12.2689 8.75519 15.5294 8.75519C17.5087 8.75519 19.3095 9.53237 20.6806 10.8019L24.341 6.99204C22.0297 4.75006 18.9381 3.36743 15.5294 3.36743C10.5587 3.36743 6.24797 6.28827 4.08032 10.5675Z" fill="#E53935"/>
<path d="M15.5294 30.306C18.8721 30.306 21.9094 28.9746 24.2058 26.8094L20.2005 23.2818C18.9012 24.3061 17.2862 24.9183 15.5294 24.9183C12.1634 24.9183 9.30537 22.6844 8.22866 19.5669L4.00854 22.9511C6.15031 27.3131 10.4998 30.306 15.5294 30.306Z" fill="#4CAF50"/>
<path d="M28.2189 14.1987L28.2085 14.1428H27.1765H15.5294V19.5306H22.8431C22.3307 21.0371 21.3995 22.3363 20.1986 23.2825L20.2005 23.2811L24.2058 26.8088C23.9224 27.0768 28.4706 23.5714 28.4706 16.8367C28.4706 15.9336 28.3813 15.052 28.2189 14.1987Z" fill="#1565C0"/>
</svg>
