<svg width="500" height="500" viewBox="0 0 500 500" fill="none" xmlns="http://www.w3.org/2000/svg">
<path d="M250 460.998C378.995 460.998 483.567 396.985 483.567 318.02C483.567 239.055 378.995 175.042 250 175.042C121.004 175.042 16.433 239.055 16.433 318.02C16.433 396.985 121.004 460.998 250 460.998Z" fill="url(#paint0_linear_85_594)" fill-opacity="0.9"/>
<path d="M252.428 190.382C245.086 194.669 245.086 201.619 252.428 205.906C259.771 210.193 271.675 210.193 279.017 205.906C286.359 201.62 286.359 194.669 279.017 190.383C271.674 186.096 259.77 186.096 252.428 190.382Z" fill="#AC6B5D" fill-opacity="0.77"/>
<path d="M52.256 274.912C59.377 279.914 69.296 283.204 78.114 282.496C80.396 282.313 82.846 281.78 84.332 280.039C85.93 278.168 85.974 275.438 87.079 273.239C88.649 270.114 92.533 267.842 95.702 266.652C99.331 265.289 103.279 265.112 107.102 264.789C113.188 264.275 119.303 264.454 125.403 264.449C130.513 264.445 135.644 264.339 140.71 263.6C144.998 262.974 150.122 262.286 153.621 259.53C155.059 258.398 156.289 256.601 155.801 254.836C155.415 253.441 154.089 252.54 152.82 251.844C146.676 248.474 139.593 247.054 132.791 245.651C125.161 244.077 117.427 243.076 109.686 242.23C101.371 241.321 92.977 240.826 84.666 241.77C45.531 246.212 39.868 266.209 52.256 274.912Z" fill="#E0E0E0" fill-opacity="0.34"/>
<path d="M423.52 392.515C429.944 391.637 436.304 390.229 442.441 388.124C447.662 386.333 453.438 383.555 456.754 378.938C458.685 376.25 459.656 372.823 459.125 369.556C457.85 361.698 448.734 358.733 441.948 357.693C438.11 357.105 434.249 357.53 430.44 357.077C429.068 356.914 427.27 356.242 426.135 357.42C426.118 357.438 426.101 357.456 426.084 357.475C425.624 357.985 425.493 358.706 425.435 359.391C425.367 360.202 425.376 361.019 425.462 361.828C425.535 362.516 425.663 363.202 425.638 363.893C425.537 366.64 423.431 367.678 421.235 368.584C418.377 369.763 415.401 370.651 412.362 371.221C409.998 371.664 407.621 371.967 405.241 372.272C402.802 372.585 400.363 373.217 397.942 373.67C392.973 374.6 387.988 375.45 382.992 376.22C380.459 376.611 377.853 377.225 375.31 377.284C372.507 377.349 369.722 377.688 366.994 378.347C363.317 379.235 364.357 383.271 366.649 385.199C368.778 386.99 371.486 387.919 374.152 388.714C390.089 393.469 407.044 394.766 423.52 392.515Z" fill="#E0E0E0" fill-opacity="0.34"/>
<path d="M395.625 362.159L276.682 430.831L83.7991 319.47L202.743 250.798L395.625 362.159Z" fill="#E0E0E0" fill-opacity="0.34"/>
<path d="M277.514 197.869C283.821 191.361 287.526 164.876 281.374 159.714H250.074C243.924 164.874 247.624 191.351 253.928 197.863C253.982 197.924 254.044 197.982 254.101 198.042C254.173 198.114 254.245 198.187 254.318 198.257C254.496 198.431 254.685 198.602 254.888 198.77C254.938 198.812 254.989 198.849 255.039 198.89C255.193 199.012 255.346 199.135 255.515 199.254C255.784 199.447 256.055 199.626 256.33 199.781C261.518 202.81 269.93 202.81 275.117 199.781H275.118C275.395 199.625 275.668 199.444 275.939 199.25C276.096 199.14 276.237 199.025 276.382 198.911C276.444 198.861 276.507 198.815 276.568 198.763C276.764 198.601 276.946 198.436 277.118 198.268C277.202 198.188 277.286 198.104 277.369 198.02C277.416 197.969 277.468 197.92 277.514 197.869Z" fill="#FF9F8B"/>
<path d="M252.791 157.635C245.649 161.805 245.649 168.565 252.791 172.735C259.933 176.905 271.512 176.905 278.654 172.735C285.795 168.566 285.795 161.805 278.654 157.635C271.512 153.465 259.933 153.465 252.791 157.635Z" fill="#AC6B5D"/>
<path d="M256.226 159.641C250.981 162.703 250.981 167.668 256.226 170.73C261.471 173.792 269.974 173.792 275.219 170.73C280.464 167.668 280.464 162.703 275.219 159.641C269.974 156.579 261.471 156.579 256.226 159.641Z" fill="#8F584C"/>
<path d="M275.219 164.904C269.974 161.842 261.471 161.842 256.226 164.904C254.769 165.755 253.732 166.754 253.085 167.817C253.733 168.88 254.77 169.879 256.226 170.73C261.471 173.792 269.974 173.792 275.219 170.73C276.676 169.879 277.713 168.88 278.361 167.817C277.713 166.754 276.676 165.754 275.219 164.904Z" fill="#6C3428"/>
<path d="M256.728 117.534L265.149 126.224L256.609 120.832C256.609 120.832 255.943 125.391 257.056 129.652C257.056 129.652 261.182 132.911 263.474 135.601L256.866 131.931C256.866 131.931 255.785 136.462 256.774 143.721C257.033 145.622 258.634 149.397 259.593 152.187C260.025 153.452 260.54 154.712 261.158 155.949C261.191 156.027 261.231 156.101 261.27 156.18C262.984 155.479 264.757 154.811 266.587 154.182C268.017 151.972 270.243 146.345 271.398 141.648C275.803 123.667 263.382 111.397 252.752 106.433C252.752 106.433 255.933 111.712 256.728 117.534Z" fill="#679366"/>
<path d="M264.488 119.33C266.153 121.511 266.943 124.2 267.47 126.852C267.986 129.523 268.176 132.251 268.101 134.965C267.957 140.392 266.62 145.802 264.028 150.546L264.025 150.552C263.955 150.681 264.002 150.843 264.131 150.914C264.26 150.985 264.422 150.937 264.493 150.808L264.495 150.804C267.058 145.926 268.311 140.438 268.368 134.972C268.399 132.238 268.163 129.5 267.601 126.826C267.028 124.173 266.19 121.485 264.488 119.33Z" fill="#425C44"/>
<path d="M293.823 124.517C293.823 124.517 293.819 124.524 293.81 124.533C293.614 124.872 290.398 130.438 286.021 140.936L276.241 144.338L283.895 144.321L281.026 151.341L271.482 155.144L279.441 155.033C279.441 155.033 278.629 162.963 273.649 167.091C270.9 169.37 269.581 169.646 268.38 169.189C266.913 168.631 265.898 166.576 264.791 163.439C263.684 160.302 263.652 153.575 265.579 146.695C266.091 144.865 266.897 143.12 267.925 141.473C273.81 132.014 286.959 125.629 293.823 124.517Z" fill="#6F9F6F"/>
<path d="M283.874 129.675C279.073 132.88 274.701 136.885 271.583 141.825C270.01 144.275 268.793 146.967 268.049 149.792C267.34 152.624 267.077 155.562 267.323 158.452C267.324 158.468 267.338 158.479 267.354 158.478C267.368 158.477 267.379 158.464 267.38 158.45C267.459 155.557 267.803 152.694 268.596 149.94C269.343 147.179 270.498 144.529 271.969 142.064C274.957 137.141 279.203 133.058 283.907 129.723C283.92 129.714 283.923 129.697 283.914 129.684C283.905 129.669 283.887 129.666 283.874 129.675Z" fill="#4E6850"/>
<path d="M231.282 127.932C232.186 127.912 233.207 127.959 234.316 128.072C237.642 128.41 241.762 129.346 245.921 130.896C247.308 131.413 248.699 131.997 250.066 132.651C250.75 132.978 251.428 133.322 252.096 133.683C255.439 135.489 258.548 137.727 260.987 140.406C262.193 141.726 263.222 143.164 264.048 144.707C264.155 144.908 264.272 145.104 264.373 145.309L264.375 145.313C264.634 145.843 264.866 146.363 265.086 146.879C267.65 152.675 267.866 156.698 267.705 161.159C267.58 164.619 266.403 168.575 265.73 169.224C265.638 169.313 265.536 169.385 265.429 169.448C264.443 170.077 262.874 169.71 259.941 168.07C254.064 164.784 251.757 156.459 251.757 156.459L259.926 155.072L249.439 152.979L245.179 146.334L253.017 144.908L242.364 143.27C235.904 133.349 231.563 128.258 231.298 127.948C231.286 127.939 231.282 127.932 231.282 127.932Z" fill="#79AC78"/>
<path d="M234.315 128.072C237.641 128.41 241.761 129.346 245.92 130.896C247.307 131.413 248.698 131.997 250.065 132.651C250.749 132.978 251.427 133.322 252.095 133.683C255.438 135.489 258.547 137.727 260.986 140.406C262.192 141.726 263.221 143.164 264.047 144.707C264.154 144.908 264.271 145.104 264.372 145.309L264.374 145.313C264.633 145.843 264.865 146.363 265.085 146.879C267.649 152.675 267.865 156.698 267.704 161.159C267.579 164.619 266.402 168.575 265.729 169.224C265.637 169.313 265.535 169.385 265.428 169.448C265.239 169.569 265.019 169.641 264.781 169.686C265.505 164.321 262.867 150.718 258.871 145.123C254.714 139.302 244.853 130.86 231.297 127.948L231.308 127.934C232.207 127.915 233.217 127.96 234.315 128.072Z" fill="#618264"/>
<path d="M264.815 169.687C265.104 165.725 264.782 161.73 264.045 157.822C263.259 153.928 262.075 150.072 260.109 146.57C258.101 143.069 255.214 140.207 252.143 137.674C249.012 135.199 245.583 133.096 241.921 131.548C241.904 131.541 241.885 131.549 241.877 131.566C241.87 131.582 241.877 131.6 241.892 131.608C245.379 133.496 248.704 135.654 251.72 138.191C253.244 139.437 254.703 140.766 256.038 142.209C257.389 143.636 258.654 145.153 259.647 146.839C261.628 150.23 262.874 154.036 263.717 157.888C264.537 161.752 264.947 165.722 264.748 169.682C264.747 169.7 264.761 169.716 264.779 169.717C264.798 169.719 264.813 169.706 264.815 169.687Z" fill="#456148"/>
<path d="M66.6581 260.127C66.1841 257.891 69.9831 254.569 71.4421 253.2C75.7481 249.158 88.0131 238.225 90.8351 235.248C94.2611 231.636 96.3371 230 97.6341 224.249C99.2221 217.207 104.274 192.223 104.274 192.223C104.274 192.223 110.636 185.794 110.603 178.696L80.8851 176.881C80.8851 176.881 80.8511 181.145 80.7791 190.671C80.7261 197.685 79.9131 223.651 79.9131 223.651C79.9131 223.651 76.0161 225.599 73.2741 229.136C71.2521 231.744 66.7621 240.15 62.9381 246.437C60.7241 250.077 58.0281 255.156 56.1511 258.786C54.7861 261.426 55.7961 262.039 59.2651 262.152C62.7351 262.266 66.6581 260.127 66.6581 260.127Z" fill="#FFBDA7"/>
<path d="M80.608 275.095C80.754 275.747 80.724 276.204 78.366 277.209C75.946 278.241 72.36 278.428 69.24 277.9C66.12 277.371 63.27 274.849 61.858 273.041C60.446 271.233 57.698 269.633 55.907 268.817C54.117 268.001 53.426 267.51 53.523 266.935C53.62 266.36 54.014 264.834 54.014 264.834L80.608 275.095Z" fill="#EBEBEB"/>
<path d="M53.944 262.597C54.228 260.816 55.757 259.555 56.195 257.814C56.269 257.52 56.314 257.21 56.478 256.955C56.641 256.7 56.97 256.516 57.249 256.634C57.249 256.634 56.911 257.272 56.848 257.703C56.802 258.016 56.946 258.529 57.147 258.773C57.265 258.917 57.417 259.03 57.549 259.162C57.749 259.362 57.905 259.608 57.993 259.877C58.054 260.065 58.084 260.265 58.182 260.436C58.28 260.607 58.477 260.745 58.668 260.693C58.784 260.661 58.871 260.568 58.952 260.478C59.259 260.138 59.558 259.608 60.055 259.575C60.366 259.555 60.687 259.718 61.025 259.995C60.878 259.509 60.744 259.06 60.803 258.773C60.868 258.459 61.077 258.321 61.27 258.342C64.112 258.662 65.387 258.563 66.775 258.222C68.393 257.824 67.404 258.843 68.083 260.355C68.762 261.867 69.516 262.899 71.096 264.981C72.438 266.748 73.326 268.06 74.463 268.883C75.144 269.376 76.021 270.006 76.79 270.48C78.843 271.747 79.56 272.126 80.157 272.453C80.753 272.779 80.976 274.105 80.7181 274.915C80.4601 275.724 76.064 277.937 71.199 277.173C66.334 276.409 64.811 274.474 62.983 272.059C61.155 269.644 58.923 268.426 57.683 267.898C56.442 267.37 54.705 266.682 53.816 265.765C53.814 265.764 53.639 264.506 53.944 262.597Z" fill="#DDE6ED"/>
<path opacity="0.2" d="M53.944 262.597C54.228 260.816 55.757 259.555 56.195 257.814C56.269 257.52 56.314 257.21 56.478 256.955C56.641 256.7 56.97 256.516 57.249 256.634C57.249 256.634 56.911 257.272 56.848 257.703C56.802 258.016 56.946 258.529 57.147 258.773C57.265 258.917 57.417 259.03 57.549 259.162C57.749 259.362 57.905 259.608 57.993 259.877C58.054 260.065 58.084 260.265 58.182 260.436C58.28 260.607 58.477 260.745 58.668 260.693C58.784 260.661 58.871 260.568 58.952 260.478C59.259 260.138 59.558 259.608 60.055 259.575C60.366 259.555 60.687 259.718 61.025 259.995C60.878 259.509 60.744 259.06 60.803 258.773C60.868 258.459 61.077 258.321 61.27 258.342C64.112 258.662 65.387 258.563 66.775 258.222C68.393 257.824 67.404 258.843 68.083 260.355C68.762 261.867 69.516 262.899 71.096 264.981C72.438 266.748 73.326 268.06 74.463 268.883C75.144 269.376 76.021 270.006 76.79 270.48C78.843 271.747 79.56 272.126 80.157 272.453C80.753 272.779 80.976 274.105 80.7181 274.915C80.4601 275.724 76.064 277.937 71.199 277.173C66.334 276.409 64.811 274.474 62.983 272.059C61.155 269.644 58.923 268.426 57.683 267.898C56.442 267.37 54.705 266.682 53.816 265.765C53.814 265.764 53.639 264.506 53.944 262.597Z" fill="black"/>
<path d="M60.8021 258.773C60.8671 258.459 61.0761 258.321 61.2691 258.342C64.1111 258.662 65.3861 258.563 66.7741 258.222C68.3921 257.824 67.9801 258.771 68.6111 260.43C69.2001 261.979 69.5151 262.9 71.0951 264.981C72.4371 266.748 73.3251 268.06 74.4621 268.883C74.6811 269.041 74.9231 269.215 75.1721 269.392V269.393C74.6851 270.004 72.5261 270.833 71.1091 270.796C69.8041 270.088 65.1051 265.687 61.0231 259.995C60.8771 259.509 60.7431 259.059 60.8021 258.773Z" fill="#DDE6ED"/>
<path d="M79.8501 273.304C78.9961 273.577 78.0611 273.862 78.0451 274.189C78.0291 274.516 78.1181 276.338 77.6891 276.97C77.2601 277.602 76.6961 277.799 75.8701 277.923C75.0441 278.047 71.4811 278.281 69.3561 277.786C67.2311 277.291 65.2441 276.357 63.2841 274.393C61.3241 272.429 60.9231 271.446 58.4131 270.002C55.9021 268.558 54.6771 268.22 53.5551 267.328C53.5551 267.328 53.4261 267.788 53.4091 268.095C53.4091 268.095 54.0651 268.717 54.8661 269.066C55.6671 269.415 58.4141 270.556 59.5291 271.402C60.6441 272.248 61.9421 273.695 63.0421 274.886C64.1421 276.077 66.6131 277.792 69.3731 278.281C72.1331 278.77 75.8821 278.639 78.2751 277.639C80.6691 276.639 80.7611 276.135 80.9531 275.835C81.1451 275.535 81.1191 273.794 80.9531 273.422C80.7861 273.051 80.4631 273.108 79.8501 273.304Z" fill="#455A64"/>
<path d="M69.952 269.925C71.626 268.617 72.993 268.071 73.671 268.202C73.671 268.202 74.318 268.468 74.462 268.884C74.462 268.884 73.141 268.916 70.761 270.604C70.761 270.604 70.035 270.57 69.952 269.925Z" fill="#455A64"/>
<path d="M72.235 266.495C70.969 266.581 69.505 267.22 67.694 268.425C67.694 268.425 67.116 268.384 66.932 267.749C66.932 267.749 69.278 265.755 71.685 265.764C71.685 265.764 72.246 266.034 72.235 266.495Z" fill="#455A64"/>
<path d="M70.4 264.061C69.309 263.738 66.318 265.375 65.463 266.261C65.463 266.261 64.775 266.299 64.692 265.497C64.692 265.497 67.031 263.19 69.724 263.141C69.724 263.141 70.503 263.427 70.4 264.061Z" fill="#455A64"/>
<path d="M69.1271 261.747C68.5911 261.686 65.3491 261.982 63.6771 263.667C63.6771 263.667 63.1011 263.498 63.0551 262.854C63.0551 262.854 65.4551 260.592 68.7331 260.751C68.7331 260.751 69.0181 261.146 69.1271 261.747Z" fill="#455A64"/>
<path d="M126.746 230.492C127.537 224.041 127.637 219.949 128.714 214.743C129.289 211.962 130.737 208.872 132.754 206.985L102.176 194.09L114.546 175.476C122.446 179.566 139.777 189.142 146.089 193.879C151.388 197.856 149.443 202.895 147.217 210.612C145.613 216.171 139.862 228.422 136.148 238.023C134.599 242.028 135.901 243.636 136.366 245.853C136.366 245.853 130.066 248.575 127.092 248.459C124.118 248.343 123.932 246.02 123.932 246.02C123.815 245.155 124.092 243.939 124.658 243.339C124.658 243.339 126.159 235.278 126.746 230.492Z" fill="#FFBDA7"/>
<path d="M150.501 255.778C150.715 256.411 150.734 256.869 148.496 258.119C146.2 259.402 142.654 259.969 139.495 259.775C136.337 259.581 133.235 257.375 131.639 255.728C130.043 254.08 127.14 252.781 125.273 252.16C123.406 251.539 122.668 251.124 122.703 250.542C122.738 249.96 122.968 248.401 122.968 248.401L150.501 255.778Z" fill="#EBEBEB"/>
<path d="M122.66 246.182C122.754 244.381 124.139 242.965 124.391 241.187C124.433 240.887 124.446 240.574 124.581 240.303C124.716 240.032 124.974 239.81 125.265 239.898C125.265 239.898 125.222 240.679 125.205 241.114C125.193 241.43 125.215 241.818 125.44 242.039C125.573 242.17 125.735 242.266 125.88 242.383C126.1 242.561 126.281 242.788 126.397 243.047C126.478 243.227 126.528 243.423 126.644 243.583C126.76 243.743 126.97 243.859 127.154 243.787C127.266 243.743 127.343 243.641 127.414 243.544C127.683 243.174 127.924 242.615 128.415 242.529C128.722 242.476 129.058 242.604 129.424 242.843C129.226 242.376 129.045 241.943 129.073 241.652C129.104 241.333 129.298 241.173 129.492 241.174C132.352 241.19 133.609 240.957 134.953 240.47C136.519 239.903 135.644 241.021 136.48 242.452C137.316 243.883 138.175 244.83 139.968 246.732C141.49 248.347 142.512 249.557 143.73 250.254C144.46 250.672 145.398 251.205 146.213 251.595C148.389 252.636 149.142 252.938 149.77 253.199C150.398 253.46 150.76 254.755 150.589 255.587C150.418 256.419 146.282 259.086 141.364 258.843C136.446 258.6 134.725 256.838 132.651 254.63C130.576 252.423 128.228 251.448 126.939 251.055C125.649 250.662 123.849 250.162 122.867 249.345C122.867 249.345 122.56 248.113 122.66 246.182Z" fill="#BA68C8"/>
<path opacity="0.2" d="M122.66 246.182C122.754 244.381 124.139 242.965 124.391 241.187C124.433 240.887 124.446 240.574 124.581 240.303C124.716 240.032 124.974 239.81 125.265 239.898C125.265 239.898 125.222 240.679 125.205 241.114C125.193 241.43 125.215 241.818 125.44 242.039C125.573 242.17 125.735 242.266 125.88 242.383C126.1 242.561 126.281 242.788 126.397 243.047C126.478 243.227 126.528 243.423 126.644 243.583C126.76 243.743 126.97 243.859 127.154 243.787C127.266 243.743 127.343 243.641 127.414 243.544C127.683 243.174 127.924 242.615 128.415 242.529C128.722 242.476 129.058 242.604 129.424 242.843C129.226 242.376 129.045 241.943 129.073 241.652C129.104 241.333 129.298 241.173 129.492 241.174C132.352 241.19 133.609 240.957 134.953 240.47C136.519 239.903 135.644 241.021 136.48 242.452C137.316 243.883 138.175 244.83 139.968 246.732C141.49 248.347 142.512 249.557 143.73 250.254C144.46 250.672 145.398 251.205 146.213 251.595C148.389 252.636 149.142 252.938 149.77 253.199C150.398 253.46 150.76 254.755 150.589 255.587C150.418 256.419 146.282 259.086 141.364 258.843C136.446 258.6 134.725 256.838 132.651 254.63C130.576 252.423 128.228 251.448 126.939 251.055C125.649 250.662 123.849 250.162 122.867 249.345C122.867 249.345 122.56 248.113 122.66 246.182Z" fill="black"/>
<path d="M129.073 241.652C129.104 241.333 129.298 241.173 129.492 241.174C132.351 241.19 133.609 240.957 134.953 240.47C136.519 239.903 136.211 240.888 137.014 242.47C137.764 243.948 138.175 244.83 139.968 246.731C141.49 248.346 142.512 249.556 143.73 250.253C143.964 250.387 144.224 250.534 144.49 250.684C144.071 251.343 142.012 252.398 140.599 252.511C139.226 251.945 134.086 248.069 129.423 242.842C129.226 242.376 129.045 241.943 129.073 241.652Z" fill="#BA68C8"/>
<path d="M149.557 254.078C148.737 254.44 147.837 254.823 147.856 255.149C147.875 255.475 148.157 257.278 147.798 257.952C147.438 258.626 146.899 258.882 146.09 259.092C145.282 259.303 141.764 259.914 139.599 259.648C137.433 259.381 135.359 258.664 133.201 256.919C131.043 255.175 130.541 254.239 127.891 253.071C125.241 251.902 123.986 251.696 122.776 250.928C122.776 250.928 122.697 251.399 122.712 251.707C122.712 251.707 123.43 252.256 124.264 252.518C125.097 252.78 127.95 253.623 129.149 254.346C130.348 255.069 131.792 256.369 133.012 257.437C134.233 258.505 136.871 259.947 139.667 260.14C142.463 260.333 146.177 259.804 148.45 258.556C150.724 257.308 150.762 256.797 150.921 256.478C151.081 256.159 150.869 254.431 150.665 254.079C150.461 253.727 150.145 253.818 149.557 254.078Z" fill="#455A64"/>
<path d="M139.356 251.769C140.882 250.291 142.183 249.602 142.871 249.66C142.871 249.66 143.543 249.855 143.73 250.254C143.73 250.254 142.419 250.426 140.233 252.357C140.233 252.357 139.507 252.402 139.356 251.769Z" fill="#455A64"/>
<path d="M141.262 248.116C140.012 248.336 138.624 249.126 136.951 250.517C136.951 250.517 136.372 250.537 136.121 249.925C136.121 249.925 138.242 247.693 140.636 247.447C140.636 247.447 141.224 247.656 141.262 248.116Z" fill="#455A64"/>
<path d="M139.179 245.891C138.06 245.685 135.26 247.631 134.504 248.602C134.504 248.602 133.824 248.713 133.656 247.924C133.656 247.924 135.737 245.381 138.409 245.047C138.409 245.047 139.214 245.249 139.179 245.891Z" fill="#455A64"/>
<path d="M137.667 243.725C137.127 243.722 133.935 244.36 132.452 246.213C132.452 246.213 131.862 246.106 131.747 245.471C131.747 245.471 133.893 242.966 137.169 242.777C137.169 242.777 137.495 243.139 137.667 243.725Z" fill="#455A64"/>
<path d="M81.533 171.202C79.667 174.952 79.036 178.372 79.42 185.468C79.794 192.389 80.294 210.951 80.294 210.951C80.294 210.951 86.31 216.198 100.665 213.734C100.665 213.734 101.929 207.868 103.236 203.449C104.826 198.077 106.235 197.016 106.235 197.016L118.953 201.166C118.953 201.166 118.555 195.093 124.019 190.379C129.483 185.665 132.772 185.506 132.772 185.506C132.772 185.506 118.234 177.178 116.198 175.476C114.163 173.774 115.662 171.631 115.662 171.631L81.533 171.202Z" fill="#37474F"/>
<path d="M106.236 197.016C109.033 193.562 112.097 191.458 114.43 190.223C111.186 192.269 108.621 195.437 109.262 196.626C109.902 197.815 118.955 201.166 118.955 201.166L106.236 197.016Z" fill="#263238"/>
<path d="M175.605 150.228C173.982 148.831 170.062 146.702 167.812 147.877C165.562 149.052 165.048 152.723 165.905 154.999C166.761 157.275 175.605 150.228 175.605 150.228Z" fill="#F0997A"/>
<path d="M122.166 131.527C126.22 131.689 126.63 133.908 131.09 140.072C134.081 144.206 139.817 151.73 139.817 151.73C139.817 151.73 154.015 151.322 158.355 150.906C161.608 150.594 162.381 149.449 164.024 147.945C165.239 146.833 165.824 146.401 167.962 146.401L167.93 149.023L167.745 149.545L163.721 152.285C163.766 152.316 170.784 154.886 169.86 156.733C168.932 158.589 168.224 159.783 165.823 159.923C164.236 160.016 161.41 159.169 160.155 159.372C153.613 160.428 142.36 162.526 140.038 162.85C135.022 163.551 134.806 162.847 132.086 160.405C127.147 155.972 117.257 145.264 117.257 145.264L122.166 131.527Z" fill="#FFBDA7"/>
<path d="M117.024 130.917C119.836 130.325 125.273 130.152 129.142 135.78C133.011 141.407 138.058 148.653 138.058 148.653C138.058 148.653 136.721 155.428 129.024 158.346L115.898 144.713L117.024 130.917Z" fill="#DDE6ED"/>
<path d="M163.15 156.5C163.695 156.215 163.944 155.567 163.78 154.975C163.779 154.972 163.778 154.969 163.778 154.966C163.643 154.477 163.545 153.978 163.483 153.474C163.456 153.254 163.437 153.024 163.509 152.815C163.575 152.623 163.707 152.472 163.867 152.344C164.862 152.733 170.708 155.038 169.86 156.734C168.892 158.669 168.213 159.882 165.512 159.931C165.506 159.928 165.339 159.776 165.116 159.56C164.894 159.345 164.692 159.063 164.507 158.778C164.153 158.233 163.789 157.637 163.825 156.988C163.83 156.901 163.851 156.816 163.866 156.73C163.643 156.86 163.403 156.957 163.162 157.018C162.676 157.148 162.181 157.148 161.702 157.09C162.213 156.899 162.713 156.728 163.15 156.5Z" fill="#F0997A"/>
<path d="M183.862 148.491L183.487 146.781L172.888 141.902L173.263 143.612C173.359 143.937 173.506 144.251 173.68 144.557C173.495 145.279 172.915 146.021 171.991 146.649L163.717 152.283C163.658 152.324 163.639 152.377 163.653 152.439C163.707 152.682 164.014 154.087 164.028 154.149C164.16 154.755 167.451 156.208 168.024 155.803L175.921 149.995C177.413 148.897 179.667 148.262 181.643 148.429C182.366 148.491 183.109 148.51 183.862 148.491Z" fill="#263238"/>
<path d="M197.731 143.257C200.914 140.919 202.27 138.177 201.768 135.865C201.704 135.57 201.443 134.41 201.379 134.122C201.041 132.603 199.904 131.27 197.938 130.365C192.968 128.077 184.451 129.283 178.913 133.057L177.037 134.336C173.736 136.586 172.32 139.271 172.815 141.584C172.879 141.881 173.138 143.044 173.201 143.331C173.542 144.885 174.743 146.268 176.836 147.231L176.907 147.264C182.126 149.667 190.647 148.463 195.938 144.575L197.731 143.257Z" fill="#703E78"/>
<path opacity="0.4" d="M197.731 143.257C200.914 140.919 202.27 138.177 201.768 135.865C201.704 135.57 201.443 134.41 201.379 134.122C201.041 132.603 199.904 131.27 197.938 130.365C192.968 128.077 184.451 129.283 178.913 133.057L177.037 134.336C173.736 136.586 172.32 139.271 172.815 141.584C172.879 141.881 173.138 143.044 173.201 143.331C173.542 144.885 174.743 146.268 176.836 147.231L176.907 147.264C182.126 149.667 190.647 148.463 195.938 144.575L197.731 143.257Z" fill="black"/>
<path d="M176.907 147.263L176.836 147.23C171.617 144.827 171.875 139.82 177.412 136.045L179.288 134.766C184.826 130.992 193.344 129.786 198.313 132.074C203.283 134.362 203.022 139.368 197.73 143.256L195.937 144.573C190.647 148.462 182.126 149.666 176.907 147.263Z" fill="#A40B0B"/>
<path d="M175.605 131.884C178.21 129.783 181.196 128.064 184.488 127.154C186.131 126.711 187.836 126.472 189.536 126.499C191.235 126.511 192.92 126.796 194.522 127.292C191.183 126.963 187.878 127.112 184.72 128.002C181.551 128.851 178.591 130.361 175.605 131.884Z" fill="#E0E0E0"/>
<path d="M180.182 125.931C180.89 125.357 181.717 124.947 182.56 124.618C183.405 124.285 184.286 124.058 185.177 123.888C186.071 123.735 186.978 123.64 187.892 123.671C188.797 123.701 189.74 123.826 190.555 124.246C189.65 124.185 188.789 124.263 187.92 124.358C187.055 124.465 186.192 124.593 185.334 124.754C183.609 125.062 181.917 125.439 180.182 125.931Z" fill="#E0E0E0"/>
<path d="M183.862 148.491C183.109 148.511 182.366 148.492 181.643 148.43C179.667 148.263 177.413 148.897 175.921 149.995L168.024 155.803C167.393 156.25 163.462 154.44 164.093 153.993L172.368 148.359C173.932 147.294 174.544 145.904 173.839 144.837C173.58 144.446 173.39 144.036 173.264 143.612L183.862 148.491Z" fill="#455A64"/>
<path d="M175.602 150.227C174.967 150.743 174.274 151.207 173.613 151.693C173.613 151.693 170.627 152.544 170.044 152.683C169.558 152.799 167.826 150.902 166.195 150.595C165.755 150.512 164.783 150.679 164.815 151.283C164.829 151.553 164.988 151.768 165.157 152.008C165.059 152.095 164.915 152.236 164.864 152.345C164.707 152.677 164.657 153.008 164.781 153.483C164.854 153.762 164.945 153.91 164.945 153.91C164.742 154.113 164.644 154.189 164.533 154.358C164.389 154.577 164.406 154.748 164.441 155.166C164.451 155.282 164.551 155.641 164.623 155.829C164.292 155.971 164.194 156.27 164.292 156.775C164.363 157.142 164.577 157.56 164.765 157.868C165.415 158.934 166.214 159.736 167.493 160.014C168.102 160.146 168.82 159.747 169.327 159.462C169.747 159.226 170.114 158.914 170.525 158.668C170.668 158.583 171.636 158.194 171.636 158.06C171.859 157.934 172.085 157.805 172.262 157.621C172.565 157.305 172.699 156.853 173.014 156.549C173.287 156.286 173.663 156.163 173.977 155.951C174.347 155.701 174.627 155.32 174.756 154.893C174.832 154.639 174.858 154.369 174.966 154.127C175.266 153.458 176.123 153.157 176.376 152.469C176.506 152.117 176.449 151.718 176.301 151.373C176.197 151.131 176.051 150.912 175.897 150.699C175.798 150.561 175.733 150.338 175.602 150.227Z" fill="#FFBDA7"/>
<path d="M172.161 146.946C172.502 147.258 173.414 149.094 173.943 150.02C174.27 150.592 173.67 151.262 172.267 150.683C170.881 150.11 170.354 149.071 170.354 149.071L167.746 149.546L167.962 146.401C169.3 146.401 171.516 146.357 172.161 146.946Z" fill="#FFBDA7"/>
<path d="M165.158 152.008C165.703 152.538 166.28 153.025 166.854 153.516C167.434 153.995 167.992 154.518 168.61 154.884C169.192 155.279 169.915 155.149 170.652 154.943C171.386 154.775 172.124 154.614 172.882 154.5C172.18 154.793 171.458 155.039 170.732 155.279C170.067 155.544 169.129 155.735 168.382 155.271C167.715 154.828 167.159 154.307 166.62 153.768C166.09 153.221 165.563 152.66 165.158 152.008Z" fill="#F0997A"/>
<path d="M164.946 153.91C165.408 154.41 165.925 154.852 166.412 155.324C166.907 155.79 167.381 156.272 167.869 156.755C168.246 157.278 168.888 157.386 169.511 157.237C170.156 157.048 170.805 156.867 171.481 156.729C170.873 157.041 170.239 157.309 169.601 157.571C169.265 157.7 168.874 157.724 168.502 157.647C168.135 157.583 167.754 157.323 167.543 157.063C167.09 156.564 166.606 156.08 166.163 155.562C165.727 155.04 165.262 154.526 164.946 153.91Z" fill="#F0997A"/>
<path d="M119.414 164.752C126.164 152.389 127.335 150.945 127.501 144.548C127.612 140.263 125.973 136.769 123.159 132.027C122.457 130.844 119.728 130.405 114.335 131.214C113.329 131.365 98.7941 134.445 98.7941 134.445C95.7611 135.337 92.3691 140.797 89.0941 148.179C85.8191 155.56 82.7451 162.928 79.8881 174.541C93.2071 189.792 112.671 184.225 117.258 176.087C115.094 171.87 116.393 170.285 119.414 164.752Z" fill="#263238"/>
<path d="M110.802 130.494C110.911 129.638 109.506 127.464 107.975 125.376C106.155 122.895 105.084 121.122 104.771 118.983C103.88 112.877 106.486 106.872 110.695 106.84C111.147 105.054 112.795 103.235 115.636 102.341C117.425 101.778 119.513 101.534 121.381 101.721C123.36 101.919 125.261 102.566 127.234 102.81C128.234 102.934 129.247 102.951 130.239 103.127C132.2 103.474 134.111 104.522 135.123 106.237C136.134 107.952 136.036 110.366 134.609 111.755C135.938 112.978 136.019 115.178 135.123 116.746C134.527 117.788 133.582 118.58 132.534 119.143C131.444 119.728 130.308 120.194 129.208 120.775C125.341 122.817 121.474 124.859 117.606 126.901C115.339 128.098 113.071 129.296 110.802 130.494Z" fill="#263238"/>
<path d="M111.501 122.169L109.247 132.388C109.247 132.388 108.395 135.394 113.301 138.85C115.168 140.166 119.214 140.235 119.877 138.65L121.12 133.616L111.501 122.169Z" fill="#FFBDA7"/>
<path d="M131.208 109.739C131.309 109.914 130.52 110.524 130.409 110.611C129.918 110.996 129.385 111.326 128.826 111.603C127.718 112.152 126.514 112.494 125.292 112.67C123.298 112.957 121.266 112.817 119.268 112.558C119.173 112.546 119.072 112.534 118.987 112.577C118.887 112.627 118.835 112.739 118.793 112.843C118.554 113.441 118.399 114.088 118.008 114.6C117.763 114.921 117.437 115.168 117.087 115.366C116.767 115.547 116.3 115.632 116.102 115.961C116.038 116.067 115.999 116.185 115.965 116.304C115.645 117.418 115.705 118.601 115.58 119.754C115.524 120.271 115.369 120.732 114.992 121.103C114.827 121.264 114.619 121.403 114.388 121.402C114.102 121.401 113.857 121.185 113.708 120.94C113.51 120.613 113.435 120.23 113.34 119.86C113.09 118.885 112.673 117.94 112.024 117.17C111.636 116.709 111.151 116.305 110.574 116.131C108.846 115.61 107.385 116.837 106.936 118.438C106.328 120.606 107.623 122.901 108.281 123.6C109.114 124.485 110.115 124.6 110.583 124.567C111.668 124.491 112.108 123.665 112.112 123.646L112.484 123.343L113.433 126.376C113.856 128.071 114.682 129.573 115.575 131.043C116.617 131.966 119.476 133.373 120.041 133.36L120.934 133.605C123.648 134.216 127.489 134.21 128.986 133.652C130.483 133.095 133.172 131.623 133.185 122.629C133.203 111.753 131.444 110.149 131.208 109.739Z" fill="#FFBDA7"/>
<path d="M112.502 125.857C112.502 125.857 112.746 129.6 114.801 131.878C115.229 132.353 118.463 134.522 120.795 134.938L121.115 133.642C121.115 133.642 119.833 133.273 118.873 132.864C117.913 132.455 117.023 131.91 116.365 131.467C113.93 129.829 112.877 126.748 112.502 125.857Z" fill="#F0997A"/>
<path d="M123.494 119.993C123.519 120.645 123.031 121.193 122.403 121.215C121.775 121.238 121.245 120.727 121.22 120.075C121.195 119.423 121.683 118.876 122.311 118.853C122.939 118.83 123.469 119.341 123.494 119.993Z" fill="#263238"/>
<path d="M122.524 116.606L120.063 117.9C119.718 117.194 119.99 116.331 120.67 115.974C121.349 115.617 122.179 115.899 122.524 116.606Z" fill="#263238"/>
<path d="M122.289 125.931L125.222 127.859C124.652 128.671 123.533 128.898 122.724 128.366C121.914 127.833 121.72 126.743 122.289 125.931Z" fill="#B16668"/>
<path d="M123.592 128.62C123.592 128.628 123.59 128.635 123.59 128.643C123.288 128.625 122.989 128.54 122.724 128.366C122.222 128.036 121.957 127.491 121.964 126.93C122.869 126.967 123.592 127.706 123.592 128.62Z" fill="#F28F8F"/>
<path d="M132.332 117.441L129.659 116.603C129.864 115.85 130.629 115.428 131.367 115.659C132.105 115.89 132.537 116.688 132.332 117.441Z" fill="#263238"/>
<path d="M131.663 119.993C131.688 120.645 131.2 121.193 130.572 121.215C129.944 121.238 129.414 120.727 129.389 120.075C129.364 119.423 129.852 118.875 130.48 118.853C131.108 118.83 131.638 119.341 131.663 119.993Z" fill="#263238"/>
<path d="M126.486 118.649L125.829 125.69L129.603 125.437L126.486 118.649Z" fill="#F0997A"/>
<path d="M73.7521 149.689C78.5071 145.462 88.0981 138.945 91.2681 136.831C94.4381 134.718 101.331 133.907 101.331 133.907C101.331 133.907 103.762 138.056 102.177 143.736C100.592 149.416 94.4211 151.436 94.4211 151.436L82.3851 158.546C82.3851 158.546 83.5621 168.248 85.3621 172.821C86.7121 175.647 87.1401 175.631 88.9881 176.556C90.9481 177.537 91.6811 178.144 93.1161 180.568C94.5511 182.992 96.3981 184.421 96.6951 185.029C96.9911 185.637 95.4101 186.27 94.0741 185.766C92.7381 185.262 90.3751 182.218 90.1661 182.592C89.9571 182.965 90.9531 185.748 92.5991 187.543C94.3111 189.411 96.7011 190.912 97.6741 191.699C98.6461 192.486 98.5971 192.948 98.1651 193.446C97.7331 193.944 94.3631 193.132 94.3631 193.132C94.3631 193.132 92.1191 194.368 89.3681 193.468C86.4011 192.497 84.2151 190.969 82.5681 188.784C81.3221 187.132 79.7671 181.039 77.7361 176.372C75.7711 172.504 71.5001 162.819 70.5351 159.454C69.2221 154.879 68.9961 153.916 73.7521 149.689Z" fill="#FFBDA7"/>
<path d="M102.28 133.707C98.6691 133.84 94.9181 134.57 92.8341 135.611C90.7501 136.653 79.3131 144.833 79.3131 144.833C79.3131 144.833 80.1731 154.014 85.4351 157.473C85.4351 157.473 97.2621 151.294 100.024 149.314C102.785 147.335 106.099 139.097 102.28 133.707Z" fill="#DDE6ED"/>
<path d="M267.037 239.848V302.953L268.644 302.025L268.645 238.921L267.037 239.848Z" fill="#37474F"/>
<path d="M267.037 239.848V302.953L265.43 302.025V238.921L267.037 239.848Z" fill="#263238"/>
<path d="M173.811 323.368L267.037 269.544L265.43 268.616L172.204 322.44L173.811 323.368Z" fill="#37474F"/>
<path d="M173.811 323.368L267.037 269.544V271.4L173.811 325.224V323.368Z" fill="#263238"/>
<path d="M172.204 294.6V357.704L173.811 356.776V293.672L172.204 294.6Z" fill="#37474F"/>
<path d="M172.204 294.6V357.704L170.596 356.776V293.672L172.204 294.6Z" fill="#263238"/>
<path d="M199.528 200.872V263.977L201.135 263.049L201.136 199.944L199.528 200.872Z" fill="#37474F"/>
<path d="M199.528 200.872V263.977L197.921 263.049V199.944L199.528 200.872Z" fill="#263238"/>
<path d="M106.302 284.392L199.528 230.568L197.921 229.64L104.695 283.464L106.302 284.392Z" fill="#37474F"/>
<path d="M106.302 284.392L199.528 230.568V232.424L106.302 286.248V284.392Z" fill="#263238"/>
<path d="M104.695 255.624V318.728L106.302 317.8V254.696L104.695 255.624Z" fill="#37474F"/>
<path d="M104.695 255.624V318.728L103.088 317.8V254.696L104.695 255.624Z" fill="#263238"/>
<path d="M353.834 289.961V353.065L355.441 352.137V289.033L353.834 289.961Z" fill="#37474F"/>
<path d="M353.834 289.961V353.065L352.227 352.137V289.033L353.834 289.961Z" fill="#263238"/>
<path d="M260.608 373.481L353.834 319.657L352.227 318.729L259.001 372.552L260.608 373.481Z" fill="#37474F"/>
<path d="M260.608 373.481L353.834 319.657V321.513L260.608 375.336V373.481Z" fill="#263238"/>
<path d="M259.001 344.712V407.817L260.608 406.889V343.784L259.001 344.712Z" fill="#37474F"/>
<path d="M259.001 344.712V407.817L257.393 406.889V343.784L259.001 344.712Z" fill="#263238"/>
<path d="M286.325 250.984V314.089L287.932 313.161L287.933 250.057L286.325 250.984Z" fill="#37474F"/>
<path d="M286.325 250.984V314.089L284.718 313.161V250.057L286.325 250.984Z" fill="#263238"/>
<path d="M193.099 334.504L286.325 280.68L284.718 279.752L191.492 333.576L193.099 334.504Z" fill="#37474F"/>
<path d="M193.099 334.504L286.325 280.68V282.536L193.1 336.36L193.099 334.504Z" fill="#263238"/>
<path d="M191.492 305.736V368.841L193.099 367.913V304.808L191.492 305.736Z" fill="#37474F"/>
<path d="M191.492 305.736V368.841L189.885 367.913V304.808L191.492 305.736Z" fill="#263238"/>
<path d="M305.613 206.438L304.006 205.51L302.399 206.44V221.289L300.792 222.217V233.35L298.363 234.75V236.58L299.97 237.508L304.006 235.206V224.073L305.613 223.145V206.438Z" fill="#263238"/>
<path d="M302.399 234.277V223.144L304.006 222.217V207.368L305.613 206.438V223.144L304.006 224.072V235.205L299.97 237.508V235.678L302.399 234.277Z" fill="#37474F"/>
<path d="M304.006 205.51L302.398 206.44L304.006 207.368L305.613 206.438L304.006 205.51Z" fill="#455A64"/>
<path d="M276.682 356.777L395.625 288.105V280.681L276.682 349.353V356.777Z" fill="#E0E0E0"/>
<path d="M276.682 356.777L83.799 245.416V237.992L276.682 349.353V356.777Z" fill="#E0E0E0"/>
<path opacity="0.1" d="M276.682 356.777L83.799 245.416V237.992L276.682 349.353V356.777Z" fill="black"/>
<path d="M395.625 280.681L276.682 349.353L83.799 237.992L202.743 169.32L395.625 280.681Z" fill="#F0F0F0"/>
<path d="M276.682 345.641L389.196 280.68L202.742 173.032L90.23 237.992L276.682 345.641Z" fill="#C84B31"/>
<path opacity="0.15" d="M276.682 345.641L389.196 280.68L202.742 173.032L90.23 237.992L276.682 345.641Z" fill="white"/>
<path d="M144.092 203.192L336.974 314.552L335.398 315.461L142.518 204.101L144.092 203.192Z" fill="#FAFAFA"/>
<path d="M179.001 293.068C178.981 293.068 178.962 293.063 178.945 293.053C178.91 293.033 178.889 292.996 178.889 292.956V281.431C178.889 281.369 178.939 281.319 179.001 281.319C179.063 281.319 179.113 281.369 179.113 281.431V292.762L303.016 221.223V209.757C303.016 209.695 303.066 209.645 303.128 209.645C303.19 209.645 303.24 209.695 303.24 209.757V221.288C303.24 221.328 303.219 221.365 303.184 221.385L179.056 293.053C179.039 293.064 179.02 293.068 179.001 293.068Z" fill="#263238"/>
<path d="M179.001 293.068C178.962 293.068 178.924 293.048 178.904 293.012C178.873 292.958 178.891 292.889 178.945 292.859L303.072 221.191C303.127 221.159 303.194 221.177 303.226 221.232C303.256 221.286 303.239 221.355 303.185 221.385L179.057 293.053C179.039 293.064 179.02 293.068 179.001 293.068Z" fill="#263238"/>
<path d="M179.001 291.788C178.962 291.788 178.924 291.768 178.904 291.732C178.873 291.678 178.891 291.61 178.945 291.579L303.072 219.911C303.127 219.879 303.194 219.897 303.226 219.952C303.256 220.006 303.239 220.074 303.185 220.105L179.057 291.773C179.039 291.783 179.02 291.788 179.001 291.788Z" fill="#263238"/>
<path d="M179.001 290.508C178.962 290.508 178.924 290.488 178.904 290.452C178.873 290.398 178.891 290.329 178.945 290.299L303.072 218.631C303.127 218.599 303.194 218.617 303.226 218.672C303.256 218.726 303.239 218.794 303.185 218.825L179.057 290.493C179.039 290.503 179.02 290.508 179.001 290.508Z" fill="#263238"/>
<path d="M179.001 289.227C178.962 289.227 178.924 289.207 178.904 289.171C178.873 289.117 178.891 289.048 178.945 289.018L303.072 217.35C303.127 217.319 303.194 217.336 303.226 217.391C303.256 217.445 303.239 217.514 303.185 217.544L179.057 289.212C179.039 289.222 179.02 289.227 179.001 289.227Z" fill="#263238"/>
<path d="M179.001 287.947C178.962 287.947 178.924 287.927 178.904 287.891C178.873 287.837 178.891 287.769 178.945 287.738L303.072 216.07C303.127 216.039 303.194 216.056 303.226 216.111C303.256 216.165 303.239 216.233 303.185 216.264L179.057 287.932C179.039 287.942 179.02 287.947 179.001 287.947Z" fill="#263238"/>
<path d="M179.001 286.667C178.962 286.667 178.924 286.647 178.904 286.611C178.873 286.557 178.891 286.488 178.945 286.458L303.072 214.79C303.127 214.759 303.194 214.777 303.226 214.831C303.256 214.885 303.239 214.953 303.185 214.984L179.057 286.653C179.039 286.662 179.02 286.667 179.001 286.667Z" fill="#263238"/>
<path d="M179.001 285.386C178.962 285.386 178.924 285.366 178.904 285.33C178.873 285.276 178.891 285.207 178.945 285.177L303.072 213.509C303.127 213.478 303.194 213.496 303.226 213.55C303.256 213.604 303.239 213.673 303.185 213.703L179.057 285.371C179.039 285.381 179.02 285.386 179.001 285.386Z" fill="#263238"/>
<path d="M179.001 284.105C178.962 284.105 178.924 284.085 178.904 284.049C178.873 283.995 178.891 283.927 178.945 283.896L303.072 212.227C303.127 212.195 303.194 212.213 303.226 212.268C303.256 212.322 303.239 212.39 303.185 212.421L179.057 284.09C179.039 284.101 179.02 284.105 179.001 284.105Z" fill="#263238"/>
<path d="M179.001 282.825C178.962 282.825 178.924 282.805 178.904 282.769C178.873 282.715 178.891 282.646 178.945 282.616L303.072 210.948C303.127 210.916 303.194 210.934 303.226 210.989C303.256 211.043 303.239 211.111 303.185 211.142L179.057 282.81C179.039 282.82 179.02 282.825 179.001 282.825Z" fill="#263238"/>
<path d="M179.001 281.544C178.962 281.544 178.924 281.524 178.904 281.488C178.873 281.434 178.891 281.365 178.945 281.335L303.072 209.667C303.127 209.635 303.194 209.653 303.226 209.708C303.256 209.762 303.239 209.831 303.185 209.861L179.057 281.529C179.039 281.54 179.02 281.544 179.001 281.544Z" fill="#263238"/>
<path d="M179.001 293.068C178.939 293.068 178.889 293.018 178.889 292.956V281.432C178.889 281.37 178.939 281.32 179.001 281.32C179.063 281.32 179.113 281.37 179.113 281.432V292.956C179.113 293.018 179.063 293.068 179.001 293.068Z" fill="#263238"/>
<path d="M180.099 292.434C180.037 292.434 179.987 292.384 179.987 292.322V280.798C179.987 280.736 180.037 280.686 180.099 280.686C180.161 280.686 180.211 280.736 180.211 280.798V292.322C180.211 292.384 180.161 292.434 180.099 292.434Z" fill="#263238"/>
<path d="M181.197 291.8C181.135 291.8 181.085 291.75 181.085 291.688V280.164C181.085 280.102 181.135 280.052 181.197 280.052C181.259 280.052 181.309 280.102 181.309 280.164V291.688C181.31 291.75 181.259 291.8 181.197 291.8Z" fill="#263238"/>
<path d="M182.296 291.165C182.234 291.165 182.184 291.115 182.184 291.053V279.529C182.184 279.467 182.234 279.417 182.296 279.417C182.358 279.417 182.408 279.467 182.408 279.529V291.053C182.408 291.115 182.358 291.165 182.296 291.165Z" fill="#263238"/>
<path d="M183.395 290.531C183.333 290.531 183.283 290.481 183.283 290.419V278.895C183.283 278.833 183.333 278.783 183.395 278.783C183.457 278.783 183.507 278.833 183.507 278.895V290.419C183.507 290.481 183.456 290.531 183.395 290.531Z" fill="#263238"/>
<path d="M184.493 289.897C184.431 289.897 184.381 289.847 184.381 289.785V278.261C184.381 278.199 184.431 278.149 184.493 278.149C184.555 278.149 184.605 278.199 184.605 278.261V289.785C184.605 289.847 184.555 289.897 184.493 289.897Z" fill="#263238"/>
<path d="M185.591 289.263C185.529 289.263 185.479 289.213 185.479 289.151V277.627C185.479 277.565 185.529 277.515 185.591 277.515C185.653 277.515 185.703 277.565 185.703 277.627V289.151C185.704 289.212 185.653 289.263 185.591 289.263Z" fill="#263238"/>
<path d="M186.69 288.628C186.628 288.628 186.578 288.578 186.578 288.516V276.992C186.578 276.93 186.628 276.88 186.69 276.88C186.752 276.88 186.802 276.93 186.802 276.992V288.516C186.802 288.578 186.752 288.628 186.69 288.628Z" fill="#263238"/>
<path d="M187.788 287.994C187.726 287.994 187.676 287.944 187.676 287.882V276.358C187.676 276.296 187.726 276.246 187.788 276.246C187.85 276.246 187.9 276.296 187.9 276.358V287.882C187.9 287.944 187.85 287.994 187.788 287.994Z" fill="#263238"/>
<path d="M188.887 287.36C188.825 287.36 188.775 287.31 188.775 287.248V275.724C188.775 275.662 188.825 275.612 188.887 275.612C188.949 275.612 188.999 275.662 188.999 275.724V287.248C188.999 287.31 188.949 287.36 188.887 287.36Z" fill="#263238"/>
<path d="M189.985 286.726C189.923 286.726 189.873 286.676 189.873 286.614V275.09C189.873 275.028 189.923 274.978 189.985 274.978C190.047 274.978 190.097 275.028 190.097 275.09V286.614C190.098 286.675 190.047 286.726 189.985 286.726Z" fill="#263238"/>
<path d="M191.083 286.091C191.021 286.091 190.971 286.041 190.971 285.979V274.455C190.971 274.393 191.021 274.343 191.083 274.343C191.145 274.343 191.195 274.393 191.195 274.455V285.979C191.196 286.041 191.145 286.091 191.083 286.091Z" fill="#263238"/>
<path d="M192.182 285.457C192.12 285.457 192.07 285.407 192.07 285.345V273.821C192.07 273.759 192.12 273.709 192.182 273.709C192.244 273.709 192.294 273.759 192.294 273.821V285.345C192.294 285.407 192.244 285.457 192.182 285.457Z" fill="#263238"/>
<path d="M193.281 284.823C193.219 284.823 193.169 284.773 193.169 284.711V273.187C193.169 273.125 193.219 273.075 193.281 273.075C193.343 273.075 193.393 273.125 193.393 273.187V284.711C193.393 284.772 193.343 284.823 193.281 284.823Z" fill="#263238"/>
<path d="M194.379 284.189C194.317 284.189 194.267 284.139 194.267 284.077V272.553C194.267 272.491 194.317 272.441 194.379 272.441C194.441 272.441 194.491 272.491 194.491 272.553V284.077C194.491 284.138 194.441 284.189 194.379 284.189Z" fill="#263238"/>
<path d="M195.477 283.554C195.415 283.554 195.365 283.504 195.365 283.442V271.918C195.365 271.856 195.415 271.806 195.477 271.806C195.539 271.806 195.589 271.856 195.589 271.918V283.442C195.59 283.504 195.54 283.554 195.477 283.554Z" fill="#263238"/>
<path d="M196.576 282.92C196.514 282.92 196.464 282.87 196.464 282.808V271.284C196.464 271.222 196.514 271.172 196.576 271.172C196.638 271.172 196.688 271.222 196.688 271.284V282.808C196.689 282.87 196.638 282.92 196.576 282.92Z" fill="#263238"/>
<path d="M197.674 282.286C197.612 282.286 197.562 282.236 197.562 282.174V270.65C197.562 270.588 197.612 270.538 197.674 270.538C197.736 270.538 197.786 270.588 197.786 270.65V282.174C197.787 282.235 197.736 282.286 197.674 282.286Z" fill="#263238"/>
<path d="M198.773 281.651C198.711 281.651 198.661 281.601 198.661 281.539V270.014C198.661 269.952 198.711 269.902 198.773 269.902C198.835 269.902 198.885 269.952 198.885 270.014V281.539C198.885 281.601 198.835 281.651 198.773 281.651Z" fill="#263238"/>
<path d="M199.872 281.017C199.81 281.017 199.76 280.967 199.76 280.905V269.38C199.76 269.318 199.81 269.268 199.872 269.268C199.934 269.268 199.984 269.318 199.984 269.38V280.904C199.984 280.967 199.934 281.017 199.872 281.017Z" fill="#263238"/>
<path d="M200.97 280.383C200.908 280.383 200.858 280.333 200.858 280.271V268.747C200.858 268.685 200.908 268.635 200.97 268.635C201.032 268.635 201.082 268.685 201.082 268.747V280.271C201.082 280.332 201.032 280.383 200.97 280.383Z" fill="#263238"/>
<path d="M202.068 279.749C202.006 279.749 201.956 279.699 201.956 279.637V268.113C201.956 268.051 202.006 268.001 202.068 268.001C202.13 268.001 202.18 268.051 202.18 268.113V279.637C202.181 279.698 202.13 279.749 202.068 279.749Z" fill="#263238"/>
<path d="M203.167 279.114C203.105 279.114 203.055 279.064 203.055 279.002V267.477C203.055 267.415 203.105 267.365 203.167 267.365C203.229 267.365 203.279 267.415 203.279 267.477V279.002C203.279 279.064 203.229 279.114 203.167 279.114Z" fill="#263238"/>
<path d="M204.265 278.48C204.203 278.48 204.153 278.43 204.153 278.368V266.844C204.153 266.782 204.203 266.732 204.265 266.732C204.327 266.732 204.377 266.782 204.377 266.844V278.368C204.377 278.43 204.327 278.48 204.265 278.48Z" fill="#263238"/>
<path d="M205.364 277.846C205.302 277.846 205.252 277.796 205.252 277.734V266.21C205.252 266.148 205.302 266.098 205.364 266.098C205.426 266.098 205.476 266.148 205.476 266.21V277.734C205.476 277.795 205.426 277.846 205.364 277.846Z" fill="#263238"/>
<path d="M206.462 277.211C206.4 277.211 206.35 277.161 206.35 277.099V265.575C206.35 265.513 206.4 265.463 206.462 265.463C206.524 265.463 206.574 265.513 206.574 265.575V277.099C206.575 277.161 206.524 277.211 206.462 277.211Z" fill="#263238"/>
<path d="M207.561 276.577C207.499 276.577 207.449 276.527 207.449 276.465V264.94C207.449 264.878 207.499 264.828 207.561 264.828C207.623 264.828 207.673 264.878 207.673 264.94V276.464C207.673 276.527 207.623 276.577 207.561 276.577Z" fill="#263238"/>
<path d="M208.659 275.943C208.597 275.943 208.547 275.893 208.547 275.831V264.307C208.547 264.245 208.597 264.195 208.659 264.195C208.721 264.195 208.771 264.245 208.771 264.307V275.831C208.771 275.893 208.721 275.943 208.659 275.943Z" fill="#263238"/>
<path d="M209.758 275.309C209.696 275.309 209.646 275.259 209.646 275.197V263.673C209.646 263.611 209.696 263.561 209.758 263.561C209.82 263.561 209.87 263.611 209.87 263.673V275.197C209.87 275.258 209.82 275.309 209.758 275.309Z" fill="#263238"/>
<path d="M210.856 274.674C210.794 274.674 210.744 274.624 210.744 274.562V263.038C210.744 262.976 210.794 262.926 210.856 262.926C210.918 262.926 210.968 262.976 210.968 263.038V274.562C210.969 274.624 210.919 274.674 210.856 274.674Z" fill="#263238"/>
<path d="M211.955 274.04C211.893 274.04 211.843 273.99 211.843 273.928V262.404C211.843 262.342 211.893 262.292 211.955 262.292C212.017 262.292 212.067 262.342 212.067 262.404V273.928C212.067 273.99 212.017 274.04 211.955 274.04Z" fill="#263238"/>
<path d="M213.053 273.406C212.991 273.406 212.941 273.356 212.941 273.294V261.77C212.941 261.708 212.991 261.658 213.053 261.658C213.115 261.658 213.165 261.708 213.165 261.77V273.294C213.165 273.355 213.115 273.406 213.053 273.406Z" fill="#263238"/>
<path d="M214.151 272.772C214.089 272.772 214.039 272.722 214.039 272.66V261.136C214.039 261.074 214.089 261.024 214.151 261.024C214.213 261.024 214.263 261.074 214.263 261.136V272.66C214.264 272.721 214.213 272.772 214.151 272.772Z" fill="#263238"/>
<path d="M215.25 272.137C215.188 272.137 215.138 272.087 215.138 272.025V260.5C215.138 260.438 215.188 260.388 215.25 260.388C215.312 260.388 215.362 260.438 215.362 260.5V272.024C215.362 272.087 215.312 272.137 215.25 272.137Z" fill="#263238"/>
<path d="M216.349 271.503C216.287 271.503 216.237 271.453 216.237 271.391V259.867C216.237 259.805 216.287 259.755 216.349 259.755C216.411 259.755 216.461 259.805 216.461 259.867V271.391C216.461 271.453 216.411 271.503 216.349 271.503Z" fill="#263238"/>
<path d="M217.447 270.868C217.385 270.868 217.335 270.818 217.335 270.756V259.232C217.335 259.17 217.385 259.12 217.447 259.12C217.509 259.12 217.559 259.17 217.559 259.232V270.756C217.559 270.818 217.509 270.868 217.447 270.868Z" fill="#263238"/>
<path d="M218.545 270.234C218.483 270.234 218.433 270.184 218.433 270.122V258.598C218.433 258.536 218.483 258.486 218.545 258.486C218.607 258.486 218.657 258.536 218.657 258.598V270.122C218.658 270.184 218.607 270.234 218.545 270.234Z" fill="#263238"/>
<path d="M219.644 269.6C219.582 269.6 219.532 269.55 219.532 269.488V257.964C219.532 257.902 219.582 257.852 219.644 257.852C219.706 257.852 219.756 257.902 219.756 257.964V269.488C219.756 269.549 219.706 269.6 219.644 269.6Z" fill="#263238"/>
<path d="M220.743 268.965C220.681 268.965 220.631 268.915 220.631 268.853V257.329C220.631 257.267 220.681 257.217 220.743 257.217C220.805 257.217 220.855 257.267 220.855 257.329V268.853C220.855 268.915 220.805 268.965 220.743 268.965Z" fill="#263238"/>
<path d="M221.841 268.331C221.779 268.331 221.729 268.281 221.729 268.219V256.695C221.729 256.633 221.779 256.583 221.841 256.583C221.903 256.583 221.953 256.633 221.953 256.695V268.219C221.953 268.281 221.903 268.331 221.841 268.331Z" fill="#263238"/>
<path d="M222.939 267.697C222.877 267.697 222.827 267.647 222.827 267.585V256.06C222.827 255.998 222.877 255.948 222.939 255.948C223.001 255.948 223.051 255.998 223.051 256.06V267.584C223.052 267.647 223.001 267.697 222.939 267.697Z" fill="#263238"/>
<path d="M224.038 267.063C223.976 267.063 223.926 267.013 223.926 266.951V255.427C223.926 255.365 223.976 255.315 224.038 255.315C224.1 255.315 224.15 255.365 224.15 255.427V266.951C224.15 267.012 224.1 267.063 224.038 267.063Z" fill="#263238"/>
<path d="M225.136 266.428C225.074 266.428 225.024 266.378 225.024 266.316V254.792C225.024 254.73 225.074 254.68 225.136 254.68C225.198 254.68 225.248 254.73 225.248 254.792V266.316C225.249 266.378 225.198 266.428 225.136 266.428Z" fill="#263238"/>
<path d="M226.235 265.794C226.173 265.794 226.123 265.744 226.123 265.682V254.158C226.123 254.096 226.173 254.046 226.235 254.046C226.297 254.046 226.347 254.096 226.347 254.158V265.682C226.347 265.744 226.297 265.794 226.235 265.794Z" fill="#263238"/>
<path d="M227.333 265.16C227.271 265.16 227.221 265.11 227.221 265.048V253.524C227.221 253.462 227.271 253.412 227.333 253.412C227.395 253.412 227.445 253.462 227.445 253.524V265.048C227.446 265.109 227.395 265.16 227.333 265.16Z" fill="#263238"/>
<path d="M228.432 264.525C228.37 264.525 228.32 264.475 228.32 264.413V252.889C228.32 252.827 228.37 252.777 228.432 252.777C228.494 252.777 228.544 252.827 228.544 252.889V264.413C228.544 264.475 228.494 264.525 228.432 264.525Z" fill="#263238"/>
<path d="M229.53 263.891C229.468 263.891 229.418 263.841 229.418 263.779V252.255C229.418 252.193 229.468 252.143 229.53 252.143C229.592 252.143 229.642 252.193 229.642 252.255V263.779C229.643 263.841 229.592 263.891 229.53 263.891Z" fill="#263238"/>
<path d="M230.628 263.257C230.566 263.257 230.516 263.207 230.516 263.145V251.621C230.516 251.559 230.566 251.509 230.628 251.509C230.69 251.509 230.74 251.559 230.74 251.621V263.145C230.741 263.207 230.69 263.257 230.628 263.257Z" fill="#263238"/>
<path d="M231.727 262.623C231.665 262.623 231.615 262.573 231.615 262.511V250.987C231.615 250.925 231.665 250.875 231.727 250.875C231.789 250.875 231.839 250.925 231.839 250.987V262.511C231.839 262.572 231.789 262.623 231.727 262.623Z" fill="#263238"/>
<path d="M232.826 261.988C232.764 261.988 232.714 261.938 232.714 261.876V250.352C232.714 250.29 232.764 250.24 232.826 250.24C232.888 250.24 232.938 250.29 232.938 250.352V261.876C232.938 261.938 232.888 261.988 232.826 261.988Z" fill="#263238"/>
<path d="M233.924 261.354C233.862 261.354 233.812 261.304 233.812 261.242V249.718C233.812 249.656 233.862 249.606 233.924 249.606C233.986 249.606 234.036 249.656 234.036 249.718V261.242C234.036 261.304 233.986 261.354 233.924 261.354Z" fill="#263238"/>
<path d="M235.023 260.72C234.961 260.72 234.911 260.67 234.911 260.608V249.084C234.911 249.022 234.961 248.972 235.023 248.972C235.085 248.972 235.135 249.022 235.135 249.084V260.608C235.135 260.669 235.085 260.72 235.023 260.72Z" fill="#263238"/>
<path d="M236.121 260.085C236.059 260.085 236.009 260.035 236.009 259.973V248.449C236.009 248.387 236.059 248.337 236.121 248.337C236.183 248.337 236.233 248.387 236.233 248.449V259.973C236.233 260.035 236.183 260.085 236.121 260.085Z" fill="#263238"/>
<path d="M237.22 259.451C237.158 259.451 237.108 259.401 237.108 259.339V247.815C237.108 247.753 237.158 247.703 237.22 247.703C237.282 247.703 237.332 247.753 237.332 247.815V259.339C237.332 259.401 237.282 259.451 237.22 259.451Z" fill="#263238"/>
<path d="M238.318 258.817C238.256 258.817 238.206 258.767 238.206 258.705V247.18C238.206 247.118 238.256 247.068 238.318 247.068C238.38 247.068 238.43 247.118 238.43 247.18V258.704C238.43 258.767 238.38 258.817 238.318 258.817Z" fill="#263238"/>
<path d="M239.417 258.183C239.355 258.183 239.305 258.133 239.305 258.071V246.547C239.305 246.485 239.355 246.435 239.417 246.435C239.479 246.435 239.529 246.485 239.529 246.547V258.071C239.529 258.132 239.479 258.183 239.417 258.183Z" fill="#263238"/>
<path d="M240.515 257.548C240.453 257.548 240.403 257.498 240.403 257.436V245.912C240.403 245.85 240.453 245.8 240.515 245.8C240.577 245.8 240.627 245.85 240.627 245.912V257.436C240.627 257.498 240.577 257.548 240.515 257.548Z" fill="#263238"/>
<path d="M241.613 256.914C241.551 256.914 241.501 256.864 241.501 256.802V245.278C241.501 245.216 241.551 245.166 241.613 245.166C241.675 245.166 241.725 245.216 241.725 245.278V256.802C241.726 256.864 241.675 256.914 241.613 256.914Z" fill="#263238"/>
<path d="M242.712 256.28C242.65 256.28 242.6 256.23 242.6 256.168V244.644C242.6 244.582 242.65 244.532 242.712 244.532C242.774 244.532 242.824 244.582 242.824 244.644V256.168C242.824 256.229 242.774 256.28 242.712 256.28Z" fill="#263238"/>
<path d="M243.811 255.645C243.749 255.645 243.699 255.595 243.699 255.533V244.009C243.699 243.947 243.749 243.897 243.811 243.897C243.873 243.897 243.923 243.947 243.923 244.009V255.533C243.923 255.595 243.873 255.645 243.811 255.645Z" fill="#263238"/>
<path d="M244.909 255.011C244.847 255.011 244.797 254.961 244.797 254.899V243.375C244.797 243.313 244.847 243.263 244.909 243.263C244.971 243.263 245.021 243.313 245.021 243.375V254.899C245.021 254.961 244.971 255.011 244.909 255.011Z" fill="#263238"/>
<path d="M246.007 254.377C245.945 254.377 245.895 254.327 245.895 254.265V242.74C245.895 242.678 245.945 242.628 246.007 242.628C246.069 242.628 246.119 242.678 246.119 242.74V254.264C246.12 254.327 246.069 254.377 246.007 254.377Z" fill="#263238"/>
<path d="M247.106 253.743C247.044 253.743 246.994 253.693 246.994 253.631V242.107C246.994 242.045 247.044 241.995 247.106 241.995C247.168 241.995 247.218 242.045 247.218 242.107V253.631C247.218 253.692 247.168 253.743 247.106 253.743Z" fill="#263238"/>
<path d="M248.204 253.108C248.142 253.108 248.092 253.058 248.092 252.996V241.472C248.092 241.41 248.142 241.36 248.204 241.36C248.266 241.36 248.316 241.41 248.316 241.472V252.996C248.316 253.058 248.266 253.108 248.204 253.108Z" fill="#263238"/>
<path d="M249.303 252.474C249.241 252.474 249.191 252.424 249.191 252.362V240.838C249.191 240.776 249.241 240.726 249.303 240.726C249.365 240.726 249.415 240.776 249.415 240.838V252.362C249.415 252.424 249.365 252.474 249.303 252.474Z" fill="#263238"/>
<path d="M250.401 251.84C250.339 251.84 250.289 251.79 250.289 251.728V240.204C250.289 240.142 250.339 240.092 250.401 240.092C250.463 240.092 250.513 240.142 250.513 240.204V251.728C250.513 251.79 250.463 251.84 250.401 251.84Z" fill="#263238"/>
<path d="M251.5 251.206C251.437 251.206 251.388 251.156 251.388 251.094V239.569C251.388 239.507 251.438 239.457 251.5 239.457C251.562 239.457 251.612 239.507 251.612 239.569V251.094C251.612 251.155 251.563 251.206 251.5 251.206Z" fill="#263238"/>
<path d="M252.598 250.571C252.535 250.571 252.486 250.521 252.486 250.459V238.935C252.486 238.873 252.536 238.823 252.598 238.823C252.66 238.823 252.71 238.873 252.71 238.935V250.459C252.71 250.521 252.66 250.571 252.598 250.571Z" fill="#263238"/>
<path d="M253.696 249.936C253.633 249.936 253.584 249.886 253.584 249.824V238.3C253.584 238.238 253.634 238.188 253.696 238.188C253.758 238.188 253.808 238.238 253.808 238.3V249.824C253.809 249.886 253.759 249.936 253.696 249.936Z" fill="#263238"/>
<path d="M254.795 249.302C254.732 249.302 254.683 249.252 254.683 249.19V237.666C254.683 237.604 254.733 237.554 254.795 237.554C254.857 237.554 254.907 237.604 254.907 237.666V249.19C254.907 249.252 254.857 249.302 254.795 249.302Z" fill="#263238"/>
<path d="M255.894 248.668C255.831 248.668 255.782 248.618 255.782 248.556V237.032C255.782 236.97 255.832 236.92 255.894 236.92C255.956 236.92 256.006 236.97 256.006 237.032V248.556C256.006 248.618 255.956 248.668 255.894 248.668Z" fill="#263238"/>
<path d="M256.992 248.034C256.929 248.034 256.88 247.984 256.88 247.922V236.398C256.88 236.336 256.93 236.286 256.992 236.286C257.054 236.286 257.104 236.336 257.104 236.398V247.922C257.104 247.983 257.055 248.034 256.992 248.034Z" fill="#263238"/>
<path d="M258.091 247.399C258.028 247.399 257.979 247.349 257.979 247.287V235.763C257.979 235.701 258.029 235.651 258.091 235.651C258.153 235.651 258.203 235.701 258.203 235.763V247.287C258.203 247.349 258.153 247.399 258.091 247.399Z" fill="#263238"/>
<path d="M259.189 246.765C259.126 246.765 259.077 246.715 259.077 246.653V235.129C259.077 235.067 259.127 235.017 259.189 235.017C259.251 235.017 259.301 235.067 259.301 235.129V246.653C259.301 246.715 259.251 246.765 259.189 246.765Z" fill="#263238"/>
<path d="M260.287 246.131C260.224 246.131 260.175 246.081 260.175 246.019V234.495C260.175 234.433 260.225 234.383 260.287 234.383C260.349 234.383 260.399 234.433 260.399 234.495V246.019C260.399 246.081 260.35 246.131 260.287 246.131Z" fill="#263238"/>
<path d="M261.386 245.497C261.323 245.497 261.274 245.447 261.274 245.385V233.86C261.274 233.798 261.324 233.748 261.386 233.748C261.448 233.748 261.498 233.798 261.498 233.86V245.384C261.498 245.446 261.448 245.497 261.386 245.497Z" fill="#263238"/>
<path d="M262.484 244.862C262.421 244.862 262.372 244.812 262.372 244.75V233.226C262.372 233.164 262.422 233.114 262.484 233.114C262.546 233.114 262.596 233.164 262.596 233.226V244.75C262.597 244.812 262.547 244.862 262.484 244.862Z" fill="#263238"/>
<path d="M263.583 244.228C263.52 244.228 263.471 244.178 263.471 244.116V232.592C263.471 232.53 263.521 232.48 263.583 232.48C263.645 232.48 263.695 232.53 263.695 232.592V244.116C263.695 244.178 263.646 244.228 263.583 244.228Z" fill="#263238"/>
<path d="M264.682 243.594C264.619 243.594 264.57 243.544 264.57 243.482V231.958C264.57 231.896 264.62 231.846 264.682 231.846C264.744 231.846 264.794 231.896 264.794 231.958V243.482C264.794 243.544 264.744 243.594 264.682 243.594Z" fill="#263238"/>
<path d="M265.779 242.96C265.716 242.96 265.667 242.91 265.667 242.848V231.324C265.667 231.262 265.717 231.212 265.779 231.212C265.841 231.212 265.891 231.262 265.891 231.324V242.848C265.892 242.909 265.842 242.96 265.779 242.96Z" fill="#263238"/>
<path d="M266.878 242.325C266.815 242.325 266.766 242.275 266.766 242.213V230.689C266.766 230.627 266.816 230.577 266.878 230.577C266.94 230.577 266.99 230.627 266.99 230.689V242.213C266.99 242.275 266.94 242.325 266.878 242.325Z" fill="#263238"/>
<path d="M267.977 241.691C267.914 241.691 267.865 241.641 267.865 241.579V230.055C267.865 229.993 267.915 229.943 267.977 229.943C268.039 229.943 268.089 229.993 268.089 230.055V241.579C268.089 241.641 268.039 241.691 267.977 241.691Z" fill="#263238"/>
<path d="M269.075 241.057C269.012 241.057 268.963 241.007 268.963 240.945V229.42C268.963 229.358 269.013 229.308 269.075 229.308C269.137 229.308 269.187 229.358 269.187 229.42V240.944C269.188 241.006 269.138 241.057 269.075 241.057Z" fill="#263238"/>
<path d="M270.174 240.422C270.111 240.422 270.062 240.372 270.062 240.31V228.785C270.062 228.723 270.112 228.673 270.174 228.673C270.236 228.673 270.286 228.723 270.286 228.785V240.31C270.286 240.372 270.236 240.422 270.174 240.422Z" fill="#263238"/>
<path d="M271.272 239.788C271.209 239.788 271.16 239.738 271.16 239.676V228.152C271.16 228.09 271.21 228.04 271.272 228.04C271.334 228.04 271.384 228.09 271.384 228.152V239.676C271.385 239.738 271.335 239.788 271.272 239.788Z" fill="#263238"/>
<path d="M272.37 239.154C272.307 239.154 272.258 239.104 272.258 239.042V227.518C272.258 227.456 272.308 227.406 272.37 227.406C272.432 227.406 272.482 227.456 272.482 227.518V239.042C272.482 239.104 272.433 239.154 272.37 239.154Z" fill="#263238"/>
<path d="M273.469 238.52C273.406 238.52 273.357 238.47 273.357 238.408V226.884C273.357 226.822 273.407 226.772 273.469 226.772C273.531 226.772 273.581 226.822 273.581 226.884V238.408C273.581 238.469 273.531 238.52 273.469 238.52Z" fill="#263238"/>
<path d="M274.567 237.885C274.504 237.885 274.455 237.835 274.455 237.773V226.249C274.455 226.187 274.505 226.137 274.567 226.137C274.629 226.137 274.679 226.187 274.679 226.249V237.773C274.68 237.835 274.63 237.885 274.567 237.885Z" fill="#263238"/>
<path d="M275.666 237.251C275.603 237.251 275.554 237.201 275.554 237.139V225.615C275.554 225.553 275.604 225.503 275.666 225.503C275.728 225.503 275.778 225.553 275.778 225.615V237.139C275.778 237.201 275.728 237.251 275.666 237.251Z" fill="#263238"/>
<path d="M276.765 236.617C276.702 236.617 276.653 236.567 276.653 236.505V224.98C276.653 224.918 276.703 224.868 276.765 224.868C276.827 224.868 276.877 224.918 276.877 224.98V236.504C276.877 236.566 276.827 236.617 276.765 236.617Z" fill="#263238"/>
<path d="M277.863 235.982C277.8 235.982 277.751 235.932 277.751 235.87V224.346C277.751 224.284 277.801 224.234 277.863 224.234C277.925 224.234 277.975 224.284 277.975 224.346V235.87C277.976 235.932 277.926 235.982 277.863 235.982Z" fill="#263238"/>
<path d="M278.961 235.348C278.898 235.348 278.849 235.298 278.849 235.236V223.712C278.849 223.65 278.899 223.6 278.961 223.6C279.023 223.6 279.073 223.65 279.073 223.712V235.236C279.073 235.298 279.023 235.348 278.961 235.348Z" fill="#263238"/>
<path d="M280.06 234.714C279.997 234.714 279.948 234.664 279.948 234.602V223.078C279.948 223.016 279.998 222.966 280.06 222.966C280.122 222.966 280.172 223.016 280.172 223.078V234.602C280.172 234.664 280.122 234.714 280.06 234.714Z" fill="#263238"/>
<path d="M281.158 234.08C281.095 234.08 281.046 234.03 281.046 233.968V222.444C281.046 222.382 281.096 222.332 281.158 222.332C281.22 222.332 281.27 222.382 281.27 222.444V233.968C281.271 234.029 281.221 234.08 281.158 234.08Z" fill="#263238"/>
<path d="M282.257 233.445C282.194 233.445 282.145 233.395 282.145 233.333V221.809C282.145 221.747 282.195 221.697 282.257 221.697C282.319 221.697 282.369 221.747 282.369 221.809V233.333C282.369 233.395 282.319 233.445 282.257 233.445Z" fill="#263238"/>
<path d="M283.355 232.811C283.292 232.811 283.243 232.761 283.243 232.699V221.175C283.243 221.113 283.293 221.063 283.355 221.063C283.417 221.063 283.467 221.113 283.467 221.175V232.699C283.468 232.761 283.418 232.811 283.355 232.811Z" fill="#263238"/>
<path d="M284.454 232.177C284.391 232.177 284.342 232.127 284.342 232.065V220.54C284.342 220.478 284.392 220.428 284.454 220.428C284.516 220.428 284.566 220.478 284.566 220.54V232.065C284.566 232.126 284.517 232.177 284.454 232.177Z" fill="#263238"/>
<path d="M285.552 231.542C285.489 231.542 285.44 231.492 285.44 231.43V219.906C285.44 219.844 285.49 219.794 285.552 219.794C285.614 219.794 285.664 219.844 285.664 219.906V231.43C285.664 231.492 285.614 231.542 285.552 231.542Z" fill="#263238"/>
<path d="M286.65 230.908C286.587 230.908 286.538 230.858 286.538 230.796V219.272C286.538 219.21 286.588 219.16 286.65 219.16C286.712 219.16 286.762 219.21 286.762 219.272V230.796C286.763 230.858 286.713 230.908 286.65 230.908Z" fill="#263238"/>
<path d="M287.749 230.274C287.686 230.274 287.637 230.224 287.637 230.162V218.638C287.637 218.576 287.687 218.526 287.749 218.526C287.811 218.526 287.861 218.576 287.861 218.638V230.162C287.861 230.224 287.811 230.274 287.749 230.274Z" fill="#263238"/>
<path d="M288.848 229.64C288.785 229.64 288.736 229.59 288.736 229.528V218.004C288.736 217.942 288.786 217.892 288.848 217.892C288.91 217.892 288.96 217.942 288.96 218.004V229.528C288.96 229.589 288.91 229.64 288.848 229.64Z" fill="#263238"/>
<path d="M289.946 229.005C289.883 229.005 289.834 228.955 289.834 228.893V217.369C289.834 217.307 289.884 217.257 289.946 217.257C290.008 217.257 290.058 217.307 290.058 217.369V228.893C290.059 228.955 290.009 229.005 289.946 229.005Z" fill="#263238"/>
<path d="M291.045 228.371C290.982 228.371 290.933 228.321 290.933 228.259V216.735C290.933 216.673 290.983 216.623 291.045 216.623C291.107 216.623 291.157 216.673 291.157 216.735V228.259C291.157 228.321 291.107 228.371 291.045 228.371Z" fill="#263238"/>
<path d="M292.144 227.736C292.081 227.736 292.032 227.686 292.032 227.624V216.1C292.032 216.038 292.082 215.988 292.144 215.988C292.206 215.988 292.256 216.038 292.256 216.1V227.624C292.256 227.686 292.206 227.736 292.144 227.736Z" fill="#263238"/>
<path d="M293.241 227.102C293.178 227.102 293.129 227.052 293.129 226.99V215.466C293.129 215.404 293.179 215.354 293.241 215.354C293.303 215.354 293.353 215.404 293.353 215.466V226.99C293.353 227.052 293.304 227.102 293.241 227.102Z" fill="#263238"/>
<path d="M294.34 226.468C294.277 226.468 294.228 226.418 294.228 226.356V214.832C294.228 214.77 294.278 214.72 294.34 214.72C294.402 214.72 294.452 214.77 294.452 214.832V226.356C294.452 226.417 294.402 226.468 294.34 226.468Z" fill="#263238"/>
<path d="M295.439 225.833C295.376 225.833 295.327 225.783 295.327 225.721V214.197C295.327 214.135 295.377 214.085 295.439 214.085C295.501 214.085 295.551 214.135 295.551 214.197V225.721C295.551 225.783 295.501 225.833 295.439 225.833Z" fill="#263238"/>
<path d="M296.537 225.199C296.474 225.199 296.425 225.149 296.425 225.087V213.563C296.425 213.501 296.475 213.451 296.537 213.451C296.599 213.451 296.649 213.501 296.649 213.563V225.087C296.649 225.149 296.6 225.199 296.537 225.199Z" fill="#263238"/>
<path d="M297.636 224.565C297.573 224.565 297.524 224.515 297.524 224.453V212.929C297.524 212.867 297.574 212.817 297.636 212.817C297.698 212.817 297.748 212.867 297.748 212.929V224.453C297.748 224.515 297.698 224.565 297.636 224.565Z" fill="#263238"/>
<path d="M298.733 223.931C298.67 223.931 298.621 223.881 298.621 223.819V212.295C298.621 212.233 298.671 212.183 298.733 212.183C298.795 212.183 298.845 212.233 298.845 212.295V223.819C298.846 223.88 298.796 223.931 298.733 223.931Z" fill="#263238"/>
<path d="M299.832 223.296C299.769 223.296 299.72 223.246 299.72 223.184V211.66C299.72 211.598 299.77 211.548 299.832 211.548C299.894 211.548 299.944 211.598 299.944 211.66V223.184C299.944 223.246 299.895 223.296 299.832 223.296Z" fill="#263238"/>
<path d="M300.931 222.662C300.868 222.662 300.819 222.612 300.819 222.55V211.026C300.819 210.964 300.869 210.914 300.931 210.914C300.993 210.914 301.043 210.964 301.043 211.026V222.55C301.043 222.612 300.993 222.662 300.931 222.662Z" fill="#263238"/>
<path d="M302.029 222.028C301.966 222.028 301.917 221.978 301.917 221.916V210.392C301.917 210.33 301.967 210.28 302.029 210.28C302.091 210.28 302.141 210.33 302.141 210.392V221.916C302.142 221.977 302.092 222.028 302.029 222.028Z" fill="#263238"/>
<path d="M303.128 221.394C303.065 221.394 303.016 221.344 303.016 221.282V209.758C303.016 209.696 303.066 209.646 303.128 209.646C303.19 209.646 303.24 209.696 303.24 209.758V221.282C303.24 221.343 303.19 221.394 303.128 221.394Z" fill="#263238"/>
<path d="M179.426 279.294V281.182L303.128 209.757V207.869L179.426 279.294Z" fill="#FAFAFA"/>
<path d="M185.049 303.873L183.455 302.952L181.862 302.031L181.027 302.514V293.223L179.433 292.302L179.419 292.31V279.303L177.826 278.382L176.218 279.308V296.014L177.812 296.935L177.825 296.928L177.826 306.22L179.419 307.14L185.049 303.873Z" fill="#263238"/>
<path d="M181.027 304.357V293.223L179.419 294.151V279.303L177.812 280.229V296.935L179.419 296.007V307.141L185.049 303.873L183.455 302.952L181.027 304.357Z" fill="#37474F"/>
<path d="M177.812 280.229L179.419 279.303L177.826 278.382L176.218 279.308L177.812 280.229Z" fill="#455A64"/>
<path d="M428.467 285.854C430.012 293.388 430.665 297.812 424.87 304.96C419.074 312.108 392.643 330.359 392.643 330.359C392.643 330.359 394.312 332.161 395.593 336.519C397.154 341.826 397.065 361.451 397.713 370.631C397.011 374.064 390.482 375.805 388.011 371.441C388.011 371.441 379.625 341.685 377 333.957C374.375 326.23 373.863 324.684 378.659 318.502C383.455 312.32 402.436 292.054 401.846 286.358L428.467 285.854Z" fill="#B16668"/>
<path d="M400.573 379.953C400.573 379.953 400.688 381.31 400.282 382.124C399.876 382.938 396.905 384.058 394.204 383.968C391.503 383.877 386.885 382.716 384.575 382.949C382.265 383.182 379.749 384.147 376.011 383.7C372.273 383.253 368.958 382.267 368.658 380.409C368.359 378.551 385.026 378.372 392.02 378.807C399.016 379.242 400.573 379.953 400.573 379.953Z" fill="#EBEBEB"/>
<path d="M397.602 368.819C398.944 369.059 398.525 370.045 399.189 372.375C399.853 374.705 400.869 376.72 400.573 379.954C399.607 381.696 396.112 382.543 392.03 382.077C387.948 381.611 383.297 381.883 380.126 382.679C376.955 383.475 369.366 381.807 368.657 380.409C367.949 379.012 368.41 377.221 369.64 376.328C370.87 375.435 375.898 375.185 379.883 373.205C383.402 371.457 385.619 370.009 386.109 368.668C386.602 367.317 387.612 367.455 388.098 368.552C388.43 369.301 388.072 370.359 388.072 370.359C388.072 370.359 389.656 370.685 390.258 371.053C390.86 371.421 391.381 372.386 392.01 372.552C392.639 372.718 392.866 371.202 393.95 370.615C395.034 370.028 397.646 369.849 397.646 369.849L397.602 368.819Z" fill="#455A64"/>
<path d="M375.499 374.757L375.5 374.755C376.951 374.383 378.481 373.903 379.885 373.206C383.404 371.457 385.621 370.01 386.111 368.669C386.604 367.318 387.614 367.456 388.1 368.553C388.35 369.116 388.209 369.854 388.124 370.186C387.355 371.533 386.35 372.259 384.317 373.235C382.283 374.212 377.163 376.33 375.685 376.361C374.204 376.392 374.901 375.526 375.499 374.757Z" fill="#76858F"/>
<path d="M368.53 381.268C369.208 382.527 371.296 383.602 375.119 384.255C378.942 384.907 382.89 383.941 384.215 383.618C385.539 383.295 387.574 383.867 391.407 384.568C395.24 385.269 399.141 384.062 399.87 383.505C400.599 382.948 400.283 382.125 400.283 382.125C399.877 382.939 396.906 384.06 394.205 383.969C391.504 383.879 386.886 382.717 384.576 382.95C382.266 383.183 379.75 384.148 376.012 383.701C373.476 383.398 371.138 382.845 369.801 381.942C369.207 381.018 369.384 379.747 369.458 379.194C369.532 378.64 368.837 377.898 368.659 377.533C368.234 377.606 367.851 380.009 368.53 381.268Z" fill="#263238"/>
<path d="M385.152 369.968C385.095 370.078 384.854 370.231 384.854 370.231C384.076 371.983 384.357 373.692 384.357 373.692C384.357 373.692 383.845 374.186 383.13 374.357C383.13 374.357 382.731 372.562 383.516 371.2C383.516 371.2 384.094 370.026 385.152 369.968Z" fill="#37474F"/>
<path d="M381.627 372.304C381.241 373.087 381.291 374.814 381.291 374.814C381.291 374.814 380.53 375.419 380.017 375.35C380.119 374.242 380.121 373.212 380.607 372.556C381.093 371.9 382.002 371.706 382.199 371.989L381.627 372.304Z" fill="#37474F"/>
<path d="M378.948 373.628C378.507 374.382 378.435 376.108 378.435 376.108C378.435 376.108 377.633 376.657 377.126 376.552C377.307 375.454 377.381 374.427 377.912 373.806C378.443 373.186 379.366 373.072 379.543 373.369L378.948 373.628Z" fill="#37474F"/>
<path d="M392.364 382.108C393.196 381.294 393.613 379.901 393.97 378.811C394.721 376.517 397.231 374.507 400.031 375.069C400.446 376.477 400.752 377.99 400.573 379.953C399.634 381.648 396.301 382.491 392.364 382.108Z" fill="#76858F"/>
<path d="M438.631 273.841C441.273 282.226 442.194 286.936 440.121 296.18C438.71 302.474 434.303 320.362 434.303 320.362C434.303 320.362 437.828 323.207 440.614 329.405C442.964 334.633 444.324 339.825 445.834 346.006C448.171 355.571 449.188 358.167 449.188 358.167C449.188 358.167 446.269 360.288 443.142 360.497C440.015 360.706 440.086 358.843 439.439 357.033C438.402 354.133 438.147 353.314 435.997 350.199C430.225 341.834 423.923 333.062 420.319 327.987C417.141 323.512 416.605 321.932 417.501 311.254C418.432 300.16 419.545 284.322 419.545 284.322L438.631 273.841Z" fill="#B16668"/>
<path d="M451.352 365.263C451.41 366.303 450.791 367.075 448.31 367.553C445.829 368.03 442.788 367.485 440.765 366.331C438.742 365.177 437.607 364.875 436.067 364.991C434.527 365.107 430.791 364.329 429.409 363.342C428.028 362.355 426.969 360.499 426.967 359.192C426.965 357.885 426.898 356.529 427.937 356.43C428.978 356.331 451.352 365.263 451.352 365.263Z" fill="#263238"/>
<path d="M451.392 363.977C451.473 365.073 451.49 365.296 450.96 365.71C450.43 366.124 447.782 367.26 444.606 366.863C441.43 366.466 440.001 364.888 438.145 364.616C436.29 364.344 433.313 365.093 430.182 363.307C427.052 361.521 427.389 359.247 427.357 358.614L451.392 363.977Z" fill="#EBEBEB"/>
<path d="M448.363 353.181C448.325 353.162 448.286 353.146 448.246 353.13C447.127 352.695 445.96 352.942 444.81 353.152C443.589 353.375 442.297 353.776 441.555 354.771C441.216 355.226 441.021 355.769 440.768 356.277C440.706 356.402 440.618 356.541 440.479 356.553C440.4 356.56 440.325 356.522 440.255 356.484C440.008 356.348 439.774 356.19 439.556 356.011C439.398 355.881 439.246 355.74 439.063 355.649C438.719 355.478 438.437 355.632 438.102 355.728C436.765 356.112 435.099 355.995 433.711 355.996C429.332 356 429.237 355.851 428.302 356.209C427.366 356.567 427.133 357.839 427.462 359.017C427.791 360.195 428.323 361.89 431.662 363.082C435 364.274 437.413 362.873 441.847 364.987C442.746 365.416 444.863 365.788 445.994 365.664C447.924 365.452 450.23 365 451.391 363.975C452.032 361.395 450.632 358.642 449.723 356.5C449.469 355.903 449.245 355.294 449.037 354.68C448.896 354.263 448.812 353.602 448.496 353.273C448.458 353.236 448.412 353.206 448.363 353.181Z" fill="#455A64"/>
<path d="M442.945 363.745C443.669 362.873 443.255 361.667 444.375 360.109C445.493 358.551 448.613 357.698 450.539 358.416C451.251 360.164 451.854 362.114 451.391 363.977C450.231 365.001 447.925 365.454 445.994 365.666C444.863 365.79 442.746 365.418 441.847 364.989C441.419 364.785 441.014 364.622 440.621 364.477L440.613 364.468C440.613 364.468 442.29 364.535 442.945 363.745Z" fill="#76858F"/>
<path d="M431.501 355.959C430.781 355.977 429.759 356.414 429.927 356.588C430.095 356.762 431.358 357.409 433.27 357.268C436.667 357.017 438.616 356.047 438.892 355.592C438.892 355.592 438.519 354.765 438.182 354.031C437.987 353.605 437.317 354.107 436.347 354.832C435.377 355.556 432.879 356.104 431.501 355.959Z" fill="#76858F"/>
<path d="M435.96 355.071C435.391 355.327 434.696 356.366 434.756 357.156C434.756 357.156 434.387 357.365 433.934 357.308C433.934 357.308 433.77 356.398 434.538 355.605C435.305 354.812 436.113 354.668 436.427 354.771C436.234 354.956 435.96 355.071 435.96 355.071Z" fill="#37474F"/>
<path d="M434.052 355.727C433.628 355.814 432.873 356.275 432.638 357.316C432.638 357.316 432.28 357.496 431.812 357.287C431.846 356.971 432.07 356.246 433.03 355.744C433.99 355.242 434.538 355.605 434.538 355.605L434.052 355.727Z" fill="#37474F"/>
<path d="M432.493 355.963C432.138 355.98 431.067 356.541 430.9 357.032C430.9 357.032 430.511 357.064 430.224 356.772C430.436 356.379 431.118 355.972 431.98 355.81C432.842 355.648 433.132 355.88 433.132 355.88L432.493 355.963Z" fill="#37474F"/>
<path d="M439.438 273.006C442.091 281.494 442.758 284.677 441.697 292.407C440.636 300.137 437.453 312.111 437.453 312.111C437.453 312.111 434.366 314.677 427.935 315.894C422.007 317.015 418.242 316.655 416.88 315.529L417.111 312.809L403.283 323.766C403.283 323.766 388.237 318.739 385.281 309.171C389.833 302.576 394.964 297.012 398.965 291.066C400.315 289.06 401.38 287.665 401.98 282.665L439.438 273.006Z" fill="#37474F"/>
<path d="M432.711 295.169C432.267 298.458 431.111 302.546 426.934 306.813C422.756 311.08 420.179 311.613 420.356 313.657C420.526 315.614 423.471 316.562 426.004 316.217C421.187 316.921 418.086 316.527 416.879 315.529L417.11 312.809C427.912 304.324 431.556 300.236 432.711 295.169Z" fill="#263238"/>
<path d="M434.303 320.362C434.303 320.362 430.167 323.291 425.614 322.016C427.891 321.925 433.811 320.078 435.085 317.177L434.303 320.362Z" fill="#9A4A4D"/>
<path d="M392.643 330.359C390.698 327.92 386.248 326.533 384.132 326.752C389.457 325.95 392.488 327.61 394.219 329.26L392.643 330.359Z" fill="#9A4A4D"/>
<path d="M367.81 254.686C368.058 254.54 368.274 254.336 368.543 254.233C368.882 254.103 369.261 254.149 369.619 254.089C370.486 253.944 371.113 253.213 371.847 252.73C372.626 252.218 373.558 251.977 374.487 251.906C375.416 251.835 376.349 251.927 377.275 252.036C377.714 252.087 378.158 252.143 378.596 252.082C379.034 252.021 379.472 251.829 379.734 251.474C380.06 251.032 380.052 250.399 379.795 249.913C379.539 249.428 379.069 249.081 378.559 248.877C378.049 248.674 377.498 248.6 376.951 248.55C375.352 248.404 373.732 248.449 372.15 248.723C370.86 248.946 369.588 249.325 368.44 249.953C367.278 250.588 366.537 251.572 365.902 252.712C365.664 253.14 365.429 253.597 365.441 254.086C365.464 255.083 367.213 255.036 367.81 254.686Z" fill="#9A4A4D"/>
<path d="M393.233 247.45C387.949 247.794 385.934 247.138 383.455 246.6C380.659 245.994 376.134 245.618 374.175 245.809C372.216 246 368.213 249.145 367.355 250.003C366.497 250.861 365.22 253.342 364.429 254.383C364.662 254.941 365.995 255.247 367.114 254.237C368.068 253.376 368.843 252.132 370.749 251.274C372.655 250.416 374.586 250.495 376.364 250.806C378.142 251.117 378.543 251.528 377.018 252.767C375.493 254.006 375.117 254.178 373.852 254.969C372.546 255.786 372.172 256.305 371.924 256.923C371.47 258.052 371.947 258.685 373.546 258.128C375.156 257.568 376.414 257.442 378.321 256.83C380.228 256.218 381.19 255.556 382.774 255.479C384.789 255.381 392.976 255.835 392.976 255.835L393.233 247.45Z" fill="#B16668"/>
<path d="M417.094 228.725C420.421 228.345 423.809 228.258 425.897 231.494C427.599 234.133 431.281 245.772 431.281 245.772L417.094 228.725Z" fill="#37474F"/>
<path d="M397.834 228.977L400.31 240.049L413.566 236.598L410.886 225.013L397.834 228.977Z" fill="#B16668"/>
<path d="M387.857 214.47C387.857 214.47 384.989 219.454 385.317 219.863C385.644 220.273 388.142 220.425 388.142 220.425L387.857 214.47Z" fill="#9A4A4D"/>
<path d="M396.083 198.574C390.456 199.888 388.371 202.765 387.764 212.693C387.544 216.289 387.766 220.266 388.267 222.907C389.074 227.165 390.154 228.362 391.358 229.154C392.354 229.809 397.523 230.028 399.842 229.335C402.745 228.467 409.293 225.986 412.282 221.2C415.797 215.568 415.848 208.805 412.632 205.018C405.108 196.16 398.373 198.039 396.083 198.574Z" fill="#B16668"/>
<path d="M391.357 229.154C392.106 229.636 395.071 230.087 397.988 229.663L397.551 227.701C397.551 227.701 396.165 228.512 394.153 229.069C393.311 229.302 392.295 229.398 391.357 229.154Z" fill="#9A4A4D"/>
<path d="M392.448 209.972C392.828 209.999 393.21 210.018 393.589 210.035C393.576 210.034 394.277 211.481 394.381 211.619C394.783 212.153 395.276 212.415 395.762 212.815C396.195 213.172 396.077 213.176 395.957 213.796C395.854 214.332 395.842 214.874 395.853 215.418C395.858 215.844 395.902 216.292 396.146 216.642C396.576 217.258 397.273 217.175 397.582 216.582C397.952 215.87 398.205 215.133 398.732 214.508C399.341 213.786 400.183 213.226 401.119 213.104C404.662 212.641 405.204 217.275 403.826 219.232C401.57 222.434 399.55 220.343 399.55 220.343C399.55 220.343 399.181 224.215 403.462 227.773C404.287 228.458 405.701 228.645 406.714 228.712C407.752 228.78 410.529 228.58 411.455 227.489C413.441 221.734 419.263 217.627 419.047 211.129C418.912 207.04 416.765 205.341 415.323 205.185C416.217 199.729 410.827 197.274 407.272 196.188C405.416 195.621 403.431 195.667 401.496 195.819C400.552 195.894 399.608 195.996 398.661 196.014C395.687 196.07 392.701 195.275 390.15 193.745C389.645 195.166 389.628 196.755 390.103 198.186C389.221 198.049 388.388 197.62 387.762 196.984C387.601 196.82 387.414 196.628 387.186 196.657C386.998 196.682 386.866 196.853 386.774 197.018C386.208 198.027 386.29 199.298 386.715 200.374C387.14 201.45 387.869 202.373 388.589 203.279C387.931 203.56 387.451 203.719 387.052 204.335C386.872 204.612 386.739 204.922 386.662 205.243C386.587 205.557 386.688 205.938 386.61 206.225C386.815 207.654 388.002 208.788 389.336 209.34C390.32 209.748 391.381 209.896 392.448 209.972Z" fill="#263238"/>
<path d="M392.272 240.049C394.413 238.489 399.194 235.061 399.194 235.061C399.194 235.061 403.637 236.166 408.513 233.912C412.643 232.003 411.915 229.463 411.915 229.463C411.915 229.463 413.49 229.09 417.093 228.724C420.82 229.587 426.859 235.682 430.516 243.64C436.863 257.454 439.713 269.315 441.942 280.693C439.625 291.223 410.251 297.505 400.823 287.091C400.823 287.091 402.63 282.638 401.331 276.443C399.875 269.501 395.654 263.038 393.234 257.14C389.783 248.732 392.272 240.049 392.272 240.049Z" fill="#9DB2BF"/>
<path opacity="0.25" d="M392.272 240.049C394.413 238.489 399.194 235.061 399.194 235.061C399.194 235.061 403.637 236.166 408.513 233.912C412.643 232.003 411.915 229.463 411.915 229.463C411.915 229.463 413.49 229.09 417.093 228.724C420.82 229.587 426.859 235.682 430.516 243.64C436.863 257.454 439.713 269.315 441.942 280.693C439.625 291.223 410.251 297.505 400.823 287.091C400.823 287.091 402.63 282.638 401.331 276.443C399.875 269.501 395.654 263.038 393.234 257.14C389.783 248.732 392.272 240.049 392.272 240.049Z" fill="black"/>
<path d="M344.365 294.891L343.362 293.373L347.401 281.944L348.403 283.462C348.576 283.769 348.703 284.105 348.805 284.457C349.476 284.842 350.449 284.947 351.586 284.714L361.775 282.629C361.848 282.615 361.902 282.639 361.938 282.695C362.08 282.911 362.904 284.157 362.94 284.212C363.296 284.749 361.996 288.253 361.279 288.386L351.235 290.064C349.337 290.38 347.232 291.6 345.926 293.194C345.448 293.777 344.925 294.344 344.365 294.891Z" fill="#263238"/>
<path d="M330.424 301.434C326.378 302.112 323.353 301.138 321.994 299.09C321.82 298.829 321.145 297.794 320.977 297.538C320.09 296.186 319.92 294.375 320.669 292.254C322.563 286.895 329.628 281.422 336.449 280.03L338.76 279.558C342.826 278.728 345.851 279.617 347.216 281.66C347.391 281.922 348.07 282.958 348.238 283.212C349.148 284.591 349.309 286.488 348.512 288.744L348.485 288.821C346.496 294.449 339.43 299.925 332.702 301.053L330.424 301.434Z" fill="#172742"/>
<path opacity="0.4" d="M330.424 301.434C326.378 302.112 323.353 301.138 321.994 299.09C321.82 298.829 321.145 297.794 320.977 297.538C320.09 296.186 319.92 294.375 320.669 292.254C322.563 286.895 329.628 281.422 336.449 280.03L338.76 279.558C342.826 278.728 345.851 279.617 347.216 281.66C347.391 281.922 348.07 282.958 348.238 283.212C349.148 284.591 349.309 286.488 348.512 288.744L348.485 288.821C346.496 294.449 339.43 299.925 332.702 301.053L330.424 301.434Z" fill="black"/>
<path d="M348.486 288.821L348.513 288.744C350.502 283.116 346.585 279.683 339.763 281.076L337.452 281.548C330.631 282.941 323.565 288.414 321.672 293.773C319.778 299.132 323.697 302.562 330.424 301.435L332.703 301.053C339.431 299.925 346.497 294.449 348.486 288.821Z" fill="#223A5F"/>
<path opacity="0.15" d="M348.486 288.821L348.513 288.744C350.502 283.116 346.585 279.683 339.763 281.076L337.452 281.548C330.631 282.941 323.565 288.414 321.672 293.773C319.778 299.132 323.697 302.562 330.424 301.435L332.703 301.053C339.431 299.925 346.497 294.449 348.486 288.821Z" fill="black"/>
<path d="M344.365 294.891C344.925 294.344 345.448 293.777 345.926 293.193C347.232 291.6 349.337 290.38 351.235 290.063L361.279 288.385C362.068 288.238 363.567 283.999 362.777 284.146L352.589 286.231C350.663 286.626 349.184 286.074 348.9 284.777C348.797 284.301 348.629 283.863 348.404 283.462L344.365 294.891Z" fill="#455A64"/>
<path d="M392 240.588C387.545 243.389 386.08 244.636 385.783 251.465C385.486 258.294 384.607 274.273 384.607 274.273C384.607 274.273 373.291 278.904 367.934 280.177C364.314 281.037 363.674 279.792 359.961 280.004C356.841 280.182 356.439 280.865 354.247 281.944C351.47 283.311 351.793 284.672 351.793 284.672L356.315 283.746C356.315 283.746 356.337 283.778 356.373 283.839C357.772 286.19 356.312 289.215 353.613 289.666L352.056 289.926C352.056 289.926 351.236 290.063 350.515 290.223C350.539 290.218 351.179 291.089 351.249 291.167C351.617 291.578 352.003 291.974 352.377 292.38C353.136 293.205 353.813 294.257 355.112 293.975C355.294 293.935 355.47 293.87 355.654 293.845C356.324 293.753 356.968 294.193 357.643 294.164C358.459 294.13 359.102 293.439 359.912 293.44C360.895 293.441 361.662 293.112 362.513 292.66C363.504 292.135 364.275 290.413 368.445 289.352C373.118 288.163 389.301 286.395 392.236 285.444C397.037 283.888 396.675 281.957 397.405 277.026C398.134 272.094 399.627 255.124 399.627 255.124C399.627 255.124 400.097 244.608 392 240.588Z" fill="#B16668"/>
<path d="M392.272 240.049C390.504 241.204 388.342 242.535 387.259 244.16C386.176 245.785 385.982 246.249 385.595 251.085C385.208 255.921 384.55 268.727 384.55 268.727C384.55 268.727 385.771 271.098 390.304 272.208C395.667 273.52 398.554 272.358 398.554 272.358C398.554 272.358 399.949 259.791 400.266 255.294C400.616 250.361 399.704 242.848 392.272 240.049Z" fill="#37474F"/>
<path d="M206.487 204.726C208.943 204.726 210.934 202.735 210.934 200.279C210.934 197.823 208.943 195.832 206.487 195.832C204.031 195.832 202.04 197.823 202.04 200.279C202.04 202.735 204.031 204.726 206.487 204.726Z" fill="white"/>
<path opacity="0.15" d="M210.337 213.137C212.464 214.365 212.464 216.356 210.337 217.584C208.21 218.812 204.762 218.812 202.635 217.584C200.508 216.356 200.508 214.365 202.635 213.137C204.762 211.909 208.211 211.909 210.337 213.137Z" fill="black"/>
<defs>
<linearGradient id="paint0_linear_85_594" x1="204.5" y1="233.5" x2="585.5" y2="684" gradientUnits="userSpaceOnUse">
<stop stop-color="#263956"/>
<stop offset="1" stop-color="#C84B31" stop-opacity="0.51"/>
</linearGradient>
</defs>
</svg>
